<?xml version="1.0" encoding="utf-8" standalone="no"?>
<!DOCTYPE svg PUBLIC "-//W3C//DTD SVG 1.1//EN"
  "http://www.w3.org/Graphics/SVG/1.1/DTD/svg11.dtd">
<svg height="219.506563pt" version="1.1" viewBox="0 0 350.3675 219.506563" width="350.3675pt" xmlns="http://www.w3.org/2000/svg" xmlns:xlink="http://www.w3.org/1999/xlink">
 <metadata>
  <rdf:RDF xmlns:cc="http://creativecommons.org/ns#" xmlns:dc="http://purl.org/dc/elements/1.1/" xmlns:rdf="http://www.w3.org/1999/02/22-rdf-syntax-ns#">
   <cc:Work>
    <dc:type rdf:resource="http://purl.org/dc/dcmitype/StillImage"/>
    <dc:date>2021-09-25T14:43:18.863173</dc:date>
    <dc:format>image/svg+xml</dc:format>
    <dc:creator>
     <cc:Agent>
      <dc:title>Matplotlib v3.4.1, https://matplotlib.org/</dc:title>
     </cc:Agent>
    </dc:creator>
   </cc:Work>
  </rdf:RDF>
 </metadata>
 <defs>
  <style type="text/css">*{stroke-linecap:butt;stroke-linejoin:round;}</style>
 </defs>
 <g id="figure_1">
  <g id="patch_1">
   <path d="M 0 219.506563 
L 350.3675 219.506563 
L 350.3675 0 
L 0 0 
z
" style="fill:none;"/>
  </g>
  <g id="axes_1">
   <g id="patch_2">
    <path d="M 56.5325 178.079063 
L 335.5325 178.079063 
L 335.5325 11.759063 
L 56.5325 11.759063 
z
" style="fill:none;"/>
   </g>
   <g id="matplotlib.axis_1">
    <g id="xtick_1">
     <g id="line2d_1">
      <path clip-path="url(#pb7ec35d62e)" d="M 56.5325 178.079063 
L 56.5325 11.759063 
" style="fill:none;stroke:#b0b0b0;stroke-linecap:square;stroke-width:0.8;"/>
     </g>
     <g id="line2d_2">
      <defs>
       <path d="M 0 0 
L 0 3.5 
" id="m2ee66712d1" style="stroke:#000000;stroke-width:0.8;"/>
      </defs>
      <g>
       <use style="stroke:#000000;stroke-width:0.8;" x="56.5325" xlink:href="#m2ee66712d1" y="178.079063"/>
      </g>
     </g>
     <g id="text_1">
      <!-- 0 -->
      <g transform="translate(52.715 194.197188)scale(0.12 -0.12)">
       <defs>
        <path d="M 2034 219 
Q 2513 219 2750 744 
Q 2988 1269 2988 2328 
Q 2988 3391 2750 3916 
Q 2513 4441 2034 4441 
Q 1556 4441 1318 3916 
Q 1081 3391 1081 2328 
Q 1081 1269 1318 744 
Q 1556 219 2034 219 
z
M 2034 -91 
Q 1275 -91 848 546 
Q 422 1184 422 2328 
Q 422 3475 848 4112 
Q 1275 4750 2034 4750 
Q 2797 4750 3222 4112 
Q 3647 3475 3647 2328 
Q 3647 1184 3222 546 
Q 2797 -91 2034 -91 
z
" id="DejaVuSerif-30" transform="scale(0.015625)"/>
       </defs>
       <use xlink:href="#DejaVuSerif-30"/>
      </g>
     </g>
    </g>
    <g id="xtick_2">
     <g id="line2d_3">
      <path clip-path="url(#pb7ec35d62e)" d="M 103.0325 178.079063 
L 103.0325 11.759063 
" style="fill:none;stroke:#b0b0b0;stroke-linecap:square;stroke-width:0.8;"/>
     </g>
     <g id="line2d_4">
      <g>
       <use style="stroke:#000000;stroke-width:0.8;" x="103.0325" xlink:href="#m2ee66712d1" y="178.079063"/>
      </g>
     </g>
     <g id="text_2">
      <!-- 5 -->
      <g transform="translate(99.215 194.197188)scale(0.12 -0.12)">
       <defs>
        <path d="M 3219 4666 
L 3219 4153 
L 1081 4153 
L 1081 2816 
Q 1244 2928 1461 2984 
Q 1678 3041 1947 3041 
Q 2703 3041 3140 2622 
Q 3578 2203 3578 1478 
Q 3578 738 3136 323 
Q 2694 -91 1894 -91 
Q 1572 -91 1234 -12 
Q 897 66 544 225 
L 544 1131 
L 897 1131 
Q 925 688 1179 453 
Q 1434 219 1894 219 
Q 2388 219 2653 544 
Q 2919 869 2919 1478 
Q 2919 2084 2655 2407 
Q 2391 2731 1894 2731 
Q 1613 2731 1398 2631 
Q 1184 2531 1019 2322 
L 750 2322 
L 750 4666 
L 3219 4666 
z
" id="DejaVuSerif-35" transform="scale(0.015625)"/>
       </defs>
       <use xlink:href="#DejaVuSerif-35"/>
      </g>
     </g>
    </g>
    <g id="xtick_3">
     <g id="line2d_5">
      <path clip-path="url(#pb7ec35d62e)" d="M 149.5325 178.079063 
L 149.5325 11.759063 
" style="fill:none;stroke:#b0b0b0;stroke-linecap:square;stroke-width:0.8;"/>
     </g>
     <g id="line2d_6">
      <g>
       <use style="stroke:#000000;stroke-width:0.8;" x="149.5325" xlink:href="#m2ee66712d1" y="178.079063"/>
      </g>
     </g>
     <g id="text_3">
      <!-- 10 -->
      <g transform="translate(141.8975 194.197188)scale(0.12 -0.12)">
       <defs>
        <path d="M 909 0 
L 909 331 
L 1722 331 
L 1722 4213 
L 781 3603 
L 781 4013 
L 1919 4750 
L 2350 4750 
L 2350 331 
L 3163 331 
L 3163 0 
L 909 0 
z
" id="DejaVuSerif-31" transform="scale(0.015625)"/>
       </defs>
       <use xlink:href="#DejaVuSerif-31"/>
       <use x="63.623047" xlink:href="#DejaVuSerif-30"/>
      </g>
     </g>
    </g>
    <g id="xtick_4">
     <g id="line2d_7">
      <path clip-path="url(#pb7ec35d62e)" d="M 196.0325 178.079063 
L 196.0325 11.759063 
" style="fill:none;stroke:#b0b0b0;stroke-linecap:square;stroke-width:0.8;"/>
     </g>
     <g id="line2d_8">
      <g>
       <use style="stroke:#000000;stroke-width:0.8;" x="196.0325" xlink:href="#m2ee66712d1" y="178.079063"/>
      </g>
     </g>
     <g id="text_4">
      <!-- 15 -->
      <g transform="translate(188.3975 194.197188)scale(0.12 -0.12)">
       <use xlink:href="#DejaVuSerif-31"/>
       <use x="63.623047" xlink:href="#DejaVuSerif-35"/>
      </g>
     </g>
    </g>
    <g id="xtick_5">
     <g id="line2d_9">
      <path clip-path="url(#pb7ec35d62e)" d="M 242.5325 178.079063 
L 242.5325 11.759063 
" style="fill:none;stroke:#b0b0b0;stroke-linecap:square;stroke-width:0.8;"/>
     </g>
     <g id="line2d_10">
      <g>
       <use style="stroke:#000000;stroke-width:0.8;" x="242.5325" xlink:href="#m2ee66712d1" y="178.079063"/>
      </g>
     </g>
     <g id="text_5">
      <!-- 20 -->
      <g transform="translate(234.8975 194.197188)scale(0.12 -0.12)">
       <defs>
        <path d="M 819 3553 
L 469 3553 
L 469 4384 
Q 803 4563 1142 4656 
Q 1481 4750 1806 4750 
Q 2534 4750 2956 4397 
Q 3378 4044 3378 3438 
Q 3378 2753 2422 1800 
Q 2347 1728 2309 1691 
L 1131 513 
L 3078 513 
L 3078 1088 
L 3444 1088 
L 3444 0 
L 434 0 
L 434 341 
L 1850 1753 
Q 2319 2222 2519 2614 
Q 2719 3006 2719 3438 
Q 2719 3909 2473 4175 
Q 2228 4441 1797 4441 
Q 1350 4441 1106 4219 
Q 863 3997 819 3553 
z
" id="DejaVuSerif-32" transform="scale(0.015625)"/>
       </defs>
       <use xlink:href="#DejaVuSerif-32"/>
       <use x="63.623047" xlink:href="#DejaVuSerif-30"/>
      </g>
     </g>
    </g>
    <g id="xtick_6">
     <g id="line2d_11">
      <path clip-path="url(#pb7ec35d62e)" d="M 289.0325 178.079063 
L 289.0325 11.759063 
" style="fill:none;stroke:#b0b0b0;stroke-linecap:square;stroke-width:0.8;"/>
     </g>
     <g id="line2d_12">
      <g>
       <use style="stroke:#000000;stroke-width:0.8;" x="289.0325" xlink:href="#m2ee66712d1" y="178.079063"/>
      </g>
     </g>
     <g id="text_6">
      <!-- 25 -->
      <g transform="translate(281.3975 194.197188)scale(0.12 -0.12)">
       <use xlink:href="#DejaVuSerif-32"/>
       <use x="63.623047" xlink:href="#DejaVuSerif-35"/>
      </g>
     </g>
    </g>
    <g id="xtick_7">
     <g id="line2d_13">
      <path clip-path="url(#pb7ec35d62e)" d="M 335.5325 178.079063 
L 335.5325 11.759063 
" style="fill:none;stroke:#b0b0b0;stroke-linecap:square;stroke-width:0.8;"/>
     </g>
     <g id="line2d_14">
      <g>
       <use style="stroke:#000000;stroke-width:0.8;" x="335.5325" xlink:href="#m2ee66712d1" y="178.079063"/>
      </g>
     </g>
     <g id="text_7">
      <!-- 30 -->
      <g transform="translate(327.8975 194.197188)scale(0.12 -0.12)">
       <defs>
        <path d="M 622 4469 
Q 988 4606 1323 4678 
Q 1659 4750 1953 4750 
Q 2638 4750 3022 4454 
Q 3406 4159 3406 3634 
Q 3406 3213 3140 2930 
Q 2875 2647 2388 2547 
Q 2963 2466 3280 2130 
Q 3597 1794 3597 1259 
Q 3597 606 3158 257 
Q 2719 -91 1894 -91 
Q 1528 -91 1179 -12 
Q 831 66 488 225 
L 488 1131 
L 838 1131 
Q 869 681 1141 450 
Q 1413 219 1906 219 
Q 2384 219 2661 495 
Q 2938 772 2938 1253 
Q 2938 1803 2653 2086 
Q 2369 2369 1819 2369 
L 1522 2369 
L 1522 2688 
L 1678 2688 
Q 2225 2688 2498 2914 
Q 2772 3141 2772 3597 
Q 2772 4006 2547 4223 
Q 2322 4441 1900 4441 
Q 1478 4441 1245 4241 
Q 1013 4041 972 3647 
L 622 3647 
L 622 4469 
z
" id="DejaVuSerif-33" transform="scale(0.015625)"/>
       </defs>
       <use xlink:href="#DejaVuSerif-33"/>
       <use x="63.623047" xlink:href="#DejaVuSerif-30"/>
      </g>
     </g>
    </g>
    <g id="text_8">
     <!-- Epochs -->
     <g transform="translate(173.89625 209.810938)scale(0.12 -0.12)">
      <defs>
       <path d="M 353 0 
L 353 331 
L 947 331 
L 947 4331 
L 353 4331 
L 353 4666 
L 4109 4666 
L 4109 3628 
L 3725 3628 
L 3725 4281 
L 1581 4281 
L 1581 2719 
L 3109 2719 
L 3109 3303 
L 3494 3303 
L 3494 1753 
L 3109 1753 
L 3109 2338 
L 1581 2338 
L 1581 384 
L 3775 384 
L 3775 1038 
L 4159 1038 
L 4159 0 
L 353 0 
z
" id="DejaVuSerif-45" transform="scale(0.015625)"/>
       <path d="M 1313 1825 
L 1313 1497 
Q 1313 897 1542 583 
Q 1772 269 2209 269 
Q 2650 269 2876 622 
Q 3103 975 3103 1663 
Q 3103 2353 2876 2703 
Q 2650 3053 2209 3053 
Q 1772 3053 1542 2737 
Q 1313 2422 1313 1825 
z
M 738 2988 
L 184 2988 
L 184 3322 
L 1313 3322 
L 1313 2803 
Q 1481 3116 1742 3264 
Q 2003 3413 2388 3413 
Q 3000 3413 3387 2928 
Q 3775 2444 3775 1663 
Q 3775 881 3387 395 
Q 3000 -91 2388 -91 
Q 2003 -91 1742 57 
Q 1481 206 1313 519 
L 1313 -997 
L 1856 -997 
L 1856 -1331 
L 184 -1331 
L 184 -997 
L 738 -997 
L 738 2988 
z
" id="DejaVuSerif-70" transform="scale(0.015625)"/>
       <path d="M 1925 219 
Q 2388 219 2623 584 
Q 2859 950 2859 1663 
Q 2859 2375 2623 2739 
Q 2388 3103 1925 3103 
Q 1463 3103 1227 2739 
Q 991 2375 991 1663 
Q 991 950 1228 584 
Q 1466 219 1925 219 
z
M 1925 -91 
Q 1200 -91 759 389 
Q 319 869 319 1663 
Q 319 2456 758 2934 
Q 1197 3413 1925 3413 
Q 2653 3413 3092 2934 
Q 3531 2456 3531 1663 
Q 3531 869 3092 389 
Q 2653 -91 1925 -91 
z
" id="DejaVuSerif-6f" transform="scale(0.015625)"/>
       <path d="M 3291 997 
Q 3169 466 2822 187 
Q 2475 -91 1925 -91 
Q 1200 -91 759 389 
Q 319 869 319 1663 
Q 319 2459 759 2936 
Q 1200 3413 1925 3413 
Q 2241 3413 2553 3339 
Q 2866 3266 3181 3116 
L 3181 2266 
L 2847 2266 
Q 2781 2703 2561 2903 
Q 2341 3103 1931 3103 
Q 1466 3103 1228 2742 
Q 991 2381 991 1663 
Q 991 944 1227 581 
Q 1463 219 1931 219 
Q 2303 219 2525 412 
Q 2747 606 2828 997 
L 3291 997 
z
" id="DejaVuSerif-63" transform="scale(0.015625)"/>
       <path d="M 263 0 
L 263 331 
L 781 331 
L 781 4531 
L 231 4531 
L 231 4863 
L 1356 4863 
L 1356 2731 
Q 1516 3069 1770 3241 
Q 2025 3413 2363 3413 
Q 2913 3413 3172 3097 
Q 3431 2781 3431 2113 
L 3431 331 
L 3944 331 
L 3944 0 
L 2356 0 
L 2356 331 
L 2853 331 
L 2853 1931 
Q 2853 2541 2704 2764 
Q 2556 2988 2175 2988 
Q 1775 2988 1565 2697 
Q 1356 2406 1356 1850 
L 1356 331 
L 1856 331 
L 1856 0 
L 263 0 
z
" id="DejaVuSerif-68" transform="scale(0.015625)"/>
       <path d="M 359 184 
L 359 959 
L 691 959 
Q 703 588 923 403 
Q 1144 219 1575 219 
Q 1963 219 2166 364 
Q 2369 509 2369 788 
Q 2369 1006 2220 1140 
Q 2072 1275 1594 1428 
L 1178 1569 
Q 750 1706 558 1912 
Q 366 2119 366 2438 
Q 366 2894 700 3153 
Q 1034 3413 1625 3413 
Q 1888 3413 2178 3344 
Q 2469 3275 2778 3144 
L 2778 2419 
L 2447 2419 
Q 2434 2741 2221 2922 
Q 2009 3103 1644 3103 
Q 1281 3103 1095 2975 
Q 909 2847 909 2591 
Q 909 2381 1050 2254 
Q 1191 2128 1613 1997 
L 2069 1856 
Q 2541 1709 2748 1489 
Q 2956 1269 2956 922 
Q 2956 450 2595 179 
Q 2234 -91 1600 -91 
Q 1278 -91 972 -22 
Q 666 47 359 184 
z
" id="DejaVuSerif-73" transform="scale(0.015625)"/>
      </defs>
      <use xlink:href="#DejaVuSerif-45"/>
      <use x="72.998047" xlink:href="#DejaVuSerif-70"/>
      <use x="137.011719" xlink:href="#DejaVuSerif-6f"/>
      <use x="197.216797" xlink:href="#DejaVuSerif-63"/>
      <use x="253.222656" xlink:href="#DejaVuSerif-68"/>
      <use x="317.626953" xlink:href="#DejaVuSerif-73"/>
     </g>
    </g>
   </g>
   <g id="matplotlib.axis_2">
    <g id="ytick_1">
     <g id="line2d_15">
      <path clip-path="url(#pb7ec35d62e)" d="M 56.5325 178.079063 
L 335.5325 178.079063 
" style="fill:none;stroke:#b0b0b0;stroke-linecap:square;stroke-width:0.8;"/>
     </g>
     <g id="line2d_16">
      <defs>
       <path d="M 0 0 
L -3.5 0 
" id="md437989086" style="stroke:#000000;stroke-width:0.8;"/>
      </defs>
      <g>
       <use style="stroke:#000000;stroke-width:0.8;" x="56.5325" xlink:href="#md437989086" y="178.079063"/>
      </g>
     </g>
     <g id="text_9">
      <!-- 0.00 -->
      <g transform="translate(22.81375 182.638125)scale(0.12 -0.12)">
       <defs>
        <path d="M 603 325 
Q 603 500 722 622 
Q 841 744 1019 744 
Q 1191 744 1312 622 
Q 1434 500 1434 325 
Q 1434 153 1312 31 
Q 1191 -91 1019 -91 
Q 841 -91 722 29 
Q 603 150 603 325 
z
" id="DejaVuSerif-2e" transform="scale(0.015625)"/>
       </defs>
       <use xlink:href="#DejaVuSerif-30"/>
       <use x="63.623047" xlink:href="#DejaVuSerif-2e"/>
       <use x="95.410156" xlink:href="#DejaVuSerif-30"/>
       <use x="159.033203" xlink:href="#DejaVuSerif-30"/>
      </g>
     </g>
    </g>
    <g id="ytick_2">
     <g id="line2d_17">
      <path clip-path="url(#pb7ec35d62e)" d="M 56.5325 150.359063 
L 335.5325 150.359063 
" style="fill:none;stroke:#b0b0b0;stroke-linecap:square;stroke-width:0.8;"/>
     </g>
     <g id="line2d_18">
      <g>
       <use style="stroke:#000000;stroke-width:0.8;" x="56.5325" xlink:href="#md437989086" y="150.359063"/>
      </g>
     </g>
     <g id="text_10">
      <!-- 0.05 -->
      <g transform="translate(22.81375 154.918125)scale(0.12 -0.12)">
       <use xlink:href="#DejaVuSerif-30"/>
       <use x="63.623047" xlink:href="#DejaVuSerif-2e"/>
       <use x="95.410156" xlink:href="#DejaVuSerif-30"/>
       <use x="159.033203" xlink:href="#DejaVuSerif-35"/>
      </g>
     </g>
    </g>
    <g id="ytick_3">
     <g id="line2d_19">
      <path clip-path="url(#pb7ec35d62e)" d="M 56.5325 122.639063 
L 335.5325 122.639063 
" style="fill:none;stroke:#b0b0b0;stroke-linecap:square;stroke-width:0.8;"/>
     </g>
     <g id="line2d_20">
      <g>
       <use style="stroke:#000000;stroke-width:0.8;" x="56.5325" xlink:href="#md437989086" y="122.639063"/>
      </g>
     </g>
     <g id="text_11">
      <!-- 0.10 -->
      <g transform="translate(22.81375 127.198125)scale(0.12 -0.12)">
       <use xlink:href="#DejaVuSerif-30"/>
       <use x="63.623047" xlink:href="#DejaVuSerif-2e"/>
       <use x="95.410156" xlink:href="#DejaVuSerif-31"/>
       <use x="159.033203" xlink:href="#DejaVuSerif-30"/>
      </g>
     </g>
    </g>
    <g id="ytick_4">
     <g id="line2d_21">
      <path clip-path="url(#pb7ec35d62e)" d="M 56.5325 94.919063 
L 335.5325 94.919063 
" style="fill:none;stroke:#b0b0b0;stroke-linecap:square;stroke-width:0.8;"/>
     </g>
     <g id="line2d_22">
      <g>
       <use style="stroke:#000000;stroke-width:0.8;" x="56.5325" xlink:href="#md437989086" y="94.919063"/>
      </g>
     </g>
     <g id="text_12">
      <!-- 0.15 -->
      <g transform="translate(22.81375 99.478125)scale(0.12 -0.12)">
       <use xlink:href="#DejaVuSerif-30"/>
       <use x="63.623047" xlink:href="#DejaVuSerif-2e"/>
       <use x="95.410156" xlink:href="#DejaVuSerif-31"/>
       <use x="159.033203" xlink:href="#DejaVuSerif-35"/>
      </g>
     </g>
    </g>
    <g id="ytick_5">
     <g id="line2d_23">
      <path clip-path="url(#pb7ec35d62e)" d="M 56.5325 67.199063 
L 335.5325 67.199063 
" style="fill:none;stroke:#b0b0b0;stroke-linecap:square;stroke-width:0.8;"/>
     </g>
     <g id="line2d_24">
      <g>
       <use style="stroke:#000000;stroke-width:0.8;" x="56.5325" xlink:href="#md437989086" y="67.199063"/>
      </g>
     </g>
     <g id="text_13">
      <!-- 0.20 -->
      <g transform="translate(22.81375 71.758125)scale(0.12 -0.12)">
       <use xlink:href="#DejaVuSerif-30"/>
       <use x="63.623047" xlink:href="#DejaVuSerif-2e"/>
       <use x="95.410156" xlink:href="#DejaVuSerif-32"/>
       <use x="159.033203" xlink:href="#DejaVuSerif-30"/>
      </g>
     </g>
    </g>
    <g id="ytick_6">
     <g id="line2d_25">
      <path clip-path="url(#pb7ec35d62e)" d="M 56.5325 39.479063 
L 335.5325 39.479063 
" style="fill:none;stroke:#b0b0b0;stroke-linecap:square;stroke-width:0.8;"/>
     </g>
     <g id="line2d_26">
      <g>
       <use style="stroke:#000000;stroke-width:0.8;" x="56.5325" xlink:href="#md437989086" y="39.479063"/>
      </g>
     </g>
     <g id="text_14">
      <!-- 0.25 -->
      <g transform="translate(22.81375 44.038125)scale(0.12 -0.12)">
       <use xlink:href="#DejaVuSerif-30"/>
       <use x="63.623047" xlink:href="#DejaVuSerif-2e"/>
       <use x="95.410156" xlink:href="#DejaVuSerif-32"/>
       <use x="159.033203" xlink:href="#DejaVuSerif-35"/>
      </g>
     </g>
    </g>
    <g id="ytick_7">
     <g id="line2d_27">
      <path clip-path="url(#pb7ec35d62e)" d="M 56.5325 11.759063 
L 335.5325 11.759063 
" style="fill:none;stroke:#b0b0b0;stroke-linecap:square;stroke-width:0.8;"/>
     </g>
     <g id="line2d_28">
      <g>
       <use style="stroke:#000000;stroke-width:0.8;" x="56.5325" xlink:href="#md437989086" y="11.759063"/>
      </g>
     </g>
     <g id="text_15">
      <!-- 0.30 -->
      <g transform="translate(22.81375 16.318125)scale(0.12 -0.12)">
       <use xlink:href="#DejaVuSerif-30"/>
       <use x="63.623047" xlink:href="#DejaVuSerif-2e"/>
       <use x="95.410156" xlink:href="#DejaVuSerif-33"/>
       <use x="159.033203" xlink:href="#DejaVuSerif-30"/>
      </g>
     </g>
    </g>
    <g id="text_16">
     <!-- Loss -->
     <g transform="translate(16.318125 108.673125)rotate(-90)scale(0.12 -0.12)">
      <defs>
       <path d="M 353 0 
L 353 331 
L 947 331 
L 947 4331 
L 353 4331 
L 353 4666 
L 2175 4666 
L 2175 4331 
L 1581 4331 
L 1581 384 
L 3713 384 
L 3713 1166 
L 4097 1166 
L 4097 0 
L 353 0 
z
" id="DejaVuSerif-4c" transform="scale(0.015625)"/>
      </defs>
      <use xlink:href="#DejaVuSerif-4c"/>
      <use x="66.40625" xlink:href="#DejaVuSerif-6f"/>
      <use x="126.611328" xlink:href="#DejaVuSerif-73"/>
      <use x="177.929688" xlink:href="#DejaVuSerif-73"/>
     </g>
    </g>
   </g>
   <g id="line2d_29">
    <path clip-path="url(#pb7ec35d62e)" d="M 56.5325 2.55439 
L 65.8325 75.510187 
L 75.1325 86.676724 
L 84.4325 84.330377 
L 93.7325 88.063012 
L 103.0325 117.234384 
L 112.3325 119.768116 
L 121.6325 110.667652 
L 130.9325 107.629689 
L 140.2325 134.808488 
L 149.5325 124.007604 
L 158.8325 125.464612 
L 168.1325 117.444417 
L 177.4325 102.502332 
L 186.7325 114.975858 
L 196.0325 125.432204 
L 205.3325 147.576395 
L 214.6325 134.185461 
L 223.9325 141.134559 
L 233.2325 145.722019 
L 242.5325 123.545911 
L 251.8325 134.095906 
L 261.1325 144.229071 
L 270.4325 138.267388 
L 279.7325 112.244993 
L 289.0325 144.446915 
L 298.3325 151.54104 
L 307.6325 157.852651 
L 316.9325 142.332652 
L 326.2325 156.257188 
" style="fill:none;stroke:#4682b4;stroke-linecap:square;"/>
   </g>
   <g id="line2d_30">
    <path clip-path="url(#pb7ec35d62e)" d="M 56.5325 52.01173 
L 65.8325 105.47302 
L 75.1325 123.831306 
L 84.4325 133.930012 
L 93.7325 132.665032 
L 103.0325 143.391883 
L 112.3325 143.458584 
L 121.6325 147.965876 
L 130.9325 144.105599 
L 140.2325 150.079311 
L 149.5325 150.932732 
L 158.8325 150.804411 
L 168.1325 148.835678 
L 177.4325 144.131527 
L 186.7325 151.041483 
L 196.0325 151.36866 
L 205.3325 156.039693 
L 214.6325 156.12543 
L 223.9325 153.460204 
L 233.2325 156.968021 
L 242.5325 155.868023 
L 251.8325 157.282891 
L 261.1325 155.865656 
L 270.4325 150.198776 
L 279.7325 150.389893 
L 289.0325 157.376756 
L 298.3325 159.655184 
L 307.6325 160.178217 
L 316.9325 155.783284 
L 326.2325 160.488163 
" style="fill:none;stroke:#4682b4;stroke-dasharray:1,1.65;stroke-dashoffset:0;"/>
   </g>
   <g id="line2d_31">
    <path clip-path="url(#pb7ec35d62e)" d="M 58.714849 -1 
L 65.8325 76.64911 
L 75.1325 95.551851 
L 84.4325 92.690641 
L 93.7325 101.742731 
L 103.0325 123.591426 
L 112.3325 130.518937 
L 121.6325 119.691068 
L 130.9325 121.71341 
L 140.2325 146.168465 
L 149.5325 131.303854 
L 158.8325 132.103192 
L 168.1325 124.359185 
L 177.4325 114.889425 
L 186.7325 120.283483 
L 196.0325 127.28969 
L 205.3325 152.021161 
L 214.6325 143.726416 
L 223.9325 145.380051 
L 233.2325 151.23825 
L 242.5325 131.272474 
L 251.8325 134.709164 
L 261.1325 151.139667 
L 270.4325 140.850551 
L 279.7325 123.468367 
" style="fill:none;stroke:#ff7f50;stroke-linecap:square;"/>
   </g>
   <g id="line2d_32">
    <path clip-path="url(#pb7ec35d62e)" d="M 56.5325 81.935371 
L 65.8325 93.861782 
L 75.1325 115.168501 
L 84.4325 136.626953 
L 93.7325 136.523659 
L 103.0325 146.965484 
L 112.3325 140.79404 
L 121.6325 143.531033 
L 130.9325 146.092068 
L 140.2325 152.97446 
L 149.5325 150.752081 
L 158.8325 150.802916 
L 168.1325 151.715777 
L 177.4325 150.833697 
L 186.7325 146.936507 
L 196.0325 150.7711 
L 205.3325 154.735193 
L 214.6325 150.223147 
L 223.9325 157.477907 
L 233.2325 154.933113 
L 242.5325 149.589808 
L 251.8325 158.941028 
L 261.1325 157.359614 
L 270.4325 148.576265 
L 279.7325 154.975398 
" style="fill:none;stroke:#ff7f50;stroke-dasharray:1,1.65;stroke-dashoffset:0;"/>
   </g>
   <g id="line2d_33">
    <path clip-path="url(#pb7ec35d62e)" d="M 57.664969 -1 
L 65.8325 73.49048 
L 75.1325 87.706062 
L 84.4325 77.60308 
L 93.7325 87.465702 
L 103.0325 111.484532 
L 112.3325 122.073016 
L 121.6325 106.507314 
L 130.9325 108.780331 
L 140.2325 135.939872 
L 149.5325 115.312229 
L 158.8325 123.243133 
L 168.1325 112.37989 
L 177.4325 93.877396 
L 186.7325 109.402672 
L 196.0325 113.418365 
L 205.3325 139.237452 
L 214.6325 125.356308 
L 223.9325 134.410265 
L 233.2325 141.014622 
L 242.5325 115.322374 
L 251.8325 124.946858 
L 261.1325 138.017338 
L 270.4325 125.37138 
L 279.7325 103.783628 
" style="fill:none;stroke:#2ca02c;stroke-linecap:square;"/>
   </g>
   <g id="line2d_34">
    <path clip-path="url(#pb7ec35d62e)" d="M 56.5325 28.570606 
L 65.8325 86.696865 
L 75.1325 108.374057 
L 84.4325 122.679091 
L 93.7325 126.655519 
L 103.0325 142.866239 
L 112.3325 144.015717 
L 121.6325 148.641329 
L 130.9325 148.308619 
L 140.2325 151.280552 
L 149.5325 151.201364 
L 158.8325 151.589723 
L 168.1325 140.207135 
L 177.4325 150.897046 
L 186.7325 152.134721 
L 196.0325 148.191264 
L 205.3325 154.02912 
L 214.6325 151.713226 
L 223.9325 154.065945 
L 233.2325 153.010025 
L 242.5325 151.677715 
L 251.8325 158.293773 
L 261.1325 155.355471 
L 270.4325 133.635273 
L 279.7325 152.758715 
" style="fill:none;stroke:#2ca02c;stroke-dasharray:1,1.65;stroke-dashoffset:0;"/>
   </g>
   <g id="line2d_35">
    <path clip-path="url(#pb7ec35d62e)" d="M 60.085929 -1 
L 65.8325 41.671214 
L 75.1325 89.468994 
L 84.4325 103.130027 
L 93.7325 95.010395 
L 103.0325 123.530148 
L 112.3325 112.726617 
L 121.6325 128.994311 
L 130.9325 136.485232 
L 140.2325 138.111602 
L 149.5325 146.195304 
L 158.8325 148.373695 
L 168.1325 129.57704 
L 177.4325 139.610957 
L 186.7325 125.061424 
L 196.0325 134.594143 
L 205.3325 149.577116 
L 214.6325 147.379186 
L 223.9325 157.548579 
L 233.2325 148.226416 
L 242.5325 158.692816 
L 251.8325 154.502072 
L 261.1325 157.333476 
L 270.4325 161.400406 
L 279.7325 150.003857 
L 289.0325 153.058567 
L 298.3325 156.628547 
L 307.6325 158.217008 
L 316.9325 163.940613 
L 326.2325 158.703274 
" style="fill:none;stroke:#d62728;stroke-linecap:square;"/>
   </g>
   <g id="line2d_36">
    <path clip-path="url(#pb7ec35d62e)" d="M 61.305901 -1 
L 65.8325 64.114922 
L 75.1325 118.956035 
L 84.4325 119.117211 
L 93.7325 57.147886 
L 103.0325 139.099238 
L 112.3325 120.904886 
L 121.6325 140.166688 
L 130.9325 144.659616 
L 140.2325 148.252674 
L 149.5325 154.063078 
L 158.8325 152.586848 
L 168.1325 121.551107 
L 177.4325 141.743579 
L 186.7325 149.832067 
L 196.0325 149.582331 
L 205.3325 157.085051 
L 214.6325 156.943213 
L 223.9325 157.601659 
L 233.2325 154.863514 
L 242.5325 159.360147 
L 251.8325 148.490818 
L 261.1325 157.889746 
L 270.4325 150.889663 
L 279.7325 154.743415 
L 289.0325 159.414101 
L 298.3325 160.395824 
L 307.6325 158.93433 
L 316.9325 163.619587 
L 326.2325 163.034992 
" style="fill:none;stroke:#d62728;stroke-dasharray:1,1.65;stroke-dashoffset:0;"/>
   </g>
   <g id="patch_3">
    <path d="M 56.5325 178.079063 
L 56.5325 11.759063 
" style="fill:none;stroke:#000000;stroke-linecap:square;stroke-linejoin:miter;stroke-width:0.8;"/>
   </g>
   <g id="patch_4">
    <path d="M 335.5325 178.079063 
L 335.5325 11.759063 
" style="fill:none;stroke:#000000;stroke-linecap:square;stroke-linejoin:miter;stroke-width:0.8;"/>
   </g>
   <g id="patch_5">
    <path d="M 56.5325 178.079063 
L 335.5325 178.079063 
" style="fill:none;stroke:#000000;stroke-linecap:square;stroke-linejoin:miter;stroke-width:0.8;"/>
   </g>
   <g id="patch_6">
    <path d="M 56.5325 11.759063 
L 335.5325 11.759063 
" style="fill:none;stroke:#000000;stroke-linecap:square;stroke-linejoin:miter;stroke-width:0.8;"/>
   </g>
   <g id="legend_1">
    <g id="patch_7">
     <path d="M 149.770625 91.984688 
L 327.1325 91.984688 
Q 329.5325 91.984688 329.5325 89.584688 
L 329.5325 20.159063 
Q 329.5325 17.759063 327.1325 17.759063 
L 149.770625 17.759063 
Q 147.370625 17.759063 147.370625 20.159063 
L 147.370625 89.584688 
Q 147.370625 91.984688 149.770625 91.984688 
z
" style="fill:#ffffff;opacity:0.8;stroke:#cccccc;stroke-linejoin:miter;"/>
    </g>
    <g id="line2d_37">
     <path d="M 152.170625 27.477188 
L 176.170625 27.477188 
" style="fill:none;stroke:#4682b4;stroke-linecap:square;"/>
    </g>
    <g id="line2d_38"/>
    <g id="text_17">
     <!-- Add Upsampling -->
     <g transform="translate(185.770625 31.677188)scale(0.12 -0.12)">
      <defs>
       <path d="M 1281 1691 
L 2994 1691 
L 2138 3909 
L 1281 1691 
z
M -38 0 
L -38 331 
L 372 331 
L 2034 4666 
L 2559 4666 
L 4225 331 
L 4684 331 
L 4684 0 
L 2988 0 
L 2988 331 
L 3506 331 
L 3116 1356 
L 1153 1356 
L 763 331 
L 1275 331 
L 1275 0 
L -38 0 
z
" id="DejaVuSerif-41" transform="scale(0.015625)"/>
       <path d="M 3359 331 
L 3909 331 
L 3909 0 
L 2784 0 
L 2784 519 
Q 2616 206 2355 57 
Q 2094 -91 1709 -91 
Q 1097 -91 708 395 
Q 319 881 319 1663 
Q 319 2444 706 2928 
Q 1094 3413 1709 3413 
Q 2094 3413 2355 3264 
Q 2616 3116 2784 2803 
L 2784 4531 
L 2241 4531 
L 2241 4863 
L 3359 4863 
L 3359 331 
z
M 2784 1497 
L 2784 1825 
Q 2784 2422 2554 2737 
Q 2325 3053 1888 3053 
Q 1444 3053 1217 2703 
Q 991 2353 991 1663 
Q 991 975 1217 622 
Q 1444 269 1888 269 
Q 2325 269 2554 583 
Q 2784 897 2784 1497 
z
" id="DejaVuSerif-64" transform="scale(0.015625)"/>
       <path id="DejaVuSerif-20" transform="scale(0.015625)"/>
       <path d="M 897 4331 
L 300 4331 
L 300 4666 
L 2125 4666 
L 2125 4331 
L 1528 4331 
L 1528 1919 
Q 1528 1025 1820 672 
Q 2113 319 2828 319 
Q 3544 319 3836 672 
Q 4128 1025 4128 1919 
L 4128 4331 
L 3531 4331 
L 3531 4666 
L 5106 4666 
L 5106 4331 
L 4513 4331 
L 4513 1856 
Q 4513 791 4103 350 
Q 3694 -91 2713 -91 
Q 1731 -91 1314 353 
Q 897 797 897 1856 
L 897 4331 
z
" id="DejaVuSerif-55" transform="scale(0.015625)"/>
       <path d="M 2547 1044 
L 2547 1747 
L 1806 1747 
Q 1378 1747 1168 1562 
Q 959 1378 959 997 
Q 959 650 1171 447 
Q 1384 244 1747 244 
Q 2106 244 2326 466 
Q 2547 688 2547 1044 
z
M 3122 2075 
L 3122 331 
L 3634 331 
L 3634 0 
L 2547 0 
L 2547 359 
Q 2356 128 2106 18 
Q 1856 -91 1522 -91 
Q 969 -91 644 203 
Q 319 497 319 997 
Q 319 1513 691 1797 
Q 1063 2081 1741 2081 
L 2547 2081 
L 2547 2309 
Q 2547 2688 2317 2895 
Q 2088 3103 1672 3103 
Q 1328 3103 1125 2947 
Q 922 2791 872 2484 
L 575 2484 
L 575 3156 
Q 875 3284 1158 3348 
Q 1441 3413 1709 3413 
Q 2400 3413 2761 3070 
Q 3122 2728 3122 2075 
z
" id="DejaVuSerif-61" transform="scale(0.015625)"/>
       <path d="M 3316 2675 
Q 3481 3041 3739 3227 
Q 3997 3413 4341 3413 
Q 4863 3413 5119 3089 
Q 5375 2766 5375 2113 
L 5375 331 
L 5894 331 
L 5894 0 
L 4300 0 
L 4300 331 
L 4800 331 
L 4800 2047 
Q 4800 2556 4650 2772 
Q 4500 2988 4153 2988 
Q 3769 2988 3567 2697 
Q 3366 2406 3366 1850 
L 3366 331 
L 3866 331 
L 3866 0 
L 2291 0 
L 2291 331 
L 2791 331 
L 2791 2069 
Q 2791 2566 2641 2777 
Q 2491 2988 2144 2988 
Q 1759 2988 1557 2697 
Q 1356 2406 1356 1850 
L 1356 331 
L 1856 331 
L 1856 0 
L 263 0 
L 263 331 
L 781 331 
L 781 2994 
L 231 2994 
L 231 3322 
L 1356 3322 
L 1356 2731 
Q 1516 3063 1762 3238 
Q 2009 3413 2322 3413 
Q 2709 3413 2968 3220 
Q 3228 3028 3316 2675 
z
" id="DejaVuSerif-6d" transform="scale(0.015625)"/>
       <path d="M 1313 331 
L 1856 331 
L 1856 0 
L 184 0 
L 184 331 
L 738 331 
L 738 4531 
L 184 4531 
L 184 4863 
L 1313 4863 
L 1313 331 
z
" id="DejaVuSerif-6c" transform="scale(0.015625)"/>
       <path d="M 622 4353 
Q 622 4497 726 4603 
Q 831 4709 978 4709 
Q 1122 4709 1226 4603 
Q 1331 4497 1331 4353 
Q 1331 4206 1228 4103 
Q 1125 4000 978 4000 
Q 831 4000 726 4103 
Q 622 4206 622 4353 
z
M 1356 331 
L 1900 331 
L 1900 0 
L 231 0 
L 231 331 
L 781 331 
L 781 2988 
L 231 2988 
L 231 3322 
L 1356 3322 
L 1356 331 
z
" id="DejaVuSerif-69" transform="scale(0.015625)"/>
       <path d="M 263 0 
L 263 331 
L 781 331 
L 781 2988 
L 231 2988 
L 231 3322 
L 1356 3322 
L 1356 2731 
Q 1516 3069 1770 3241 
Q 2025 3413 2363 3413 
Q 2913 3413 3172 3097 
Q 3431 2781 3431 2113 
L 3431 331 
L 3944 331 
L 3944 0 
L 2356 0 
L 2356 331 
L 2853 331 
L 2853 1931 
Q 2853 2541 2703 2767 
Q 2553 2994 2175 2994 
Q 1775 2994 1565 2701 
Q 1356 2409 1356 1850 
L 1356 331 
L 1856 331 
L 1856 0 
L 263 0 
z
" id="DejaVuSerif-6e" transform="scale(0.015625)"/>
       <path d="M 3359 2988 
L 3359 72 
Q 3359 -644 2965 -1033 
Q 2572 -1422 1844 -1422 
Q 1516 -1422 1216 -1362 
Q 916 -1303 641 -1184 
L 641 -488 
L 941 -488 
Q 997 -813 1206 -963 
Q 1416 -1113 1806 -1113 
Q 2313 -1113 2548 -827 
Q 2784 -541 2784 72 
L 2784 519 
Q 2616 206 2355 57 
Q 2094 -91 1709 -91 
Q 1097 -91 708 395 
Q 319 881 319 1663 
Q 319 2444 706 2928 
Q 1094 3413 1709 3413 
Q 2094 3413 2355 3264 
Q 2616 3116 2784 2803 
L 2784 3322 
L 3909 3322 
L 3909 2988 
L 3359 2988 
z
M 2784 1825 
Q 2784 2422 2554 2737 
Q 2325 3053 1888 3053 
Q 1444 3053 1217 2703 
Q 991 2353 991 1663 
Q 991 975 1217 622 
Q 1444 269 1888 269 
Q 2325 269 2554 583 
Q 2784 897 2784 1497 
L 2784 1825 
z
" id="DejaVuSerif-67" transform="scale(0.015625)"/>
      </defs>
      <use xlink:href="#DejaVuSerif-41"/>
      <use x="72.216797" xlink:href="#DejaVuSerif-64"/>
      <use x="136.230469" xlink:href="#DejaVuSerif-64"/>
      <use x="200.244141" xlink:href="#DejaVuSerif-20"/>
      <use x="232.03125" xlink:href="#DejaVuSerif-55"/>
      <use x="316.308594" xlink:href="#DejaVuSerif-70"/>
      <use x="380.322266" xlink:href="#DejaVuSerif-73"/>
      <use x="431.640625" xlink:href="#DejaVuSerif-61"/>
      <use x="491.259766" xlink:href="#DejaVuSerif-6d"/>
      <use x="586.083984" xlink:href="#DejaVuSerif-70"/>
      <use x="650.097656" xlink:href="#DejaVuSerif-6c"/>
      <use x="682.080078" xlink:href="#DejaVuSerif-69"/>
      <use x="714.0625" xlink:href="#DejaVuSerif-6e"/>
      <use x="778.466797" xlink:href="#DejaVuSerif-67"/>
     </g>
    </g>
    <g id="line2d_39">
     <path d="M 152.170625 45.261563 
L 176.170625 45.261563 
" style="fill:none;stroke:#ff7f50;stroke-linecap:square;"/>
    </g>
    <g id="line2d_40"/>
    <g id="text_18">
     <!-- Add Conv2DTranspose -->
     <g transform="translate(185.770625 49.461563)scale(0.12 -0.12)">
      <defs>
       <path d="M 4513 1234 
Q 4306 581 3820 245 
Q 3334 -91 2591 -91 
Q 2134 -91 1743 65 
Q 1353 222 1050 525 
Q 700 875 529 1320 
Q 359 1766 359 2328 
Q 359 3416 987 4083 
Q 1616 4750 2644 4750 
Q 3025 4750 3456 4650 
Q 3888 4550 4384 4347 
L 4384 3272 
L 4031 3272 
Q 3916 3859 3567 4137 
Q 3219 4416 2591 4416 
Q 1844 4416 1459 3886 
Q 1075 3356 1075 2328 
Q 1075 1303 1459 773 
Q 1844 244 2591 244 
Q 3113 244 3450 492 
Q 3788 741 3938 1234 
L 4513 1234 
z
" id="DejaVuSerif-43" transform="scale(0.015625)"/>
       <path d="M 1581 0 
L 359 2988 
L -19 2988 
L -19 3322 
L 1509 3322 
L 1509 2988 
L 978 2988 
L 1913 703 
L 2847 2988 
L 2350 2988 
L 2350 3322 
L 3597 3322 
L 3597 2988 
L 3225 2988 
L 2003 0 
L 1581 0 
z
" id="DejaVuSerif-76" transform="scale(0.015625)"/>
       <path d="M 1581 331 
L 2163 331 
Q 3072 331 3558 850 
Q 4044 1369 4044 2338 
Q 4044 3306 3559 3818 
Q 3075 4331 2163 4331 
L 1581 4331 
L 1581 331 
z
M 353 0 
L 353 331 
L 947 331 
L 947 4331 
L 353 4331 
L 353 4666 
L 2209 4666 
Q 3416 4666 4089 4050 
Q 4763 3434 4763 2338 
Q 4763 1238 4088 619 
Q 3413 0 2209 0 
L 353 0 
z
" id="DejaVuSerif-44" transform="scale(0.015625)"/>
       <path d="M 1222 0 
L 1222 331 
L 1819 331 
L 1819 4294 
L 447 4294 
L 447 3566 
L 63 3566 
L 63 4666 
L 4206 4666 
L 4206 3566 
L 3822 3566 
L 3822 4294 
L 2450 4294 
L 2450 331 
L 3047 331 
L 3047 0 
L 1222 0 
z
" id="DejaVuSerif-54" transform="scale(0.015625)"/>
       <path d="M 3059 3328 
L 3059 2497 
L 2728 2497 
Q 2713 2744 2591 2866 
Q 2469 2988 2234 2988 
Q 1809 2988 1582 2694 
Q 1356 2400 1356 1850 
L 1356 331 
L 2022 331 
L 2022 0 
L 263 0 
L 263 331 
L 781 331 
L 781 2994 
L 231 2994 
L 231 3322 
L 1356 3322 
L 1356 2731 
Q 1525 3078 1790 3245 
Q 2056 3413 2438 3413 
Q 2578 3413 2733 3391 
Q 2888 3369 3059 3328 
z
" id="DejaVuSerif-72" transform="scale(0.015625)"/>
       <path d="M 3469 1600 
L 991 1600 
L 991 1575 
Q 991 903 1244 561 
Q 1497 219 1991 219 
Q 2369 219 2611 417 
Q 2853 616 2950 1006 
L 3413 1006 
Q 3275 459 2904 184 
Q 2534 -91 1931 -91 
Q 1203 -91 761 389 
Q 319 869 319 1663 
Q 319 2450 753 2931 
Q 1188 3413 1894 3413 
Q 2647 3413 3050 2948 
Q 3453 2484 3469 1600 
z
M 2791 1931 
Q 2772 2513 2545 2808 
Q 2319 3103 1894 3103 
Q 1497 3103 1269 2806 
Q 1041 2509 991 1931 
L 2791 1931 
z
" id="DejaVuSerif-65" transform="scale(0.015625)"/>
      </defs>
      <use xlink:href="#DejaVuSerif-41"/>
      <use x="72.216797" xlink:href="#DejaVuSerif-64"/>
      <use x="136.230469" xlink:href="#DejaVuSerif-64"/>
      <use x="200.244141" xlink:href="#DejaVuSerif-20"/>
      <use x="232.03125" xlink:href="#DejaVuSerif-43"/>
      <use x="308.544922" xlink:href="#DejaVuSerif-6f"/>
      <use x="368.75" xlink:href="#DejaVuSerif-6e"/>
      <use x="433.154297" xlink:href="#DejaVuSerif-76"/>
      <use x="489.648438" xlink:href="#DejaVuSerif-32"/>
      <use x="553.271484" xlink:href="#DejaVuSerif-44"/>
      <use x="633.447266" xlink:href="#DejaVuSerif-54"/>
      <use x="700.146484" xlink:href="#DejaVuSerif-72"/>
      <use x="747.949219" xlink:href="#DejaVuSerif-61"/>
      <use x="807.568359" xlink:href="#DejaVuSerif-6e"/>
      <use x="871.972656" xlink:href="#DejaVuSerif-73"/>
      <use x="923.291016" xlink:href="#DejaVuSerif-70"/>
      <use x="987.304688" xlink:href="#DejaVuSerif-6f"/>
      <use x="1047.509766" xlink:href="#DejaVuSerif-73"/>
      <use x="1098.828125" xlink:href="#DejaVuSerif-65"/>
     </g>
    </g>
    <g id="line2d_41">
     <path d="M 152.170625 62.875313 
L 176.170625 62.875313 
" style="fill:none;stroke:#2ca02c;stroke-linecap:square;"/>
    </g>
    <g id="line2d_42"/>
    <g id="text_19">
     <!-- Add Dropout -->
     <g transform="translate(185.770625 67.075313)scale(0.12 -0.12)">
      <defs>
       <path d="M 2266 3322 
L 3341 3322 
L 3341 331 
L 3884 331 
L 3884 0 
L 2766 0 
L 2766 588 
Q 2606 256 2353 82 
Q 2100 -91 1766 -91 
Q 1213 -91 952 223 
Q 691 538 691 1209 
L 691 2988 
L 172 2988 
L 172 3322 
L 1269 3322 
L 1269 1388 
Q 1269 781 1417 556 
Q 1566 331 1947 331 
Q 2347 331 2556 625 
Q 2766 919 2766 1478 
L 2766 2988 
L 2266 2988 
L 2266 3322 
z
" id="DejaVuSerif-75" transform="scale(0.015625)"/>
       <path d="M 691 2988 
L 184 2988 
L 184 3322 
L 691 3322 
L 691 4353 
L 1269 4353 
L 1269 3322 
L 2350 3322 
L 2350 2988 
L 1269 2988 
L 1269 878 
Q 1269 456 1350 337 
Q 1431 219 1650 219 
Q 1875 219 1978 351 
Q 2081 484 2088 781 
L 2522 781 
Q 2497 328 2275 118 
Q 2053 -91 1600 -91 
Q 1103 -91 897 129 
Q 691 350 691 878 
L 691 2988 
z
" id="DejaVuSerif-74" transform="scale(0.015625)"/>
      </defs>
      <use xlink:href="#DejaVuSerif-41"/>
      <use x="72.216797" xlink:href="#DejaVuSerif-64"/>
      <use x="136.230469" xlink:href="#DejaVuSerif-64"/>
      <use x="200.244141" xlink:href="#DejaVuSerif-20"/>
      <use x="232.03125" xlink:href="#DejaVuSerif-44"/>
      <use x="312.207031" xlink:href="#DejaVuSerif-72"/>
      <use x="360.009766" xlink:href="#DejaVuSerif-6f"/>
      <use x="420.214844" xlink:href="#DejaVuSerif-70"/>
      <use x="484.228516" xlink:href="#DejaVuSerif-6f"/>
      <use x="544.433594" xlink:href="#DejaVuSerif-75"/>
      <use x="608.837891" xlink:href="#DejaVuSerif-74"/>
     </g>
    </g>
    <g id="line2d_43">
     <path d="M 152.170625 80.489063 
L 176.170625 80.489063 
" style="fill:none;stroke:#d62728;stroke-linecap:square;"/>
    </g>
    <g id="line2d_44"/>
    <g id="text_20">
     <!-- Advanced Decoder -->
     <g transform="translate(185.770625 84.689063)scale(0.12 -0.12)">
      <use xlink:href="#DejaVuSerif-41"/>
      <use x="72.216797" xlink:href="#DejaVuSerif-64"/>
      <use x="136.230469" xlink:href="#DejaVuSerif-76"/>
      <use x="192.724609" xlink:href="#DejaVuSerif-61"/>
      <use x="252.34375" xlink:href="#DejaVuSerif-6e"/>
      <use x="316.748047" xlink:href="#DejaVuSerif-63"/>
      <use x="372.753906" xlink:href="#DejaVuSerif-65"/>
      <use x="431.933594" xlink:href="#DejaVuSerif-64"/>
      <use x="495.947266" xlink:href="#DejaVuSerif-20"/>
      <use x="527.734375" xlink:href="#DejaVuSerif-44"/>
      <use x="607.910156" xlink:href="#DejaVuSerif-65"/>
      <use x="667.089844" xlink:href="#DejaVuSerif-63"/>
      <use x="723.095703" xlink:href="#DejaVuSerif-6f"/>
      <use x="783.300781" xlink:href="#DejaVuSerif-64"/>
      <use x="847.314453" xlink:href="#DejaVuSerif-65"/>
      <use x="906.494141" xlink:href="#DejaVuSerif-72"/>
     </g>
    </g>
   </g>
   <g id="legend_2">
    <g id="patch_8">
     <path d="M 64.9325 172.079063 
L 150.483125 172.079063 
Q 152.883125 172.079063 152.883125 169.679063 
L 152.883125 135.317813 
Q 152.883125 132.917813 150.483125 132.917813 
L 64.9325 132.917813 
Q 62.5325 132.917813 62.5325 135.317813 
L 62.5325 169.679063 
Q 62.5325 172.079063 64.9325 172.079063 
z
" style="fill:#ffffff;opacity:0.8;stroke:#cccccc;stroke-linejoin:miter;"/>
    </g>
    <g id="line2d_45">
     <path d="M 67.3325 142.635938 
L 91.3325 142.635938 
" style="fill:none;stroke:#000000;stroke-linecap:square;"/>
    </g>
    <g id="line2d_46"/>
    <g id="text_21">
     <!-- loss -->
     <g transform="translate(100.9325 146.835938)scale(0.12 -0.12)">
      <use xlink:href="#DejaVuSerif-6c"/>
      <use x="31.982422" xlink:href="#DejaVuSerif-6f"/>
      <use x="92.1875" xlink:href="#DejaVuSerif-73"/>
      <use x="143.505859" xlink:href="#DejaVuSerif-73"/>
     </g>
    </g>
    <g id="line2d_47">
     <path d="M 67.3325 160.249688 
L 91.3325 160.249688 
" style="fill:none;stroke:#000000;stroke-dasharray:1,1.65;stroke-dashoffset:0;"/>
    </g>
    <g id="line2d_48"/>
    <g id="text_22">
     <!-- val_loss -->
     <g transform="translate(100.9325 164.449688)scale(0.12 -0.12)">
      <defs>
       <path d="M 3200 -1259 
L 3200 -1509 
L 0 -1509 
L 0 -1259 
L 3200 -1259 
z
" id="DejaVuSerif-5f" transform="scale(0.015625)"/>
      </defs>
      <use xlink:href="#DejaVuSerif-76"/>
      <use x="56.494141" xlink:href="#DejaVuSerif-61"/>
      <use x="116.113281" xlink:href="#DejaVuSerif-6c"/>
      <use x="148.095703" xlink:href="#DejaVuSerif-5f"/>
      <use x="198.095703" xlink:href="#DejaVuSerif-6c"/>
      <use x="230.078125" xlink:href="#DejaVuSerif-6f"/>
      <use x="290.283203" xlink:href="#DejaVuSerif-73"/>
      <use x="341.601562" xlink:href="#DejaVuSerif-73"/>
     </g>
    </g>
   </g>
   <g id="legend_3">
    <g id="patch_9">
     <path d="M 64.9325 172.079063 
L 150.483125 172.079063 
Q 152.883125 172.079063 152.883125 169.679063 
L 152.883125 135.317813 
Q 152.883125 132.917813 150.483125 132.917813 
L 64.9325 132.917813 
Q 62.5325 132.917813 62.5325 135.317813 
L 62.5325 169.679063 
Q 62.5325 172.079063 64.9325 172.079063 
z
" style="fill:#ffffff;opacity:0.8;stroke:#cccccc;stroke-linejoin:miter;"/>
    </g>
    <g id="line2d_49">
     <path d="M 67.3325 142.635938 
L 91.3325 142.635938 
" style="fill:none;stroke:#000000;stroke-linecap:square;"/>
    </g>
    <g id="line2d_50"/>
    <g id="text_23">
     <!-- loss -->
     <g transform="translate(100.9325 146.835938)scale(0.12 -0.12)">
      <use xlink:href="#DejaVuSerif-6c"/>
      <use x="31.982422" xlink:href="#DejaVuSerif-6f"/>
      <use x="92.1875" xlink:href="#DejaVuSerif-73"/>
      <use x="143.505859" xlink:href="#DejaVuSerif-73"/>
     </g>
    </g>
    <g id="line2d_51">
     <path d="M 67.3325 160.249688 
L 91.3325 160.249688 
" style="fill:none;stroke:#000000;stroke-dasharray:1,1.65;stroke-dashoffset:0;"/>
    </g>
    <g id="line2d_52"/>
    <g id="text_24">
     <!-- val_loss -->
     <g transform="translate(100.9325 164.449688)scale(0.12 -0.12)">
      <use xlink:href="#DejaVuSerif-76"/>
      <use x="56.494141" xlink:href="#DejaVuSerif-61"/>
      <use x="116.113281" xlink:href="#DejaVuSerif-6c"/>
      <use x="148.095703" xlink:href="#DejaVuSerif-5f"/>
      <use x="198.095703" xlink:href="#DejaVuSerif-6c"/>
      <use x="230.078125" xlink:href="#DejaVuSerif-6f"/>
      <use x="290.283203" xlink:href="#DejaVuSerif-73"/>
      <use x="341.601562" xlink:href="#DejaVuSerif-73"/>
     </g>
    </g>
   </g>
  </g>
 </g>
 <defs>
  <clipPath id="pb7ec35d62e">
   <rect height="166.32" width="279" x="56.5325" y="11.759063"/>
  </clipPath>
 </defs>
</svg>
