<?xml version="1.0" encoding="utf-8" standalone="no"?>
<!DOCTYPE svg PUBLIC "-//W3C//DTD SVG 1.1//EN"
  "http://www.w3.org/Graphics/SVG/1.1/DTD/svg11.dtd">
<!-- Created with matplotlib (https://matplotlib.org/) -->
<svg height="219.506563pt" version="1.1" viewBox="0 0 342.861934 219.506563" width="342.861934pt" xmlns="http://www.w3.org/2000/svg" xmlns:xlink="http://www.w3.org/1999/xlink">
 <metadata>
  <rdf:RDF xmlns:cc="http://creativecommons.org/ns#" xmlns:dc="http://purl.org/dc/elements/1.1/" xmlns:rdf="http://www.w3.org/1999/02/22-rdf-syntax-ns#">
   <cc:Work>
    <dc:type rdf:resource="http://purl.org/dc/dcmitype/StillImage"/>
    <dc:date>2021-09-25T02:55:09.248091</dc:date>
    <dc:format>image/svg+xml</dc:format>
    <dc:creator>
     <cc:Agent>
      <dc:title>Matplotlib v3.3.3, https://matplotlib.org/</dc:title>
     </cc:Agent>
    </dc:creator>
   </cc:Work>
  </rdf:RDF>
 </metadata>
 <defs>
  <style type="text/css">*{stroke-linecap:butt;stroke-linejoin:round;}</style>
 </defs>
 <g id="figure_1">
  <g id="patch_1">
   <path d="M 0 219.506563 
L 342.861934 219.506563 
L 342.861934 0 
L 0 0 
z
" style="fill:none;"/>
  </g>
  <g id="axes_1">
   <g id="patch_2">
    <path d="M 56.5325 178.079063 
L 335.5325 178.079063 
L 335.5325 11.759063 
L 56.5325 11.759063 
z
" style="fill:none;"/>
   </g>
   <g id="matplotlib.axis_1">
    <g id="xtick_1">
     <g id="line2d_1">
      <path clip-path="url(#p681813d99d)" d="M 69.214318 178.079063 
L 69.214318 11.759063 
" style="fill:none;stroke:#b0b0b0;stroke-linecap:square;stroke-width:0.8;"/>
     </g>
     <g id="line2d_2">
      <defs>
       <path d="M 0 0 
L 0 3.5 
" id="m8e83e55446" style="stroke:#000000;stroke-width:0.8;"/>
      </defs>
      <g>
       <use style="stroke:#000000;stroke-width:0.8;" x="69.214318" xlink:href="#m8e83e55446" y="178.079063"/>
      </g>
     </g>
     <g id="text_1">
      <!-- 0 -->
      <g transform="translate(65.396818 194.197188)scale(0.12 -0.12)">
       <defs>
        <path d="M 31.78125 3.421875 
Q 39.265625 3.421875 42.96875 11.625 
Q 46.6875 19.828125 46.6875 36.375 
Q 46.6875 52.984375 42.96875 61.1875 
Q 39.265625 69.390625 31.78125 69.390625 
Q 24.3125 69.390625 20.59375 61.1875 
Q 16.890625 52.984375 16.890625 36.375 
Q 16.890625 19.828125 20.59375 11.625 
Q 24.3125 3.421875 31.78125 3.421875 
z
M 31.78125 -1.421875 
Q 19.921875 -1.421875 13.25 8.53125 
Q 6.59375 18.5 6.59375 36.375 
Q 6.59375 54.296875 13.25 64.25 
Q 19.921875 74.21875 31.78125 74.21875 
Q 43.703125 74.21875 50.34375 64.25 
Q 56.984375 54.296875 56.984375 36.375 
Q 56.984375 18.5 50.34375 8.53125 
Q 43.703125 -1.421875 31.78125 -1.421875 
z
" id="DejaVuSerif-48"/>
       </defs>
       <use xlink:href="#DejaVuSerif-48"/>
      </g>
     </g>
    </g>
    <g id="xtick_2">
     <g id="line2d_3">
      <path clip-path="url(#p681813d99d)" d="M 120.976841 178.079063 
L 120.976841 11.759063 
" style="fill:none;stroke:#b0b0b0;stroke-linecap:square;stroke-width:0.8;"/>
     </g>
     <g id="line2d_4">
      <g>
       <use style="stroke:#000000;stroke-width:0.8;" x="120.976841" xlink:href="#m8e83e55446" y="178.079063"/>
      </g>
     </g>
     <g id="text_2">
      <!-- 10 -->
      <g transform="translate(113.341841 194.197188)scale(0.12 -0.12)">
       <defs>
        <path d="M 14.203125 0 
L 14.203125 5.171875 
L 26.90625 5.171875 
L 26.90625 65.828125 
L 12.203125 56.296875 
L 12.203125 62.703125 
L 29.984375 74.21875 
L 36.71875 74.21875 
L 36.71875 5.171875 
L 49.421875 5.171875 
L 49.421875 0 
z
" id="DejaVuSerif-49"/>
       </defs>
       <use xlink:href="#DejaVuSerif-49"/>
       <use x="63.623047" xlink:href="#DejaVuSerif-48"/>
      </g>
     </g>
    </g>
    <g id="xtick_3">
     <g id="line2d_5">
      <path clip-path="url(#p681813d99d)" d="M 172.739365 178.079063 
L 172.739365 11.759063 
" style="fill:none;stroke:#b0b0b0;stroke-linecap:square;stroke-width:0.8;"/>
     </g>
     <g id="line2d_6">
      <g>
       <use style="stroke:#000000;stroke-width:0.8;" x="172.739365" xlink:href="#m8e83e55446" y="178.079063"/>
      </g>
     </g>
     <g id="text_3">
      <!-- 20 -->
      <g transform="translate(165.104365 194.197188)scale(0.12 -0.12)">
       <defs>
        <path d="M 12.796875 55.515625 
L 7.328125 55.515625 
L 7.328125 68.5 
Q 12.546875 71.296875 17.84375 72.75 
Q 23.140625 74.21875 28.21875 74.21875 
Q 39.59375 74.21875 46.1875 68.703125 
Q 52.78125 63.1875 52.78125 53.71875 
Q 52.78125 43.015625 37.84375 28.125 
Q 36.671875 27 36.078125 26.421875 
L 17.671875 8.015625 
L 48.09375 8.015625 
L 48.09375 17 
L 53.8125 17 
L 53.8125 0 
L 6.78125 0 
L 6.78125 5.328125 
L 28.90625 27.390625 
Q 36.234375 34.71875 39.359375 40.84375 
Q 42.484375 46.96875 42.484375 53.71875 
Q 42.484375 61.078125 38.640625 65.234375 
Q 34.8125 69.390625 28.078125 69.390625 
Q 21.09375 69.390625 17.28125 65.921875 
Q 13.484375 62.453125 12.796875 55.515625 
z
" id="DejaVuSerif-50"/>
       </defs>
       <use xlink:href="#DejaVuSerif-50"/>
       <use x="63.623047" xlink:href="#DejaVuSerif-48"/>
      </g>
     </g>
    </g>
    <g id="xtick_4">
     <g id="line2d_7">
      <path clip-path="url(#p681813d99d)" d="M 224.501888 178.079063 
L 224.501888 11.759063 
" style="fill:none;stroke:#b0b0b0;stroke-linecap:square;stroke-width:0.8;"/>
     </g>
     <g id="line2d_8">
      <g>
       <use style="stroke:#000000;stroke-width:0.8;" x="224.501888" xlink:href="#m8e83e55446" y="178.079063"/>
      </g>
     </g>
     <g id="text_4">
      <!-- 30 -->
      <g transform="translate(216.866888 194.197188)scale(0.12 -0.12)">
       <defs>
        <path d="M 9.71875 69.828125 
Q 15.4375 71.96875 20.671875 73.09375 
Q 25.921875 74.21875 30.515625 74.21875 
Q 41.21875 74.21875 47.21875 69.59375 
Q 53.21875 64.984375 53.21875 56.78125 
Q 53.21875 50.203125 49.0625 45.78125 
Q 44.921875 41.359375 37.3125 39.796875 
Q 46.296875 38.53125 51.25 33.28125 
Q 56.203125 28.03125 56.203125 19.671875 
Q 56.203125 9.46875 49.34375 4.015625 
Q 42.484375 -1.421875 29.59375 -1.421875 
Q 23.875 -1.421875 18.421875 -0.1875 
Q 12.984375 1.03125 7.625 3.515625 
L 7.625 17.671875 
L 13.09375 17.671875 
Q 13.578125 10.640625 17.828125 7.03125 
Q 22.078125 3.421875 29.78125 3.421875 
Q 37.25 3.421875 41.578125 7.734375 
Q 45.90625 12.0625 45.90625 19.578125 
Q 45.90625 28.171875 41.453125 32.59375 
Q 37.015625 37.015625 28.421875 37.015625 
L 23.78125 37.015625 
L 23.78125 42 
L 26.21875 42 
Q 34.765625 42 39.03125 45.53125 
Q 43.3125 49.078125 43.3125 56.203125 
Q 43.3125 62.59375 39.796875 65.984375 
Q 36.28125 69.390625 29.6875 69.390625 
Q 23.09375 69.390625 19.453125 66.265625 
Q 15.828125 63.140625 15.1875 56.984375 
L 9.71875 56.984375 
z
" id="DejaVuSerif-51"/>
       </defs>
       <use xlink:href="#DejaVuSerif-51"/>
       <use x="63.623047" xlink:href="#DejaVuSerif-48"/>
      </g>
     </g>
    </g>
    <g id="xtick_5">
     <g id="line2d_9">
      <path clip-path="url(#p681813d99d)" d="M 276.264411 178.079063 
L 276.264411 11.759063 
" style="fill:none;stroke:#b0b0b0;stroke-linecap:square;stroke-width:0.8;"/>
     </g>
     <g id="line2d_10">
      <g>
       <use style="stroke:#000000;stroke-width:0.8;" x="276.264411" xlink:href="#m8e83e55446" y="178.079063"/>
      </g>
     </g>
     <g id="text_5">
      <!-- 40 -->
      <g transform="translate(268.629411 194.197188)scale(0.12 -0.12)">
       <defs>
        <path d="M 34.90625 24.703125 
L 34.90625 63.484375 
L 10.015625 24.703125 
z
M 56.390625 0 
L 23.1875 0 
L 23.1875 5.171875 
L 34.90625 5.171875 
L 34.90625 19.484375 
L 3.078125 19.484375 
L 3.078125 24.8125 
L 35.015625 74.21875 
L 44.671875 74.21875 
L 44.671875 24.703125 
L 58.59375 24.703125 
L 58.59375 19.484375 
L 44.671875 19.484375 
L 44.671875 5.171875 
L 56.390625 5.171875 
z
" id="DejaVuSerif-52"/>
       </defs>
       <use xlink:href="#DejaVuSerif-52"/>
       <use x="63.623047" xlink:href="#DejaVuSerif-48"/>
      </g>
     </g>
    </g>
    <g id="xtick_6">
     <g id="line2d_11">
      <path clip-path="url(#p681813d99d)" d="M 328.026934 178.079063 
L 328.026934 11.759063 
" style="fill:none;stroke:#b0b0b0;stroke-linecap:square;stroke-width:0.8;"/>
     </g>
     <g id="line2d_12">
      <g>
       <use style="stroke:#000000;stroke-width:0.8;" x="328.026934" xlink:href="#m8e83e55446" y="178.079063"/>
      </g>
     </g>
     <g id="text_6">
      <!-- 50 -->
      <g transform="translate(320.391934 194.197188)scale(0.12 -0.12)">
       <defs>
        <path d="M 50.296875 72.90625 
L 50.296875 64.890625 
L 16.890625 64.890625 
L 16.890625 44 
Q 19.4375 45.75 22.828125 46.625 
Q 26.21875 47.515625 30.421875 47.515625 
Q 42.234375 47.515625 49.0625 40.96875 
Q 55.90625 34.421875 55.90625 23.09375 
Q 55.90625 11.53125 49 5.046875 
Q 42.09375 -1.421875 29.59375 -1.421875 
Q 24.5625 -1.421875 19.28125 -0.1875 
Q 14.015625 1.03125 8.5 3.515625 
L 8.5 17.671875 
L 14.015625 17.671875 
Q 14.453125 10.75 18.421875 7.078125 
Q 22.40625 3.421875 29.59375 3.421875 
Q 37.3125 3.421875 41.453125 8.5 
Q 45.609375 13.578125 45.609375 23.09375 
Q 45.609375 32.5625 41.484375 37.609375 
Q 37.359375 42.671875 29.59375 42.671875 
Q 25.203125 42.671875 21.84375 41.109375 
Q 18.5 39.546875 15.921875 36.28125 
L 11.71875 36.28125 
L 11.71875 72.90625 
z
" id="DejaVuSerif-53"/>
       </defs>
       <use xlink:href="#DejaVuSerif-53"/>
       <use x="63.623047" xlink:href="#DejaVuSerif-48"/>
      </g>
     </g>
    </g>
    <g id="text_7">
     <!-- Epochs -->
     <g transform="translate(173.89625 209.810938)scale(0.12 -0.12)">
      <defs>
       <path d="M 5.515625 0 
L 5.515625 5.171875 
L 14.796875 5.171875 
L 14.796875 67.671875 
L 5.515625 67.671875 
L 5.515625 72.90625 
L 64.203125 72.90625 
L 64.203125 56.6875 
L 58.203125 56.6875 
L 58.203125 66.890625 
L 24.703125 66.890625 
L 24.703125 42.484375 
L 48.578125 42.484375 
L 48.578125 51.609375 
L 54.59375 51.609375 
L 54.59375 27.390625 
L 48.578125 27.390625 
L 48.578125 36.53125 
L 24.703125 36.53125 
L 24.703125 6 
L 58.984375 6 
L 58.984375 16.21875 
L 64.984375 16.21875 
L 64.984375 0 
z
" id="DejaVuSerif-69"/>
       <path d="M 20.515625 28.515625 
L 20.515625 23.390625 
Q 20.515625 14.015625 24.09375 9.109375 
Q 27.6875 4.203125 34.515625 4.203125 
Q 41.40625 4.203125 44.9375 9.71875 
Q 48.484375 15.234375 48.484375 25.984375 
Q 48.484375 36.765625 44.9375 42.234375 
Q 41.40625 47.703125 34.515625 47.703125 
Q 27.6875 47.703125 24.09375 42.765625 
Q 20.515625 37.84375 20.515625 28.515625 
z
M 11.53125 46.6875 
L 2.875 46.6875 
L 2.875 51.90625 
L 20.515625 51.90625 
L 20.515625 43.796875 
Q 23.140625 48.6875 27.21875 51 
Q 31.296875 53.328125 37.3125 53.328125 
Q 46.875 53.328125 52.921875 45.75 
Q 58.984375 38.1875 58.984375 25.984375 
Q 58.984375 13.765625 52.921875 6.171875 
Q 46.875 -1.421875 37.3125 -1.421875 
Q 31.296875 -1.421875 27.21875 0.890625 
Q 23.140625 3.21875 20.515625 8.109375 
L 20.515625 -15.578125 
L 29 -15.578125 
L 29 -20.796875 
L 2.875 -20.796875 
L 2.875 -15.578125 
L 11.53125 -15.578125 
z
" id="DejaVuSerif-112"/>
       <path d="M 30.078125 3.421875 
Q 37.3125 3.421875 40.984375 9.125 
Q 44.671875 14.84375 44.671875 25.984375 
Q 44.671875 37.109375 40.984375 42.796875 
Q 37.3125 48.484375 30.078125 48.484375 
Q 22.859375 48.484375 19.171875 42.796875 
Q 15.484375 37.109375 15.484375 25.984375 
Q 15.484375 14.84375 19.1875 9.125 
Q 22.90625 3.421875 30.078125 3.421875 
z
M 30.078125 -1.421875 
Q 18.75 -1.421875 11.859375 6.078125 
Q 4.984375 13.578125 4.984375 25.984375 
Q 4.984375 38.375 11.84375 45.84375 
Q 18.703125 53.328125 30.078125 53.328125 
Q 41.453125 53.328125 48.3125 45.84375 
Q 55.171875 38.375 55.171875 25.984375 
Q 55.171875 13.578125 48.3125 6.078125 
Q 41.453125 -1.421875 30.078125 -1.421875 
z
" id="DejaVuSerif-111"/>
       <path d="M 51.421875 15.578125 
Q 49.515625 7.28125 44.09375 2.921875 
Q 38.671875 -1.421875 30.078125 -1.421875 
Q 18.75 -1.421875 11.859375 6.078125 
Q 4.984375 13.578125 4.984375 25.984375 
Q 4.984375 38.421875 11.859375 45.875 
Q 18.75 53.328125 30.078125 53.328125 
Q 35.015625 53.328125 39.890625 52.171875 
Q 44.78125 51.03125 49.703125 48.6875 
L 49.703125 35.40625 
L 44.484375 35.40625 
Q 43.453125 42.234375 40.015625 45.359375 
Q 36.578125 48.484375 30.171875 48.484375 
Q 22.90625 48.484375 19.1875 42.84375 
Q 15.484375 37.203125 15.484375 25.984375 
Q 15.484375 14.75 19.171875 9.078125 
Q 22.859375 3.421875 30.171875 3.421875 
Q 35.984375 3.421875 39.453125 6.4375 
Q 42.921875 9.46875 44.1875 15.578125 
z
" id="DejaVuSerif-99"/>
       <path d="M 4.109375 0 
L 4.109375 5.171875 
L 12.203125 5.171875 
L 12.203125 70.796875 
L 3.609375 70.796875 
L 3.609375 75.984375 
L 21.1875 75.984375 
L 21.1875 42.671875 
Q 23.6875 47.953125 27.65625 50.640625 
Q 31.640625 53.328125 36.921875 53.328125 
Q 45.515625 53.328125 49.5625 48.390625 
Q 53.609375 43.453125 53.609375 33.015625 
L 53.609375 5.171875 
L 61.625 5.171875 
L 61.625 0 
L 36.8125 0 
L 36.8125 5.171875 
L 44.578125 5.171875 
L 44.578125 30.171875 
Q 44.578125 39.703125 42.25 43.1875 
Q 39.9375 46.6875 33.984375 46.6875 
Q 27.734375 46.6875 24.453125 42.140625 
Q 21.1875 37.59375 21.1875 28.90625 
L 21.1875 5.171875 
L 29 5.171875 
L 29 0 
z
" id="DejaVuSerif-104"/>
       <path d="M 5.609375 2.875 
L 5.609375 14.984375 
L 10.796875 14.984375 
Q 10.984375 9.1875 14.421875 6.296875 
Q 17.875 3.421875 24.609375 3.421875 
Q 30.671875 3.421875 33.84375 5.6875 
Q 37.015625 7.953125 37.015625 12.3125 
Q 37.015625 15.71875 34.6875 17.8125 
Q 32.375 19.921875 24.90625 22.3125 
L 18.40625 24.515625 
Q 11.71875 26.65625 8.71875 29.875 
Q 5.71875 33.109375 5.71875 38.09375 
Q 5.71875 45.21875 10.9375 49.265625 
Q 16.15625 53.328125 25.390625 53.328125 
Q 29.5 53.328125 34.03125 52.25 
Q 38.578125 51.171875 43.40625 49.125 
L 43.40625 37.796875 
L 38.234375 37.796875 
Q 38.03125 42.828125 34.703125 45.65625 
Q 31.390625 48.484375 25.6875 48.484375 
Q 20.015625 48.484375 17.109375 46.484375 
Q 14.203125 44.484375 14.203125 40.484375 
Q 14.203125 37.203125 16.40625 35.21875 
Q 18.609375 33.25 25.203125 31.203125 
L 32.328125 29 
Q 39.703125 26.703125 42.9375 23.265625 
Q 46.1875 19.828125 46.1875 14.40625 
Q 46.1875 7.03125 40.546875 2.796875 
Q 34.90625 -1.421875 25 -1.421875 
Q 19.96875 -1.421875 15.1875 -0.34375 
Q 10.40625 0.734375 5.609375 2.875 
z
" id="DejaVuSerif-115"/>
      </defs>
      <use xlink:href="#DejaVuSerif-69"/>
      <use x="72.998047" xlink:href="#DejaVuSerif-112"/>
      <use x="137.011719" xlink:href="#DejaVuSerif-111"/>
      <use x="197.216797" xlink:href="#DejaVuSerif-99"/>
      <use x="253.222656" xlink:href="#DejaVuSerif-104"/>
      <use x="317.626953" xlink:href="#DejaVuSerif-115"/>
     </g>
    </g>
   </g>
   <g id="matplotlib.axis_2">
    <g id="ytick_1">
     <g id="line2d_13">
      <path clip-path="url(#p681813d99d)" d="M 56.5325 178.079063 
L 335.5325 178.079063 
" style="fill:none;stroke:#b0b0b0;stroke-linecap:square;stroke-width:0.8;"/>
     </g>
     <g id="line2d_14">
      <defs>
       <path d="M 0 0 
L -3.5 0 
" id="m26d13329c0" style="stroke:#000000;stroke-width:0.8;"/>
      </defs>
      <g>
       <use style="stroke:#000000;stroke-width:0.8;" x="56.5325" xlink:href="#m26d13329c0" y="178.079063"/>
      </g>
     </g>
     <g id="text_8">
      <!-- 0.00 -->
      <g transform="translate(22.81375 182.638125)scale(0.12 -0.12)">
       <defs>
        <path d="M 9.421875 5.078125 
Q 9.421875 7.8125 11.28125 9.71875 
Q 13.140625 11.625 15.921875 11.625 
Q 18.609375 11.625 20.5 9.71875 
Q 22.40625 7.8125 22.40625 5.078125 
Q 22.40625 2.390625 20.5 0.484375 
Q 18.609375 -1.421875 15.921875 -1.421875 
Q 13.140625 -1.421875 11.28125 0.453125 
Q 9.421875 2.34375 9.421875 5.078125 
z
" id="DejaVuSerif-46"/>
       </defs>
       <use xlink:href="#DejaVuSerif-48"/>
       <use x="63.623047" xlink:href="#DejaVuSerif-46"/>
       <use x="95.410156" xlink:href="#DejaVuSerif-48"/>
       <use x="159.033203" xlink:href="#DejaVuSerif-48"/>
      </g>
     </g>
    </g>
    <g id="ytick_2">
     <g id="line2d_15">
      <path clip-path="url(#p681813d99d)" d="M 56.5325 150.359063 
L 335.5325 150.359063 
" style="fill:none;stroke:#b0b0b0;stroke-linecap:square;stroke-width:0.8;"/>
     </g>
     <g id="line2d_16">
      <g>
       <use style="stroke:#000000;stroke-width:0.8;" x="56.5325" xlink:href="#m26d13329c0" y="150.359063"/>
      </g>
     </g>
     <g id="text_9">
      <!-- 0.05 -->
      <g transform="translate(22.81375 154.918125)scale(0.12 -0.12)">
       <use xlink:href="#DejaVuSerif-48"/>
       <use x="63.623047" xlink:href="#DejaVuSerif-46"/>
       <use x="95.410156" xlink:href="#DejaVuSerif-48"/>
       <use x="159.033203" xlink:href="#DejaVuSerif-53"/>
      </g>
     </g>
    </g>
    <g id="ytick_3">
     <g id="line2d_17">
      <path clip-path="url(#p681813d99d)" d="M 56.5325 122.639063 
L 335.5325 122.639063 
" style="fill:none;stroke:#b0b0b0;stroke-linecap:square;stroke-width:0.8;"/>
     </g>
     <g id="line2d_18">
      <g>
       <use style="stroke:#000000;stroke-width:0.8;" x="56.5325" xlink:href="#m26d13329c0" y="122.639063"/>
      </g>
     </g>
     <g id="text_10">
      <!-- 0.10 -->
      <g transform="translate(22.81375 127.198125)scale(0.12 -0.12)">
       <use xlink:href="#DejaVuSerif-48"/>
       <use x="63.623047" xlink:href="#DejaVuSerif-46"/>
       <use x="95.410156" xlink:href="#DejaVuSerif-49"/>
       <use x="159.033203" xlink:href="#DejaVuSerif-48"/>
      </g>
     </g>
    </g>
    <g id="ytick_4">
     <g id="line2d_19">
      <path clip-path="url(#p681813d99d)" d="M 56.5325 94.919063 
L 335.5325 94.919063 
" style="fill:none;stroke:#b0b0b0;stroke-linecap:square;stroke-width:0.8;"/>
     </g>
     <g id="line2d_20">
      <g>
       <use style="stroke:#000000;stroke-width:0.8;" x="56.5325" xlink:href="#m26d13329c0" y="94.919063"/>
      </g>
     </g>
     <g id="text_11">
      <!-- 0.15 -->
      <g transform="translate(22.81375 99.478125)scale(0.12 -0.12)">
       <use xlink:href="#DejaVuSerif-48"/>
       <use x="63.623047" xlink:href="#DejaVuSerif-46"/>
       <use x="95.410156" xlink:href="#DejaVuSerif-49"/>
       <use x="159.033203" xlink:href="#DejaVuSerif-53"/>
      </g>
     </g>
    </g>
    <g id="ytick_5">
     <g id="line2d_21">
      <path clip-path="url(#p681813d99d)" d="M 56.5325 67.199063 
L 335.5325 67.199063 
" style="fill:none;stroke:#b0b0b0;stroke-linecap:square;stroke-width:0.8;"/>
     </g>
     <g id="line2d_22">
      <g>
       <use style="stroke:#000000;stroke-width:0.8;" x="56.5325" xlink:href="#m26d13329c0" y="67.199063"/>
      </g>
     </g>
     <g id="text_12">
      <!-- 0.20 -->
      <g transform="translate(22.81375 71.758125)scale(0.12 -0.12)">
       <use xlink:href="#DejaVuSerif-48"/>
       <use x="63.623047" xlink:href="#DejaVuSerif-46"/>
       <use x="95.410156" xlink:href="#DejaVuSerif-50"/>
       <use x="159.033203" xlink:href="#DejaVuSerif-48"/>
      </g>
     </g>
    </g>
    <g id="ytick_6">
     <g id="line2d_23">
      <path clip-path="url(#p681813d99d)" d="M 56.5325 39.479063 
L 335.5325 39.479063 
" style="fill:none;stroke:#b0b0b0;stroke-linecap:square;stroke-width:0.8;"/>
     </g>
     <g id="line2d_24">
      <g>
       <use style="stroke:#000000;stroke-width:0.8;" x="56.5325" xlink:href="#m26d13329c0" y="39.479063"/>
      </g>
     </g>
     <g id="text_13">
      <!-- 0.25 -->
      <g transform="translate(22.81375 44.038125)scale(0.12 -0.12)">
       <use xlink:href="#DejaVuSerif-48"/>
       <use x="63.623047" xlink:href="#DejaVuSerif-46"/>
       <use x="95.410156" xlink:href="#DejaVuSerif-50"/>
       <use x="159.033203" xlink:href="#DejaVuSerif-53"/>
      </g>
     </g>
    </g>
    <g id="ytick_7">
     <g id="line2d_25">
      <path clip-path="url(#p681813d99d)" d="M 56.5325 11.759063 
L 335.5325 11.759063 
" style="fill:none;stroke:#b0b0b0;stroke-linecap:square;stroke-width:0.8;"/>
     </g>
     <g id="line2d_26">
      <g>
       <use style="stroke:#000000;stroke-width:0.8;" x="56.5325" xlink:href="#m26d13329c0" y="11.759063"/>
      </g>
     </g>
     <g id="text_14">
      <!-- 0.30 -->
      <g transform="translate(22.81375 16.318125)scale(0.12 -0.12)">
       <use xlink:href="#DejaVuSerif-48"/>
       <use x="63.623047" xlink:href="#DejaVuSerif-46"/>
       <use x="95.410156" xlink:href="#DejaVuSerif-51"/>
       <use x="159.033203" xlink:href="#DejaVuSerif-48"/>
      </g>
     </g>
    </g>
    <g id="text_15">
     <!-- Loss -->
     <g transform="translate(16.318125 108.673125)rotate(-90)scale(0.12 -0.12)">
      <defs>
       <path d="M 5.515625 0 
L 5.515625 5.171875 
L 14.796875 5.171875 
L 14.796875 67.671875 
L 5.515625 67.671875 
L 5.515625 72.90625 
L 33.984375 72.90625 
L 33.984375 67.671875 
L 24.703125 67.671875 
L 24.703125 6 
L 58.015625 6 
L 58.015625 18.21875 
L 64.015625 18.21875 
L 64.015625 0 
z
" id="DejaVuSerif-76"/>
      </defs>
      <use xlink:href="#DejaVuSerif-76"/>
      <use x="66.40625" xlink:href="#DejaVuSerif-111"/>
      <use x="126.611328" xlink:href="#DejaVuSerif-115"/>
      <use x="177.929688" xlink:href="#DejaVuSerif-115"/>
     </g>
    </g>
   </g>
   <g id="line2d_27">
    <path clip-path="url(#p681813d99d)" d="M 74.567041 -1 
L 79.566823 32.447555 
L 84.743075 41.969609 
L 89.919327 47.214738 
L 95.09558 84.592331 
L 100.271832 82.277104 
L 105.448084 83.169769 
L 110.624337 79.151098 
L 115.800589 118.444287 
L 120.976841 102.828683 
L 126.153094 101.164455 
L 131.329346 96.284578 
L 136.505598 88.514569 
L 141.681851 97.774363 
L 146.858103 98.122415 
L 152.034355 124.404733 
L 157.210608 110.547555 
L 162.38686 125.129786 
L 167.563112 130.364266 
L 172.739365 111.604262 
L 177.915617 115.666077 
L 183.091869 129.26522 
L 188.268122 119.330623 
L 193.444374 98.063273 
L 198.620626 130.022075 
L 203.796878 143.470722 
L 208.973131 143.700439 
L 214.149383 132.378476 
L 219.325635 146.991135 
L 224.501888 148.681493 
L 229.67814 119.204524 
L 234.854392 128.082282 
L 240.030645 121.296207 
L 245.206897 132.069548 
L 250.383149 128.976491 
L 255.559402 127.213166 
L 260.735654 130.995344 
L 265.911906 136.082543 
L 271.088159 130.211277 
L 276.264411 130.379921 
L 281.440663 135.170234 
L 286.616916 120.720149 
L 291.793168 142.670143 
L 296.96942 137.855646 
L 302.145673 144.857156 
L 307.321925 142.471886 
L 312.498177 118.547783 
L 317.674429 135.358523 
L 322.850682 143.291348 
" style="fill:none;stroke:#4682b4;stroke-linecap:square;"/>
   </g>
   <g id="line2d_28">
    <path clip-path="url(#p681813d99d)" d="M 74.211211 -1 
L 74.390571 9.249286 
L 79.566823 46.385123 
L 84.743075 78.048409 
L 89.919327 87.703063 
L 95.09558 94.821222 
L 100.271832 117.473736 
L 105.448084 120.872003 
L 110.624337 126.594117 
L 115.800589 133.880111 
L 120.976841 134.945983 
L 126.153094 129.974267 
L 131.329346 132.462831 
L 136.505598 131.372604 
L 141.681851 139.593154 
L 146.858103 135.274837 
L 152.034355 137.031107 
L 157.210608 145.033229 
L 162.38686 145.60743 
L 167.563112 143.856652 
L 172.739365 145.002035 
L 177.915617 147.803089 
L 183.091869 142.545663 
L 188.268122 146.478477 
L 193.444374 130.498759 
L 198.620626 144.662716 
L 203.796878 148.098202 
L 208.973131 147.708705 
L 214.149383 150.991183 
L 219.325635 148.577434 
L 224.501888 150.671672 
L 229.67814 151.513737 
L 234.854392 147.701164 
L 240.030645 149.399482 
L 245.206897 149.746258 
L 250.383149 149.372681 
L 255.559402 149.063073 
L 260.735654 151.738702 
L 265.911906 151.99805 
L 271.088159 150.392353 
L 276.264411 150.803719 
L 281.440663 151.520432 
L 286.616916 152.50832 
L 291.793168 154.673534 
L 296.96942 151.20774 
L 302.145673 153.784072 
L 307.321925 155.058739 
L 312.498177 152.835666 
L 317.674429 148.818932 
L 322.850682 154.311139 
" style="fill:none;stroke:#4682b4;stroke-dasharray:1,1.65;stroke-dashoffset:0;"/>
   </g>
   <g id="line2d_29">
    <path clip-path="url(#p681813d99d)" d="M 73.181216 -1 
L 74.390571 40.130062 
L 79.566823 83.932327 
L 84.743075 69.721429 
L 89.919327 90.823055 
L 95.09558 115.209241 
L 100.271832 118.252594 
L 105.448084 111.785447 
L 110.624337 114.046208 
L 115.800589 141.150813 
L 120.976841 125.662567 
L 126.153094 126.740766 
L 131.329346 116.791517 
L 136.505598 101.5477 
L 141.681851 113.501786 
L 146.858103 118.741029 
L 152.034355 129.268988 
L 157.210608 125.742242 
L 162.38686 138.720205 
L 167.563112 144.020924 
L 172.739365 126.414605 
L 177.915617 127.765746 
L 183.091869 146.163168 
L 188.268122 137.679174 
L 193.444374 119.32615 
L 198.620626 144.999478 
L 203.796878 156.906642 
L 208.973131 154.890496 
L 214.149383 141.732913 
L 219.325635 157.718925 
L 224.501888 154.521484 
L 229.67814 120.257125 
L 234.854392 137.867211 
L 240.030645 132.679369 
L 245.206897 139.260975 
L 250.383149 134.921159 
L 255.559402 136.541606 
L 260.735654 140.11266 
L 265.911906 144.806767 
L 271.088159 142.158572 
L 276.264411 147.189996 
L 281.440663 143.145654 
L 286.616916 132.453648 
L 291.793168 151.148166 
L 296.96942 149.405277 
L 302.145673 153.904911 
L 307.321925 153.267175 
L 312.498177 136.186201 
L 317.674429 148.144925 
L 322.850682 153.416377 
" style="fill:none;stroke:#ff7f50;stroke-linecap:square;"/>
   </g>
   <g id="line2d_30">
    <path clip-path="url(#p681813d99d)" d="M 69.214318 30.289812 
L 74.390571 91.967025 
L 79.566823 105.756272 
L 84.743075 125.246971 
L 89.919327 127.61602 
L 95.09558 136.492547 
L 100.271832 141.443945 
L 105.448084 141.691607 
L 110.624337 132.236404 
L 115.800589 140.598113 
L 120.976841 147.055636 
L 126.153094 145.702513 
L 131.329346 140.168444 
L 136.505598 137.017674 
L 141.681851 136.958107 
L 146.858103 123.357423 
L 152.034355 141.234569 
L 157.210608 151.361609 
L 162.38686 149.128645 
L 167.563112 149.910731 
L 172.739365 147.180128 
L 177.915617 152.637897 
L 183.091869 149.166258 
L 188.268122 147.634127 
L 193.444374 145.752317 
L 198.620626 149.461156 
L 203.796878 153.595826 
L 208.973131 150.570978 
L 214.149383 152.177345 
L 219.325635 150.456627 
L 224.501888 155.978948 
L 229.67814 146.696569 
L 234.854392 152.54583 
L 240.030645 152.037216 
L 245.206897 153.609325 
L 250.383149 149.005288 
L 255.559402 152.783484 
L 260.735654 150.359436 
L 265.911906 156.60623 
L 271.088159 156.6471 
L 276.264411 156.540559 
L 281.440663 150.636975 
L 286.616916 151.645811 
L 291.793168 154.746823 
L 296.96942 153.195016 
L 302.145673 153.443959 
L 307.321925 158.35136 
L 312.498177 151.578961 
L 317.674429 158.483877 
L 322.850682 159.740027 
" style="fill:none;stroke:#ff7f50;stroke-dasharray:1,1.65;stroke-dashoffset:0;"/>
   </g>
   <g id="line2d_31">
    <path clip-path="url(#p681813d99d)" d="M 74.108394 -1 
L 74.390571 7.780989 
L 79.566823 46.364792 
L 84.743075 39.391262 
L 89.919327 66.657944 
L 95.09558 93.472316 
L 100.271832 97.581744 
L 105.448084 88.800134 
L 110.624337 87.034368 
L 115.800589 126.811593 
L 120.976841 107.662809 
L 126.153094 112.427751 
L 131.329346 101.90033 
L 136.505598 82.80003 
L 141.681851 98.35596 
L 146.858103 104.024294 
L 152.034355 123.540342 
L 157.210608 110.861691 
L 162.38686 119.386502 
L 167.563112 129.11834 
L 172.739365 105.19275 
L 177.915617 114.619502 
L 183.091869 124.294574 
L 188.268122 121.435041 
L 193.444374 99.160857 
L 198.620626 121.625379 
L 203.796878 134.381979 
L 208.973131 133.565722 
L 214.149383 123.619398 
L 219.325635 139.358573 
L 224.501888 143.525355 
L 229.67814 109.409483 
L 234.854392 117.636816 
L 240.030645 111.78681 
L 245.206897 126.813646 
L 250.383149 121.876296 
L 255.559402 121.141334 
L 260.735654 130.026342 
L 265.911906 129.731962 
L 271.088159 128.184143 
L 276.264411 129.060309 
L 281.440663 124.814299 
L 286.616916 112.310892 
L 291.793168 138.039329 
L 296.96942 125.210688 
L 302.145673 138.458214 
L 307.321925 127.692543 
L 312.498177 111.074545 
L 317.674429 130.364985 
L 322.850682 141.470302 
" style="fill:none;stroke:#2ca02c;stroke-linecap:square;"/>
   </g>
   <g id="line2d_32">
    <path clip-path="url(#p681813d99d)" d="M 72.713785 -1 
L 74.390571 34.791259 
L 79.566823 34.799718 
L 84.743075 91.15143 
L 89.919327 107.883565 
L 95.09558 116.179536 
L 100.271832 120.687959 
L 105.448084 128.576067 
L 110.624337 124.083434 
L 115.800589 140.61224 
L 120.976841 144.104474 
L 126.153094 144.407718 
L 131.329346 136.716644 
L 136.505598 127.642253 
L 141.681851 146.682738 
L 146.858103 137.970765 
L 152.034355 146.968334 
L 157.210608 144.686087 
L 162.38686 139.421243 
L 167.563112 140.057707 
L 172.739365 147.205841 
L 177.915617 144.492176 
L 183.091869 142.080442 
L 188.268122 127.074647 
L 193.444374 138.922233 
L 198.620626 146.327246 
L 203.796878 144.28627 
L 208.973131 145.285144 
L 214.149383 142.822356 
L 219.325635 138.69688 
L 224.501888 151.070882 
L 229.67814 148.494486 
L 234.854392 144.86539 
L 240.030645 148.975641 
L 245.206897 146.281623 
L 250.383149 148.688236 
L 255.559402 151.511548 
L 260.735654 148.378174 
L 265.911906 152.770819 
L 271.088159 154.839724 
L 276.264411 148.017924 
L 281.440663 151.888471 
L 286.616916 143.975566 
L 291.793168 153.487359 
L 296.96942 146.980341 
L 302.145673 144.952051 
L 307.321925 152.945195 
L 312.498177 147.603909 
L 317.674429 147.975098 
L 322.850682 153.132524 
" style="fill:none;stroke:#2ca02c;stroke-dasharray:1,1.65;stroke-dashoffset:0;"/>
   </g>
   <g id="line2d_33">
    <path clip-path="url(#p681813d99d)" d="M 74.667179 -1 
L 79.566823 30.080473 
L 84.743075 34.573328 
L 89.919327 39.351807 
L 95.09558 85.582668 
L 100.271832 81.702463 
L 105.448084 79.745004 
L 110.624337 80.237611 
L 115.800589 45.520927 
L 120.976841 92.716977 
L 126.153094 106.721808 
L 131.329346 71.088469 
L 136.505598 84.280719 
L 141.681851 116.805442 
L 146.858103 102.669886 
L 152.034355 90.659541 
L 157.210608 98.154436 
L 162.38686 118.823521 
L 167.563112 102.350095 
L 172.739365 135.052289 
L 177.915617 120.059968 
L 183.091869 108.029127 
L 188.268122 107.420351 
L 193.444374 137.528237 
L 198.620626 117.870827 
L 203.796878 124.075582 
L 208.973131 142.463898 
L 214.149383 140.57884 
L 219.325635 138.477685 
L 224.501888 126.492066 
L 229.67814 141.333187 
L 234.854392 146.14761 
L 240.030645 121.306373 
L 245.206897 142.355089 
L 250.383149 151.269277 
L 255.559402 136.268677 
L 260.735654 140.614557 
L 265.911906 128.075297 
L 271.088159 144.254869 
L 276.264411 136.70638 
L 281.440663 151.588501 
L 286.616916 133.338411 
L 291.793168 130.389967 
L 296.96942 129.712399 
L 302.145673 125.172661 
L 307.321925 142.155375 
L 312.498177 132.251976 
L 317.674429 120.506448 
L 322.850682 138.479899 
" style="fill:none;stroke:#d62728;stroke-linecap:square;"/>
   </g>
   <g id="line2d_34">
    <path clip-path="url(#p681813d99d)" d="M 84.937056 -1 
L 89.919327 84.256051 
L 95.09558 92.786 
L 100.271832 114.371203 
L 105.448084 94.597789 
L 110.624337 129.44655 
L 115.800589 124.693284 
L 120.976841 124.234808 
L 126.153094 124.493153 
L 131.329346 128.124588 
L 136.505598 138.751569 
L 141.681851 136.317818 
L 146.858103 138.050044 
L 152.034355 140.002369 
L 157.210608 144.299106 
L 162.38686 141.486069 
L 167.563112 145.424131 
L 172.739365 146.673357 
L 177.915617 146.755853 
L 183.091869 143.810968 
L 188.268122 142.593107 
L 193.444374 144.132981 
L 198.620626 149.026274 
L 203.796878 149.965238 
L 208.973131 149.521801 
L 214.149383 146.258145 
L 219.325635 148.613908 
L 224.501888 146.399572 
L 229.67814 153.606529 
L 234.854392 151.050946 
L 240.030645 150.626676 
L 245.206897 151.792526 
L 250.383149 154.109905 
L 255.559402 157.188035 
L 260.735654 152.420912 
L 265.911906 154.269681 
L 271.088159 156.203746 
L 276.264411 157.05833 
L 281.440663 154.738572 
L 286.616916 155.949768 
L 291.793168 154.338633 
L 296.96942 156.952676 
L 302.145673 150.258216 
L 307.321925 157.237751 
L 312.498177 153.585364 
L 317.674429 146.44245 
L 322.850682 157.694635 
" style="fill:none;stroke:#d62728;stroke-dasharray:1,1.65;stroke-dashoffset:0;"/>
   </g>
   <g id="patch_3">
    <path d="M 56.5325 178.079063 
L 56.5325 11.759063 
" style="fill:none;stroke:#000000;stroke-linecap:square;stroke-linejoin:miter;stroke-width:0.8;"/>
   </g>
   <g id="patch_4">
    <path d="M 335.5325 178.079063 
L 335.5325 11.759063 
" style="fill:none;stroke:#000000;stroke-linecap:square;stroke-linejoin:miter;stroke-width:0.8;"/>
   </g>
   <g id="patch_5">
    <path d="M 56.5325 178.079063 
L 335.5325 178.079063 
" style="fill:none;stroke:#000000;stroke-linecap:square;stroke-linejoin:miter;stroke-width:0.8;"/>
   </g>
   <g id="patch_6">
    <path d="M 56.5325 11.759063 
L 335.5325 11.759063 
" style="fill:none;stroke:#000000;stroke-linecap:square;stroke-linejoin:miter;stroke-width:0.8;"/>
   </g>
   <g id="legend_1">
    <g id="patch_7">
     <path d="M 149.770625 91.984688 
L 327.1325 91.984688 
Q 329.5325 91.984688 329.5325 89.584688 
L 329.5325 20.159063 
Q 329.5325 17.759063 327.1325 17.759063 
L 149.770625 17.759063 
Q 147.370625 17.759063 147.370625 20.159063 
L 147.370625 89.584688 
Q 147.370625 91.984688 149.770625 91.984688 
z
" style="fill:#ffffff;opacity:0.8;stroke:#cccccc;stroke-linejoin:miter;"/>
    </g>
    <g id="line2d_35">
     <path d="M 152.170625 27.477188 
L 176.170625 27.477188 
" style="fill:none;stroke:#4682b4;stroke-linecap:square;"/>
    </g>
    <g id="line2d_36"/>
    <g id="text_16">
     <!-- Add Upsampling -->
     <g transform="translate(185.770625 31.677188)scale(0.12 -0.12)">
      <defs>
       <path d="M 20.015625 26.421875 
L 46.78125 26.421875 
L 33.40625 61.078125 
z
M -0.59375 0 
L -0.59375 5.171875 
L 5.8125 5.171875 
L 31.78125 72.90625 
L 39.984375 72.90625 
L 66.015625 5.171875 
L 73.1875 5.171875 
L 73.1875 0 
L 46.6875 0 
L 46.6875 5.171875 
L 54.78125 5.171875 
L 48.6875 21.1875 
L 18.015625 21.1875 
L 11.921875 5.171875 
L 19.921875 5.171875 
L 19.921875 0 
z
" id="DejaVuSerif-65"/>
       <path d="M 52.484375 5.171875 
L 61.078125 5.171875 
L 61.078125 0 
L 43.5 0 
L 43.5 8.109375 
Q 40.875 3.21875 36.796875 0.890625 
Q 32.71875 -1.421875 26.703125 -1.421875 
Q 17.140625 -1.421875 11.0625 6.171875 
Q 4.984375 13.765625 4.984375 25.984375 
Q 4.984375 38.1875 11.03125 45.75 
Q 17.09375 53.328125 26.703125 53.328125 
Q 32.71875 53.328125 36.796875 51 
Q 40.875 48.6875 43.5 43.796875 
L 43.5 70.796875 
L 35.015625 70.796875 
L 35.015625 75.984375 
L 52.484375 75.984375 
z
M 43.5 23.390625 
L 43.5 28.515625 
Q 43.5 37.84375 39.90625 42.765625 
Q 36.328125 47.703125 29.5 47.703125 
Q 22.5625 47.703125 19.015625 42.234375 
Q 15.484375 36.765625 15.484375 25.984375 
Q 15.484375 15.234375 19.015625 9.71875 
Q 22.5625 4.203125 29.5 4.203125 
Q 36.328125 4.203125 39.90625 9.109375 
Q 43.5 14.015625 43.5 23.390625 
z
" id="DejaVuSerif-100"/>
       <path id="DejaVuSerif-32"/>
       <path d="M 14.015625 67.671875 
L 4.6875 67.671875 
L 4.6875 72.90625 
L 33.203125 72.90625 
L 33.203125 67.671875 
L 23.875 67.671875 
L 23.875 29.984375 
Q 23.875 16.015625 28.4375 10.5 
Q 33.015625 4.984375 44.1875 4.984375 
Q 55.375 4.984375 59.9375 10.5 
Q 64.5 16.015625 64.5 29.984375 
L 64.5 67.671875 
L 55.171875 67.671875 
L 55.171875 72.90625 
L 79.78125 72.90625 
L 79.78125 67.671875 
L 70.515625 67.671875 
L 70.515625 29 
Q 70.515625 12.359375 64.109375 5.46875 
Q 57.71875 -1.421875 42.390625 -1.421875 
Q 27.046875 -1.421875 20.53125 5.515625 
Q 14.015625 12.453125 14.015625 29 
z
" id="DejaVuSerif-85"/>
       <path d="M 39.796875 16.3125 
L 39.796875 27.296875 
L 28.21875 27.296875 
Q 21.53125 27.296875 18.25 24.40625 
Q 14.984375 21.53125 14.984375 15.578125 
Q 14.984375 10.15625 18.296875 6.984375 
Q 21.625 3.8125 27.296875 3.8125 
Q 32.90625 3.8125 36.34375 7.28125 
Q 39.796875 10.75 39.796875 16.3125 
z
M 48.78125 32.421875 
L 48.78125 5.171875 
L 56.78125 5.171875 
L 56.78125 0 
L 39.796875 0 
L 39.796875 5.609375 
Q 36.8125 2 32.90625 0.28125 
Q 29 -1.421875 23.78125 -1.421875 
Q 15.140625 -1.421875 10.0625 3.171875 
Q 4.984375 7.765625 4.984375 15.578125 
Q 4.984375 23.640625 10.796875 28.078125 
Q 16.609375 32.515625 27.203125 32.515625 
L 39.796875 32.515625 
L 39.796875 36.078125 
Q 39.796875 42 36.203125 45.234375 
Q 32.625 48.484375 26.125 48.484375 
Q 20.75 48.484375 17.578125 46.046875 
Q 14.40625 43.609375 13.625 38.8125 
L 8.984375 38.8125 
L 8.984375 49.3125 
Q 13.671875 51.3125 18.09375 52.3125 
Q 22.515625 53.328125 26.703125 53.328125 
Q 37.5 53.328125 43.140625 47.96875 
Q 48.78125 42.625 48.78125 32.421875 
z
" id="DejaVuSerif-97"/>
       <path d="M 51.8125 41.796875 
Q 54.390625 47.515625 58.421875 50.421875 
Q 62.453125 53.328125 67.828125 53.328125 
Q 75.984375 53.328125 79.984375 48.265625 
Q 83.984375 43.21875 83.984375 33.015625 
L 83.984375 5.171875 
L 92.09375 5.171875 
L 92.09375 0 
L 67.1875 0 
L 67.1875 5.171875 
L 75 5.171875 
L 75 31.984375 
Q 75 39.9375 72.65625 43.3125 
Q 70.3125 46.6875 64.890625 46.6875 
Q 58.890625 46.6875 55.734375 42.140625 
Q 52.59375 37.59375 52.59375 28.90625 
L 52.59375 5.171875 
L 60.40625 5.171875 
L 60.40625 0 
L 35.796875 0 
L 35.796875 5.171875 
L 43.609375 5.171875 
L 43.609375 32.328125 
Q 43.609375 40.09375 41.265625 43.390625 
Q 38.921875 46.6875 33.5 46.6875 
Q 27.484375 46.6875 24.328125 42.140625 
Q 21.1875 37.59375 21.1875 28.90625 
L 21.1875 5.171875 
L 29 5.171875 
L 29 0 
L 4.109375 0 
L 4.109375 5.171875 
L 12.203125 5.171875 
L 12.203125 46.78125 
L 3.609375 46.78125 
L 3.609375 51.90625 
L 21.1875 51.90625 
L 21.1875 42.671875 
Q 23.6875 47.859375 27.53125 50.59375 
Q 31.390625 53.328125 36.28125 53.328125 
Q 42.328125 53.328125 46.375 50.3125 
Q 50.4375 47.3125 51.8125 41.796875 
z
" id="DejaVuSerif-109"/>
       <path d="M 20.515625 5.171875 
L 29 5.171875 
L 29 0 
L 2.875 0 
L 2.875 5.171875 
L 11.53125 5.171875 
L 11.53125 70.796875 
L 2.875 70.796875 
L 2.875 75.984375 
L 20.515625 75.984375 
z
" id="DejaVuSerif-108"/>
       <path d="M 9.71875 68.015625 
Q 9.71875 70.265625 11.34375 71.921875 
Q 12.984375 73.578125 15.28125 73.578125 
Q 17.53125 73.578125 19.15625 71.921875 
Q 20.796875 70.265625 20.796875 68.015625 
Q 20.796875 65.71875 19.1875 64.109375 
Q 17.578125 62.5 15.28125 62.5 
Q 12.984375 62.5 11.34375 64.109375 
Q 9.71875 65.71875 9.71875 68.015625 
z
M 21.1875 5.171875 
L 29.6875 5.171875 
L 29.6875 0 
L 3.609375 0 
L 3.609375 5.171875 
L 12.203125 5.171875 
L 12.203125 46.6875 
L 3.609375 46.6875 
L 3.609375 51.90625 
L 21.1875 51.90625 
z
" id="DejaVuSerif-105"/>
       <path d="M 4.109375 0 
L 4.109375 5.171875 
L 12.203125 5.171875 
L 12.203125 46.6875 
L 3.609375 46.6875 
L 3.609375 51.90625 
L 21.1875 51.90625 
L 21.1875 42.671875 
Q 23.6875 47.953125 27.65625 50.640625 
Q 31.640625 53.328125 36.921875 53.328125 
Q 45.515625 53.328125 49.5625 48.390625 
Q 53.609375 43.453125 53.609375 33.015625 
L 53.609375 5.171875 
L 61.625 5.171875 
L 61.625 0 
L 36.8125 0 
L 36.8125 5.171875 
L 44.578125 5.171875 
L 44.578125 30.171875 
Q 44.578125 39.703125 42.234375 43.234375 
Q 39.890625 46.78125 33.984375 46.78125 
Q 27.734375 46.78125 24.453125 42.203125 
Q 21.1875 37.640625 21.1875 28.90625 
L 21.1875 5.171875 
L 29 5.171875 
L 29 0 
z
" id="DejaVuSerif-110"/>
       <path d="M 52.484375 46.6875 
L 52.484375 1.125 
Q 52.484375 -10.0625 46.328125 -16.140625 
Q 40.1875 -22.21875 28.8125 -22.21875 
Q 23.6875 -22.21875 19 -21.28125 
Q 14.3125 -20.359375 10.015625 -18.5 
L 10.015625 -7.625 
L 14.703125 -7.625 
Q 15.578125 -12.703125 18.84375 -15.046875 
Q 22.125 -17.390625 28.21875 -17.390625 
Q 36.140625 -17.390625 39.8125 -12.921875 
Q 43.5 -8.453125 43.5 1.125 
L 43.5 8.109375 
Q 40.875 3.21875 36.796875 0.890625 
Q 32.71875 -1.421875 26.703125 -1.421875 
Q 17.140625 -1.421875 11.0625 6.171875 
Q 4.984375 13.765625 4.984375 25.984375 
Q 4.984375 38.1875 11.03125 45.75 
Q 17.09375 53.328125 26.703125 53.328125 
Q 32.71875 53.328125 36.796875 51 
Q 40.875 48.6875 43.5 43.796875 
L 43.5 51.90625 
L 61.078125 51.90625 
L 61.078125 46.6875 
z
M 43.5 28.515625 
Q 43.5 37.84375 39.90625 42.765625 
Q 36.328125 47.703125 29.5 47.703125 
Q 22.5625 47.703125 19.015625 42.234375 
Q 15.484375 36.765625 15.484375 25.984375 
Q 15.484375 15.234375 19.015625 9.71875 
Q 22.5625 4.203125 29.5 4.203125 
Q 36.328125 4.203125 39.90625 9.109375 
Q 43.5 14.015625 43.5 23.390625 
z
" id="DejaVuSerif-103"/>
      </defs>
      <use xlink:href="#DejaVuSerif-65"/>
      <use x="72.216797" xlink:href="#DejaVuSerif-100"/>
      <use x="136.230469" xlink:href="#DejaVuSerif-100"/>
      <use x="200.244141" xlink:href="#DejaVuSerif-32"/>
      <use x="232.03125" xlink:href="#DejaVuSerif-85"/>
      <use x="316.308594" xlink:href="#DejaVuSerif-112"/>
      <use x="380.322266" xlink:href="#DejaVuSerif-115"/>
      <use x="431.640625" xlink:href="#DejaVuSerif-97"/>
      <use x="491.259766" xlink:href="#DejaVuSerif-109"/>
      <use x="586.083984" xlink:href="#DejaVuSerif-112"/>
      <use x="650.097656" xlink:href="#DejaVuSerif-108"/>
      <use x="682.080078" xlink:href="#DejaVuSerif-105"/>
      <use x="714.0625" xlink:href="#DejaVuSerif-110"/>
      <use x="778.466797" xlink:href="#DejaVuSerif-103"/>
     </g>
    </g>
    <g id="line2d_37">
     <path d="M 152.170625 45.261563 
L 176.170625 45.261563 
" style="fill:none;stroke:#ff7f50;stroke-linecap:square;"/>
    </g>
    <g id="line2d_38"/>
    <g id="text_17">
     <!-- Add Conv2DTranspose -->
     <g transform="translate(185.770625 49.461563)scale(0.12 -0.12)">
      <defs>
       <path d="M 70.515625 19.28125 
Q 67.28125 9.078125 59.6875 3.828125 
Q 52.09375 -1.421875 40.484375 -1.421875 
Q 33.34375 -1.421875 27.234375 1.015625 
Q 21.140625 3.46875 16.40625 8.203125 
Q 10.9375 13.671875 8.265625 20.625 
Q 5.609375 27.59375 5.609375 36.375 
Q 5.609375 53.375 15.421875 63.796875 
Q 25.25 74.21875 41.3125 74.21875 
Q 47.265625 74.21875 54 72.65625 
Q 60.75 71.09375 68.5 67.921875 
L 68.5 51.125 
L 62.984375 51.125 
Q 61.1875 60.296875 55.734375 64.640625 
Q 50.296875 69 40.484375 69 
Q 28.8125 69 22.796875 60.71875 
Q 16.796875 52.4375 16.796875 36.375 
Q 16.796875 20.359375 22.796875 12.078125 
Q 28.8125 3.8125 40.484375 3.8125 
Q 48.640625 3.8125 53.90625 7.6875 
Q 59.1875 11.578125 61.53125 19.28125 
z
" id="DejaVuSerif-67"/>
       <path d="M 24.703125 0 
L 5.609375 46.6875 
L -0.296875 46.6875 
L -0.296875 51.90625 
L 23.578125 51.90625 
L 23.578125 46.6875 
L 15.28125 46.6875 
L 29.890625 10.984375 
L 44.484375 46.6875 
L 36.71875 46.6875 
L 36.71875 51.90625 
L 56.203125 51.90625 
L 56.203125 46.6875 
L 50.390625 46.6875 
L 31.296875 0 
z
" id="DejaVuSerif-118"/>
       <path d="M 24.703125 5.171875 
L 33.796875 5.171875 
Q 48 5.171875 55.59375 13.28125 
Q 63.1875 21.390625 63.1875 36.53125 
Q 63.1875 51.65625 55.609375 59.65625 
Q 48.046875 67.671875 33.796875 67.671875 
L 24.703125 67.671875 
z
M 5.515625 0 
L 5.515625 5.171875 
L 14.796875 5.171875 
L 14.796875 67.671875 
L 5.515625 67.671875 
L 5.515625 72.90625 
L 34.515625 72.90625 
Q 53.375 72.90625 63.890625 63.28125 
Q 74.421875 53.65625 74.421875 36.53125 
Q 74.421875 19.34375 63.875 9.671875 
Q 53.328125 0 34.515625 0 
z
" id="DejaVuSerif-68"/>
       <path d="M 19.09375 0 
L 19.09375 5.171875 
L 28.421875 5.171875 
L 28.421875 67.09375 
L 6.984375 67.09375 
L 6.984375 55.71875 
L 0.984375 55.71875 
L 0.984375 72.90625 
L 65.71875 72.90625 
L 65.71875 55.71875 
L 59.71875 55.71875 
L 59.71875 67.09375 
L 38.28125 67.09375 
L 38.28125 5.171875 
L 47.609375 5.171875 
L 47.609375 0 
z
" id="DejaVuSerif-84"/>
       <path d="M 47.796875 52 
L 47.796875 39.015625 
L 42.625 39.015625 
Q 42.390625 42.875 40.484375 44.78125 
Q 38.578125 46.6875 34.90625 46.6875 
Q 28.265625 46.6875 24.71875 42.09375 
Q 21.1875 37.5 21.1875 28.90625 
L 21.1875 5.171875 
L 31.59375 5.171875 
L 31.59375 0 
L 4.109375 0 
L 4.109375 5.171875 
L 12.203125 5.171875 
L 12.203125 46.78125 
L 3.609375 46.78125 
L 3.609375 51.90625 
L 21.1875 51.90625 
L 21.1875 42.671875 
Q 23.828125 48.09375 27.96875 50.703125 
Q 32.125 53.328125 38.09375 53.328125 
Q 40.28125 53.328125 42.703125 52.984375 
Q 45.125 52.640625 47.796875 52 
z
" id="DejaVuSerif-114"/>
       <path d="M 54.203125 25 
L 15.484375 25 
L 15.484375 24.609375 
Q 15.484375 14.109375 19.4375 8.765625 
Q 23.390625 3.421875 31.109375 3.421875 
Q 37.015625 3.421875 40.796875 6.515625 
Q 44.578125 9.625 46.09375 15.71875 
L 53.328125 15.71875 
Q 51.171875 7.171875 45.375 2.875 
Q 39.59375 -1.421875 30.171875 -1.421875 
Q 18.796875 -1.421875 11.890625 6.078125 
Q 4.984375 13.578125 4.984375 25.984375 
Q 4.984375 38.28125 11.765625 45.796875 
Q 18.5625 53.328125 29.59375 53.328125 
Q 41.359375 53.328125 47.65625 46.0625 
Q 53.953125 38.8125 54.203125 25 
z
M 43.609375 30.171875 
Q 43.3125 39.265625 39.765625 43.875 
Q 36.234375 48.484375 29.59375 48.484375 
Q 23.390625 48.484375 19.828125 43.84375 
Q 16.265625 39.203125 15.484375 30.171875 
z
" id="DejaVuSerif-101"/>
      </defs>
      <use xlink:href="#DejaVuSerif-65"/>
      <use x="72.216797" xlink:href="#DejaVuSerif-100"/>
      <use x="136.230469" xlink:href="#DejaVuSerif-100"/>
      <use x="200.244141" xlink:href="#DejaVuSerif-32"/>
      <use x="232.03125" xlink:href="#DejaVuSerif-67"/>
      <use x="308.544922" xlink:href="#DejaVuSerif-111"/>
      <use x="368.75" xlink:href="#DejaVuSerif-110"/>
      <use x="433.154297" xlink:href="#DejaVuSerif-118"/>
      <use x="489.648438" xlink:href="#DejaVuSerif-50"/>
      <use x="553.271484" xlink:href="#DejaVuSerif-68"/>
      <use x="633.447266" xlink:href="#DejaVuSerif-84"/>
      <use x="700.146484" xlink:href="#DejaVuSerif-114"/>
      <use x="747.949219" xlink:href="#DejaVuSerif-97"/>
      <use x="807.568359" xlink:href="#DejaVuSerif-110"/>
      <use x="871.972656" xlink:href="#DejaVuSerif-115"/>
      <use x="923.291016" xlink:href="#DejaVuSerif-112"/>
      <use x="987.304688" xlink:href="#DejaVuSerif-111"/>
      <use x="1047.509766" xlink:href="#DejaVuSerif-115"/>
      <use x="1098.828125" xlink:href="#DejaVuSerif-101"/>
     </g>
    </g>
    <g id="line2d_39">
     <path d="M 152.170625 62.875313 
L 176.170625 62.875313 
" style="fill:none;stroke:#2ca02c;stroke-linecap:square;"/>
    </g>
    <g id="line2d_40"/>
    <g id="text_18">
     <!-- Add Dropout -->
     <g transform="translate(185.770625 67.075313)scale(0.12 -0.12)">
      <defs>
       <path d="M 35.40625 51.90625 
L 52.203125 51.90625 
L 52.203125 5.171875 
L 60.6875 5.171875 
L 60.6875 0 
L 43.21875 0 
L 43.21875 9.1875 
Q 40.71875 4 36.765625 1.28125 
Q 32.8125 -1.421875 27.59375 -1.421875 
Q 18.953125 -1.421875 14.875 3.484375 
Q 10.796875 8.40625 10.796875 18.890625 
L 10.796875 46.6875 
L 2.6875 46.6875 
L 2.6875 51.90625 
L 19.828125 51.90625 
L 19.828125 21.6875 
Q 19.828125 12.203125 22.140625 8.6875 
Q 24.46875 5.171875 30.421875 5.171875 
Q 36.671875 5.171875 39.9375 9.765625 
Q 43.21875 14.359375 43.21875 23.09375 
L 43.21875 46.6875 
L 35.40625 46.6875 
z
" id="DejaVuSerif-117"/>
       <path d="M 10.796875 46.6875 
L 2.875 46.6875 
L 2.875 51.90625 
L 10.796875 51.90625 
L 10.796875 68.015625 
L 19.828125 68.015625 
L 19.828125 51.90625 
L 36.71875 51.90625 
L 36.71875 46.6875 
L 19.828125 46.6875 
L 19.828125 13.71875 
Q 19.828125 7.125 21.09375 5.265625 
Q 22.359375 3.421875 25.78125 3.421875 
Q 29.296875 3.421875 30.90625 5.484375 
Q 32.515625 7.5625 32.625 12.203125 
L 39.40625 12.203125 
Q 39.015625 5.125 35.546875 1.84375 
Q 32.078125 -1.421875 25 -1.421875 
Q 17.234375 -1.421875 14.015625 2.015625 
Q 10.796875 5.46875 10.796875 13.71875 
z
" id="DejaVuSerif-116"/>
      </defs>
      <use xlink:href="#DejaVuSerif-65"/>
      <use x="72.216797" xlink:href="#DejaVuSerif-100"/>
      <use x="136.230469" xlink:href="#DejaVuSerif-100"/>
      <use x="200.244141" xlink:href="#DejaVuSerif-32"/>
      <use x="232.03125" xlink:href="#DejaVuSerif-68"/>
      <use x="312.207031" xlink:href="#DejaVuSerif-114"/>
      <use x="360.009766" xlink:href="#DejaVuSerif-111"/>
      <use x="420.214844" xlink:href="#DejaVuSerif-112"/>
      <use x="484.228516" xlink:href="#DejaVuSerif-111"/>
      <use x="544.433594" xlink:href="#DejaVuSerif-117"/>
      <use x="608.837891" xlink:href="#DejaVuSerif-116"/>
     </g>
    </g>
    <g id="line2d_41">
     <path d="M 152.170625 80.489063 
L 176.170625 80.489063 
" style="fill:none;stroke:#d62728;stroke-linecap:square;"/>
    </g>
    <g id="line2d_42"/>
    <g id="text_19">
     <!-- Keras Model -->
     <g transform="translate(185.770625 84.689063)scale(0.12 -0.12)">
      <defs>
       <path d="M 5.515625 0 
L 5.515625 5.171875 
L 14.796875 5.171875 
L 14.796875 67.671875 
L 5.515625 67.671875 
L 5.515625 72.90625 
L 33.984375 72.90625 
L 33.984375 67.671875 
L 24.703125 67.671875 
L 24.703125 40.09375 
L 56.109375 67.671875 
L 48.1875 67.671875 
L 48.1875 72.90625 
L 72.40625 72.90625 
L 72.40625 67.671875 
L 64.203125 67.671875 
L 32.90625 40.1875 
L 67.921875 5.171875 
L 76.21875 5.171875 
L 76.21875 0 
L 59.28125 0 
L 24.703125 34.625 
L 24.703125 5.171875 
L 33.984375 5.171875 
L 33.984375 0 
z
" id="DejaVuSerif-75"/>
       <path d="M 5.515625 0 
L 5.515625 5.171875 
L 14.796875 5.171875 
L 14.796875 67.671875 
L 4.984375 67.671875 
L 4.984375 72.90625 
L 26.21875 72.90625 
L 51.8125 21 
L 77.390625 72.90625 
L 97.3125 72.90625 
L 97.3125 67.671875 
L 87.59375 67.671875 
L 87.59375 5.171875 
L 96.921875 5.171875 
L 96.921875 0 
L 68.40625 0 
L 68.40625 5.171875 
L 77.6875 5.171875 
L 77.6875 61.53125 
L 52.6875 10.6875 
L 45.796875 10.6875 
L 20.796875 61.53125 
L 20.796875 5.171875 
L 30.078125 5.171875 
L 30.078125 0 
z
" id="DejaVuSerif-77"/>
      </defs>
      <use xlink:href="#DejaVuSerif-75"/>
      <use x="72.082031" xlink:href="#DejaVuSerif-101"/>
      <use x="131.261719" xlink:href="#DejaVuSerif-114"/>
      <use x="179.064453" xlink:href="#DejaVuSerif-97"/>
      <use x="238.683594" xlink:href="#DejaVuSerif-115"/>
      <use x="290.001953" xlink:href="#DejaVuSerif-32"/>
      <use x="321.789062" xlink:href="#DejaVuSerif-77"/>
      <use x="424.181641" xlink:href="#DejaVuSerif-111"/>
      <use x="484.386719" xlink:href="#DejaVuSerif-100"/>
      <use x="548.400391" xlink:href="#DejaVuSerif-101"/>
      <use x="607.580078" xlink:href="#DejaVuSerif-108"/>
     </g>
    </g>
   </g>
   <g id="legend_2">
    <g id="patch_8">
     <path d="M 64.9325 172.079063 
L 150.483125 172.079063 
Q 152.883125 172.079063 152.883125 169.679063 
L 152.883125 135.317813 
Q 152.883125 132.917813 150.483125 132.917813 
L 64.9325 132.917813 
Q 62.5325 132.917813 62.5325 135.317813 
L 62.5325 169.679063 
Q 62.5325 172.079063 64.9325 172.079063 
z
" style="fill:#ffffff;opacity:0.8;stroke:#cccccc;stroke-linejoin:miter;"/>
    </g>
    <g id="line2d_43">
     <path d="M 67.3325 142.635938 
L 91.3325 142.635938 
" style="fill:none;stroke:#000000;stroke-linecap:square;"/>
    </g>
    <g id="line2d_44"/>
    <g id="text_20">
     <!-- loss -->
     <g transform="translate(100.9325 146.835938)scale(0.12 -0.12)">
      <use xlink:href="#DejaVuSerif-108"/>
      <use x="31.982422" xlink:href="#DejaVuSerif-111"/>
      <use x="92.1875" xlink:href="#DejaVuSerif-115"/>
      <use x="143.505859" xlink:href="#DejaVuSerif-115"/>
     </g>
    </g>
    <g id="line2d_45">
     <path d="M 67.3325 160.249688 
L 91.3325 160.249688 
" style="fill:none;stroke:#000000;stroke-dasharray:1,1.65;stroke-dashoffset:0;"/>
    </g>
    <g id="line2d_46"/>
    <g id="text_21">
     <!-- val_loss -->
     <g transform="translate(100.9325 164.449688)scale(0.12 -0.12)">
      <defs>
       <path d="M 50 -19.671875 
L 50 -23.578125 
L 0 -23.578125 
L 0 -19.671875 
z
" id="DejaVuSerif-95"/>
      </defs>
      <use xlink:href="#DejaVuSerif-118"/>
      <use x="56.494141" xlink:href="#DejaVuSerif-97"/>
      <use x="116.113281" xlink:href="#DejaVuSerif-108"/>
      <use x="148.095703" xlink:href="#DejaVuSerif-95"/>
      <use x="198.095703" xlink:href="#DejaVuSerif-108"/>
      <use x="230.078125" xlink:href="#DejaVuSerif-111"/>
      <use x="290.283203" xlink:href="#DejaVuSerif-115"/>
      <use x="341.601562" xlink:href="#DejaVuSerif-115"/>
     </g>
    </g>
   </g>
   <g id="legend_3">
    <g id="patch_9">
     <path d="M 64.9325 172.079063 
L 150.483125 172.079063 
Q 152.883125 172.079063 152.883125 169.679063 
L 152.883125 135.317813 
Q 152.883125 132.917813 150.483125 132.917813 
L 64.9325 132.917813 
Q 62.5325 132.917813 62.5325 135.317813 
L 62.5325 169.679063 
Q 62.5325 172.079063 64.9325 172.079063 
z
" style="fill:#ffffff;opacity:0.8;stroke:#cccccc;stroke-linejoin:miter;"/>
    </g>
    <g id="line2d_47">
     <path d="M 67.3325 142.635938 
L 91.3325 142.635938 
" style="fill:none;stroke:#000000;stroke-linecap:square;"/>
    </g>
    <g id="line2d_48"/>
    <g id="text_22">
     <!-- loss -->
     <g transform="translate(100.9325 146.835938)scale(0.12 -0.12)">
      <use xlink:href="#DejaVuSerif-108"/>
      <use x="31.982422" xlink:href="#DejaVuSerif-111"/>
      <use x="92.1875" xlink:href="#DejaVuSerif-115"/>
      <use x="143.505859" xlink:href="#DejaVuSerif-115"/>
     </g>
    </g>
    <g id="line2d_49">
     <path d="M 67.3325 160.249688 
L 91.3325 160.249688 
" style="fill:none;stroke:#000000;stroke-dasharray:1,1.65;stroke-dashoffset:0;"/>
    </g>
    <g id="line2d_50"/>
    <g id="text_23">
     <!-- val_loss -->
     <g transform="translate(100.9325 164.449688)scale(0.12 -0.12)">
      <use xlink:href="#DejaVuSerif-118"/>
      <use x="56.494141" xlink:href="#DejaVuSerif-97"/>
      <use x="116.113281" xlink:href="#DejaVuSerif-108"/>
      <use x="148.095703" xlink:href="#DejaVuSerif-95"/>
      <use x="198.095703" xlink:href="#DejaVuSerif-108"/>
      <use x="230.078125" xlink:href="#DejaVuSerif-111"/>
      <use x="290.283203" xlink:href="#DejaVuSerif-115"/>
      <use x="341.601562" xlink:href="#DejaVuSerif-115"/>
     </g>
    </g>
   </g>
  </g>
 </g>
 <defs>
  <clipPath id="p681813d99d">
   <rect height="166.32" width="279" x="56.5325" y="11.759063"/>
  </clipPath>
 </defs>
</svg>
