<?xml version="1.0" encoding="utf-8" standalone="no"?>
<!DOCTYPE svg PUBLIC "-//W3C//DTD SVG 1.1//EN"
  "http://www.w3.org/Graphics/SVG/1.1/DTD/svg11.dtd">
<!-- Created with matplotlib (https://matplotlib.org/) -->
<svg height="219.506563pt" version="1.1" viewBox="0 0 342.861934 219.506563" width="342.861934pt" xmlns="http://www.w3.org/2000/svg" xmlns:xlink="http://www.w3.org/1999/xlink">
 <metadata>
  <rdf:RDF xmlns:cc="http://creativecommons.org/ns#" xmlns:dc="http://purl.org/dc/elements/1.1/" xmlns:rdf="http://www.w3.org/1999/02/22-rdf-syntax-ns#">
   <cc:Work>
    <dc:type rdf:resource="http://purl.org/dc/dcmitype/StillImage"/>
    <dc:date>2021-09-25T02:55:08.185865</dc:date>
    <dc:format>image/svg+xml</dc:format>
    <dc:creator>
     <cc:Agent>
      <dc:title>Matplotlib v3.3.3, https://matplotlib.org/</dc:title>
     </cc:Agent>
    </dc:creator>
   </cc:Work>
  </rdf:RDF>
 </metadata>
 <defs>
  <style type="text/css">*{stroke-linecap:butt;stroke-linejoin:round;}</style>
 </defs>
 <g id="figure_1">
  <g id="patch_1">
   <path d="M 0 219.506563 
L 342.861934 219.506563 
L 342.861934 0 
L 0 0 
z
" style="fill:none;"/>
  </g>
  <g id="axes_1">
   <g id="patch_2">
    <path d="M 56.5325 178.079063 
L 335.5325 178.079063 
L 335.5325 11.759063 
L 56.5325 11.759063 
z
" style="fill:none;"/>
   </g>
   <g id="matplotlib.axis_1">
    <g id="xtick_1">
     <g id="line2d_1">
      <path clip-path="url(#pe24c0c6207)" d="M 69.214318 178.079063 
L 69.214318 11.759063 
" style="fill:none;stroke:#b0b0b0;stroke-linecap:square;stroke-width:0.8;"/>
     </g>
     <g id="line2d_2">
      <defs>
       <path d="M 0 0 
L 0 3.5 
" id="mc0a5720aab" style="stroke:#000000;stroke-width:0.8;"/>
      </defs>
      <g>
       <use style="stroke:#000000;stroke-width:0.8;" x="69.214318" xlink:href="#mc0a5720aab" y="178.079063"/>
      </g>
     </g>
     <g id="text_1">
      <!-- 0 -->
      <g transform="translate(65.396818 194.197188)scale(0.12 -0.12)">
       <defs>
        <path d="M 31.78125 3.421875 
Q 39.265625 3.421875 42.96875 11.625 
Q 46.6875 19.828125 46.6875 36.375 
Q 46.6875 52.984375 42.96875 61.1875 
Q 39.265625 69.390625 31.78125 69.390625 
Q 24.3125 69.390625 20.59375 61.1875 
Q 16.890625 52.984375 16.890625 36.375 
Q 16.890625 19.828125 20.59375 11.625 
Q 24.3125 3.421875 31.78125 3.421875 
z
M 31.78125 -1.421875 
Q 19.921875 -1.421875 13.25 8.53125 
Q 6.59375 18.5 6.59375 36.375 
Q 6.59375 54.296875 13.25 64.25 
Q 19.921875 74.21875 31.78125 74.21875 
Q 43.703125 74.21875 50.34375 64.25 
Q 56.984375 54.296875 56.984375 36.375 
Q 56.984375 18.5 50.34375 8.53125 
Q 43.703125 -1.421875 31.78125 -1.421875 
z
" id="DejaVuSerif-48"/>
       </defs>
       <use xlink:href="#DejaVuSerif-48"/>
      </g>
     </g>
    </g>
    <g id="xtick_2">
     <g id="line2d_3">
      <path clip-path="url(#pe24c0c6207)" d="M 120.976841 178.079063 
L 120.976841 11.759063 
" style="fill:none;stroke:#b0b0b0;stroke-linecap:square;stroke-width:0.8;"/>
     </g>
     <g id="line2d_4">
      <g>
       <use style="stroke:#000000;stroke-width:0.8;" x="120.976841" xlink:href="#mc0a5720aab" y="178.079063"/>
      </g>
     </g>
     <g id="text_2">
      <!-- 10 -->
      <g transform="translate(113.341841 194.197188)scale(0.12 -0.12)">
       <defs>
        <path d="M 14.203125 0 
L 14.203125 5.171875 
L 26.90625 5.171875 
L 26.90625 65.828125 
L 12.203125 56.296875 
L 12.203125 62.703125 
L 29.984375 74.21875 
L 36.71875 74.21875 
L 36.71875 5.171875 
L 49.421875 5.171875 
L 49.421875 0 
z
" id="DejaVuSerif-49"/>
       </defs>
       <use xlink:href="#DejaVuSerif-49"/>
       <use x="63.623047" xlink:href="#DejaVuSerif-48"/>
      </g>
     </g>
    </g>
    <g id="xtick_3">
     <g id="line2d_5">
      <path clip-path="url(#pe24c0c6207)" d="M 172.739365 178.079063 
L 172.739365 11.759063 
" style="fill:none;stroke:#b0b0b0;stroke-linecap:square;stroke-width:0.8;"/>
     </g>
     <g id="line2d_6">
      <g>
       <use style="stroke:#000000;stroke-width:0.8;" x="172.739365" xlink:href="#mc0a5720aab" y="178.079063"/>
      </g>
     </g>
     <g id="text_3">
      <!-- 20 -->
      <g transform="translate(165.104365 194.197188)scale(0.12 -0.12)">
       <defs>
        <path d="M 12.796875 55.515625 
L 7.328125 55.515625 
L 7.328125 68.5 
Q 12.546875 71.296875 17.84375 72.75 
Q 23.140625 74.21875 28.21875 74.21875 
Q 39.59375 74.21875 46.1875 68.703125 
Q 52.78125 63.1875 52.78125 53.71875 
Q 52.78125 43.015625 37.84375 28.125 
Q 36.671875 27 36.078125 26.421875 
L 17.671875 8.015625 
L 48.09375 8.015625 
L 48.09375 17 
L 53.8125 17 
L 53.8125 0 
L 6.78125 0 
L 6.78125 5.328125 
L 28.90625 27.390625 
Q 36.234375 34.71875 39.359375 40.84375 
Q 42.484375 46.96875 42.484375 53.71875 
Q 42.484375 61.078125 38.640625 65.234375 
Q 34.8125 69.390625 28.078125 69.390625 
Q 21.09375 69.390625 17.28125 65.921875 
Q 13.484375 62.453125 12.796875 55.515625 
z
" id="DejaVuSerif-50"/>
       </defs>
       <use xlink:href="#DejaVuSerif-50"/>
       <use x="63.623047" xlink:href="#DejaVuSerif-48"/>
      </g>
     </g>
    </g>
    <g id="xtick_4">
     <g id="line2d_7">
      <path clip-path="url(#pe24c0c6207)" d="M 224.501888 178.079063 
L 224.501888 11.759063 
" style="fill:none;stroke:#b0b0b0;stroke-linecap:square;stroke-width:0.8;"/>
     </g>
     <g id="line2d_8">
      <g>
       <use style="stroke:#000000;stroke-width:0.8;" x="224.501888" xlink:href="#mc0a5720aab" y="178.079063"/>
      </g>
     </g>
     <g id="text_4">
      <!-- 30 -->
      <g transform="translate(216.866888 194.197188)scale(0.12 -0.12)">
       <defs>
        <path d="M 9.71875 69.828125 
Q 15.4375 71.96875 20.671875 73.09375 
Q 25.921875 74.21875 30.515625 74.21875 
Q 41.21875 74.21875 47.21875 69.59375 
Q 53.21875 64.984375 53.21875 56.78125 
Q 53.21875 50.203125 49.0625 45.78125 
Q 44.921875 41.359375 37.3125 39.796875 
Q 46.296875 38.53125 51.25 33.28125 
Q 56.203125 28.03125 56.203125 19.671875 
Q 56.203125 9.46875 49.34375 4.015625 
Q 42.484375 -1.421875 29.59375 -1.421875 
Q 23.875 -1.421875 18.421875 -0.1875 
Q 12.984375 1.03125 7.625 3.515625 
L 7.625 17.671875 
L 13.09375 17.671875 
Q 13.578125 10.640625 17.828125 7.03125 
Q 22.078125 3.421875 29.78125 3.421875 
Q 37.25 3.421875 41.578125 7.734375 
Q 45.90625 12.0625 45.90625 19.578125 
Q 45.90625 28.171875 41.453125 32.59375 
Q 37.015625 37.015625 28.421875 37.015625 
L 23.78125 37.015625 
L 23.78125 42 
L 26.21875 42 
Q 34.765625 42 39.03125 45.53125 
Q 43.3125 49.078125 43.3125 56.203125 
Q 43.3125 62.59375 39.796875 65.984375 
Q 36.28125 69.390625 29.6875 69.390625 
Q 23.09375 69.390625 19.453125 66.265625 
Q 15.828125 63.140625 15.1875 56.984375 
L 9.71875 56.984375 
z
" id="DejaVuSerif-51"/>
       </defs>
       <use xlink:href="#DejaVuSerif-51"/>
       <use x="63.623047" xlink:href="#DejaVuSerif-48"/>
      </g>
     </g>
    </g>
    <g id="xtick_5">
     <g id="line2d_9">
      <path clip-path="url(#pe24c0c6207)" d="M 276.264411 178.079063 
L 276.264411 11.759063 
" style="fill:none;stroke:#b0b0b0;stroke-linecap:square;stroke-width:0.8;"/>
     </g>
     <g id="line2d_10">
      <g>
       <use style="stroke:#000000;stroke-width:0.8;" x="276.264411" xlink:href="#mc0a5720aab" y="178.079063"/>
      </g>
     </g>
     <g id="text_5">
      <!-- 40 -->
      <g transform="translate(268.629411 194.197188)scale(0.12 -0.12)">
       <defs>
        <path d="M 34.90625 24.703125 
L 34.90625 63.484375 
L 10.015625 24.703125 
z
M 56.390625 0 
L 23.1875 0 
L 23.1875 5.171875 
L 34.90625 5.171875 
L 34.90625 19.484375 
L 3.078125 19.484375 
L 3.078125 24.8125 
L 35.015625 74.21875 
L 44.671875 74.21875 
L 44.671875 24.703125 
L 58.59375 24.703125 
L 58.59375 19.484375 
L 44.671875 19.484375 
L 44.671875 5.171875 
L 56.390625 5.171875 
z
" id="DejaVuSerif-52"/>
       </defs>
       <use xlink:href="#DejaVuSerif-52"/>
       <use x="63.623047" xlink:href="#DejaVuSerif-48"/>
      </g>
     </g>
    </g>
    <g id="xtick_6">
     <g id="line2d_11">
      <path clip-path="url(#pe24c0c6207)" d="M 328.026934 178.079063 
L 328.026934 11.759063 
" style="fill:none;stroke:#b0b0b0;stroke-linecap:square;stroke-width:0.8;"/>
     </g>
     <g id="line2d_12">
      <g>
       <use style="stroke:#000000;stroke-width:0.8;" x="328.026934" xlink:href="#mc0a5720aab" y="178.079063"/>
      </g>
     </g>
     <g id="text_6">
      <!-- 50 -->
      <g transform="translate(320.391934 194.197188)scale(0.12 -0.12)">
       <defs>
        <path d="M 50.296875 72.90625 
L 50.296875 64.890625 
L 16.890625 64.890625 
L 16.890625 44 
Q 19.4375 45.75 22.828125 46.625 
Q 26.21875 47.515625 30.421875 47.515625 
Q 42.234375 47.515625 49.0625 40.96875 
Q 55.90625 34.421875 55.90625 23.09375 
Q 55.90625 11.53125 49 5.046875 
Q 42.09375 -1.421875 29.59375 -1.421875 
Q 24.5625 -1.421875 19.28125 -0.1875 
Q 14.015625 1.03125 8.5 3.515625 
L 8.5 17.671875 
L 14.015625 17.671875 
Q 14.453125 10.75 18.421875 7.078125 
Q 22.40625 3.421875 29.59375 3.421875 
Q 37.3125 3.421875 41.453125 8.5 
Q 45.609375 13.578125 45.609375 23.09375 
Q 45.609375 32.5625 41.484375 37.609375 
Q 37.359375 42.671875 29.59375 42.671875 
Q 25.203125 42.671875 21.84375 41.109375 
Q 18.5 39.546875 15.921875 36.28125 
L 11.71875 36.28125 
L 11.71875 72.90625 
z
" id="DejaVuSerif-53"/>
       </defs>
       <use xlink:href="#DejaVuSerif-53"/>
       <use x="63.623047" xlink:href="#DejaVuSerif-48"/>
      </g>
     </g>
    </g>
    <g id="text_7">
     <!-- Epochs -->
     <g transform="translate(173.89625 209.810938)scale(0.12 -0.12)">
      <defs>
       <path d="M 5.515625 0 
L 5.515625 5.171875 
L 14.796875 5.171875 
L 14.796875 67.671875 
L 5.515625 67.671875 
L 5.515625 72.90625 
L 64.203125 72.90625 
L 64.203125 56.6875 
L 58.203125 56.6875 
L 58.203125 66.890625 
L 24.703125 66.890625 
L 24.703125 42.484375 
L 48.578125 42.484375 
L 48.578125 51.609375 
L 54.59375 51.609375 
L 54.59375 27.390625 
L 48.578125 27.390625 
L 48.578125 36.53125 
L 24.703125 36.53125 
L 24.703125 6 
L 58.984375 6 
L 58.984375 16.21875 
L 64.984375 16.21875 
L 64.984375 0 
z
" id="DejaVuSerif-69"/>
       <path d="M 20.515625 28.515625 
L 20.515625 23.390625 
Q 20.515625 14.015625 24.09375 9.109375 
Q 27.6875 4.203125 34.515625 4.203125 
Q 41.40625 4.203125 44.9375 9.71875 
Q 48.484375 15.234375 48.484375 25.984375 
Q 48.484375 36.765625 44.9375 42.234375 
Q 41.40625 47.703125 34.515625 47.703125 
Q 27.6875 47.703125 24.09375 42.765625 
Q 20.515625 37.84375 20.515625 28.515625 
z
M 11.53125 46.6875 
L 2.875 46.6875 
L 2.875 51.90625 
L 20.515625 51.90625 
L 20.515625 43.796875 
Q 23.140625 48.6875 27.21875 51 
Q 31.296875 53.328125 37.3125 53.328125 
Q 46.875 53.328125 52.921875 45.75 
Q 58.984375 38.1875 58.984375 25.984375 
Q 58.984375 13.765625 52.921875 6.171875 
Q 46.875 -1.421875 37.3125 -1.421875 
Q 31.296875 -1.421875 27.21875 0.890625 
Q 23.140625 3.21875 20.515625 8.109375 
L 20.515625 -15.578125 
L 29 -15.578125 
L 29 -20.796875 
L 2.875 -20.796875 
L 2.875 -15.578125 
L 11.53125 -15.578125 
z
" id="DejaVuSerif-112"/>
       <path d="M 30.078125 3.421875 
Q 37.3125 3.421875 40.984375 9.125 
Q 44.671875 14.84375 44.671875 25.984375 
Q 44.671875 37.109375 40.984375 42.796875 
Q 37.3125 48.484375 30.078125 48.484375 
Q 22.859375 48.484375 19.171875 42.796875 
Q 15.484375 37.109375 15.484375 25.984375 
Q 15.484375 14.84375 19.1875 9.125 
Q 22.90625 3.421875 30.078125 3.421875 
z
M 30.078125 -1.421875 
Q 18.75 -1.421875 11.859375 6.078125 
Q 4.984375 13.578125 4.984375 25.984375 
Q 4.984375 38.375 11.84375 45.84375 
Q 18.703125 53.328125 30.078125 53.328125 
Q 41.453125 53.328125 48.3125 45.84375 
Q 55.171875 38.375 55.171875 25.984375 
Q 55.171875 13.578125 48.3125 6.078125 
Q 41.453125 -1.421875 30.078125 -1.421875 
z
" id="DejaVuSerif-111"/>
       <path d="M 51.421875 15.578125 
Q 49.515625 7.28125 44.09375 2.921875 
Q 38.671875 -1.421875 30.078125 -1.421875 
Q 18.75 -1.421875 11.859375 6.078125 
Q 4.984375 13.578125 4.984375 25.984375 
Q 4.984375 38.421875 11.859375 45.875 
Q 18.75 53.328125 30.078125 53.328125 
Q 35.015625 53.328125 39.890625 52.171875 
Q 44.78125 51.03125 49.703125 48.6875 
L 49.703125 35.40625 
L 44.484375 35.40625 
Q 43.453125 42.234375 40.015625 45.359375 
Q 36.578125 48.484375 30.171875 48.484375 
Q 22.90625 48.484375 19.1875 42.84375 
Q 15.484375 37.203125 15.484375 25.984375 
Q 15.484375 14.75 19.171875 9.078125 
Q 22.859375 3.421875 30.171875 3.421875 
Q 35.984375 3.421875 39.453125 6.4375 
Q 42.921875 9.46875 44.1875 15.578125 
z
" id="DejaVuSerif-99"/>
       <path d="M 4.109375 0 
L 4.109375 5.171875 
L 12.203125 5.171875 
L 12.203125 70.796875 
L 3.609375 70.796875 
L 3.609375 75.984375 
L 21.1875 75.984375 
L 21.1875 42.671875 
Q 23.6875 47.953125 27.65625 50.640625 
Q 31.640625 53.328125 36.921875 53.328125 
Q 45.515625 53.328125 49.5625 48.390625 
Q 53.609375 43.453125 53.609375 33.015625 
L 53.609375 5.171875 
L 61.625 5.171875 
L 61.625 0 
L 36.8125 0 
L 36.8125 5.171875 
L 44.578125 5.171875 
L 44.578125 30.171875 
Q 44.578125 39.703125 42.25 43.1875 
Q 39.9375 46.6875 33.984375 46.6875 
Q 27.734375 46.6875 24.453125 42.140625 
Q 21.1875 37.59375 21.1875 28.90625 
L 21.1875 5.171875 
L 29 5.171875 
L 29 0 
z
" id="DejaVuSerif-104"/>
       <path d="M 5.609375 2.875 
L 5.609375 14.984375 
L 10.796875 14.984375 
Q 10.984375 9.1875 14.421875 6.296875 
Q 17.875 3.421875 24.609375 3.421875 
Q 30.671875 3.421875 33.84375 5.6875 
Q 37.015625 7.953125 37.015625 12.3125 
Q 37.015625 15.71875 34.6875 17.8125 
Q 32.375 19.921875 24.90625 22.3125 
L 18.40625 24.515625 
Q 11.71875 26.65625 8.71875 29.875 
Q 5.71875 33.109375 5.71875 38.09375 
Q 5.71875 45.21875 10.9375 49.265625 
Q 16.15625 53.328125 25.390625 53.328125 
Q 29.5 53.328125 34.03125 52.25 
Q 38.578125 51.171875 43.40625 49.125 
L 43.40625 37.796875 
L 38.234375 37.796875 
Q 38.03125 42.828125 34.703125 45.65625 
Q 31.390625 48.484375 25.6875 48.484375 
Q 20.015625 48.484375 17.109375 46.484375 
Q 14.203125 44.484375 14.203125 40.484375 
Q 14.203125 37.203125 16.40625 35.21875 
Q 18.609375 33.25 25.203125 31.203125 
L 32.328125 29 
Q 39.703125 26.703125 42.9375 23.265625 
Q 46.1875 19.828125 46.1875 14.40625 
Q 46.1875 7.03125 40.546875 2.796875 
Q 34.90625 -1.421875 25 -1.421875 
Q 19.96875 -1.421875 15.1875 -0.34375 
Q 10.40625 0.734375 5.609375 2.875 
z
" id="DejaVuSerif-115"/>
      </defs>
      <use xlink:href="#DejaVuSerif-69"/>
      <use x="72.998047" xlink:href="#DejaVuSerif-112"/>
      <use x="137.011719" xlink:href="#DejaVuSerif-111"/>
      <use x="197.216797" xlink:href="#DejaVuSerif-99"/>
      <use x="253.222656" xlink:href="#DejaVuSerif-104"/>
      <use x="317.626953" xlink:href="#DejaVuSerif-115"/>
     </g>
    </g>
   </g>
   <g id="matplotlib.axis_2">
    <g id="ytick_1">
     <g id="line2d_13">
      <path clip-path="url(#pe24c0c6207)" d="M 56.5325 178.079063 
L 335.5325 178.079063 
" style="fill:none;stroke:#b0b0b0;stroke-linecap:square;stroke-width:0.8;"/>
     </g>
     <g id="line2d_14">
      <defs>
       <path d="M 0 0 
L -3.5 0 
" id="m5d10923ad4" style="stroke:#000000;stroke-width:0.8;"/>
      </defs>
      <g>
       <use style="stroke:#000000;stroke-width:0.8;" x="56.5325" xlink:href="#m5d10923ad4" y="178.079063"/>
      </g>
     </g>
     <g id="text_8">
      <!-- 0.00 -->
      <g transform="translate(22.81375 182.638125)scale(0.12 -0.12)">
       <defs>
        <path d="M 9.421875 5.078125 
Q 9.421875 7.8125 11.28125 9.71875 
Q 13.140625 11.625 15.921875 11.625 
Q 18.609375 11.625 20.5 9.71875 
Q 22.40625 7.8125 22.40625 5.078125 
Q 22.40625 2.390625 20.5 0.484375 
Q 18.609375 -1.421875 15.921875 -1.421875 
Q 13.140625 -1.421875 11.28125 0.453125 
Q 9.421875 2.34375 9.421875 5.078125 
z
" id="DejaVuSerif-46"/>
       </defs>
       <use xlink:href="#DejaVuSerif-48"/>
       <use x="63.623047" xlink:href="#DejaVuSerif-46"/>
       <use x="95.410156" xlink:href="#DejaVuSerif-48"/>
       <use x="159.033203" xlink:href="#DejaVuSerif-48"/>
      </g>
     </g>
    </g>
    <g id="ytick_2">
     <g id="line2d_15">
      <path clip-path="url(#pe24c0c6207)" d="M 56.5325 150.359063 
L 335.5325 150.359063 
" style="fill:none;stroke:#b0b0b0;stroke-linecap:square;stroke-width:0.8;"/>
     </g>
     <g id="line2d_16">
      <g>
       <use style="stroke:#000000;stroke-width:0.8;" x="56.5325" xlink:href="#m5d10923ad4" y="150.359063"/>
      </g>
     </g>
     <g id="text_9">
      <!-- 0.05 -->
      <g transform="translate(22.81375 154.918125)scale(0.12 -0.12)">
       <use xlink:href="#DejaVuSerif-48"/>
       <use x="63.623047" xlink:href="#DejaVuSerif-46"/>
       <use x="95.410156" xlink:href="#DejaVuSerif-48"/>
       <use x="159.033203" xlink:href="#DejaVuSerif-53"/>
      </g>
     </g>
    </g>
    <g id="ytick_3">
     <g id="line2d_17">
      <path clip-path="url(#pe24c0c6207)" d="M 56.5325 122.639063 
L 335.5325 122.639063 
" style="fill:none;stroke:#b0b0b0;stroke-linecap:square;stroke-width:0.8;"/>
     </g>
     <g id="line2d_18">
      <g>
       <use style="stroke:#000000;stroke-width:0.8;" x="56.5325" xlink:href="#m5d10923ad4" y="122.639063"/>
      </g>
     </g>
     <g id="text_10">
      <!-- 0.10 -->
      <g transform="translate(22.81375 127.198125)scale(0.12 -0.12)">
       <use xlink:href="#DejaVuSerif-48"/>
       <use x="63.623047" xlink:href="#DejaVuSerif-46"/>
       <use x="95.410156" xlink:href="#DejaVuSerif-49"/>
       <use x="159.033203" xlink:href="#DejaVuSerif-48"/>
      </g>
     </g>
    </g>
    <g id="ytick_4">
     <g id="line2d_19">
      <path clip-path="url(#pe24c0c6207)" d="M 56.5325 94.919063 
L 335.5325 94.919063 
" style="fill:none;stroke:#b0b0b0;stroke-linecap:square;stroke-width:0.8;"/>
     </g>
     <g id="line2d_20">
      <g>
       <use style="stroke:#000000;stroke-width:0.8;" x="56.5325" xlink:href="#m5d10923ad4" y="94.919063"/>
      </g>
     </g>
     <g id="text_11">
      <!-- 0.15 -->
      <g transform="translate(22.81375 99.478125)scale(0.12 -0.12)">
       <use xlink:href="#DejaVuSerif-48"/>
       <use x="63.623047" xlink:href="#DejaVuSerif-46"/>
       <use x="95.410156" xlink:href="#DejaVuSerif-49"/>
       <use x="159.033203" xlink:href="#DejaVuSerif-53"/>
      </g>
     </g>
    </g>
    <g id="ytick_5">
     <g id="line2d_21">
      <path clip-path="url(#pe24c0c6207)" d="M 56.5325 67.199063 
L 335.5325 67.199063 
" style="fill:none;stroke:#b0b0b0;stroke-linecap:square;stroke-width:0.8;"/>
     </g>
     <g id="line2d_22">
      <g>
       <use style="stroke:#000000;stroke-width:0.8;" x="56.5325" xlink:href="#m5d10923ad4" y="67.199063"/>
      </g>
     </g>
     <g id="text_12">
      <!-- 0.20 -->
      <g transform="translate(22.81375 71.758125)scale(0.12 -0.12)">
       <use xlink:href="#DejaVuSerif-48"/>
       <use x="63.623047" xlink:href="#DejaVuSerif-46"/>
       <use x="95.410156" xlink:href="#DejaVuSerif-50"/>
       <use x="159.033203" xlink:href="#DejaVuSerif-48"/>
      </g>
     </g>
    </g>
    <g id="ytick_6">
     <g id="line2d_23">
      <path clip-path="url(#pe24c0c6207)" d="M 56.5325 39.479063 
L 335.5325 39.479063 
" style="fill:none;stroke:#b0b0b0;stroke-linecap:square;stroke-width:0.8;"/>
     </g>
     <g id="line2d_24">
      <g>
       <use style="stroke:#000000;stroke-width:0.8;" x="56.5325" xlink:href="#m5d10923ad4" y="39.479063"/>
      </g>
     </g>
     <g id="text_13">
      <!-- 0.25 -->
      <g transform="translate(22.81375 44.038125)scale(0.12 -0.12)">
       <use xlink:href="#DejaVuSerif-48"/>
       <use x="63.623047" xlink:href="#DejaVuSerif-46"/>
       <use x="95.410156" xlink:href="#DejaVuSerif-50"/>
       <use x="159.033203" xlink:href="#DejaVuSerif-53"/>
      </g>
     </g>
    </g>
    <g id="ytick_7">
     <g id="line2d_25">
      <path clip-path="url(#pe24c0c6207)" d="M 56.5325 11.759063 
L 335.5325 11.759063 
" style="fill:none;stroke:#b0b0b0;stroke-linecap:square;stroke-width:0.8;"/>
     </g>
     <g id="line2d_26">
      <g>
       <use style="stroke:#000000;stroke-width:0.8;" x="56.5325" xlink:href="#m5d10923ad4" y="11.759063"/>
      </g>
     </g>
     <g id="text_14">
      <!-- 0.30 -->
      <g transform="translate(22.81375 16.318125)scale(0.12 -0.12)">
       <use xlink:href="#DejaVuSerif-48"/>
       <use x="63.623047" xlink:href="#DejaVuSerif-46"/>
       <use x="95.410156" xlink:href="#DejaVuSerif-51"/>
       <use x="159.033203" xlink:href="#DejaVuSerif-48"/>
      </g>
     </g>
    </g>
    <g id="text_15">
     <!-- Loss -->
     <g transform="translate(16.318125 108.673125)rotate(-90)scale(0.12 -0.12)">
      <defs>
       <path d="M 5.515625 0 
L 5.515625 5.171875 
L 14.796875 5.171875 
L 14.796875 67.671875 
L 5.515625 67.671875 
L 5.515625 72.90625 
L 33.984375 72.90625 
L 33.984375 67.671875 
L 24.703125 67.671875 
L 24.703125 6 
L 58.015625 6 
L 58.015625 18.21875 
L 64.015625 18.21875 
L 64.015625 0 
z
" id="DejaVuSerif-76"/>
      </defs>
      <use xlink:href="#DejaVuSerif-76"/>
      <use x="66.40625" xlink:href="#DejaVuSerif-111"/>
      <use x="126.611328" xlink:href="#DejaVuSerif-115"/>
      <use x="177.929688" xlink:href="#DejaVuSerif-115"/>
     </g>
    </g>
   </g>
   <g id="line2d_27">
    <path clip-path="url(#pe24c0c6207)" d="M 73.913371 -1 
L 74.390571 13.185601 
L 79.566823 69.678595 
L 84.743075 68.113419 
L 89.919327 90.323269 
L 95.09558 103.591919 
L 100.271832 110.380092 
L 105.448084 101.204679 
L 110.624337 104.994605 
L 115.800589 127.097939 
L 120.976841 115.287681 
L 126.153094 114.405017 
L 131.329346 101.238021 
L 136.505598 98.501233 
L 141.681851 100.951985 
L 146.858103 103.937799 
L 152.034355 129.66579 
L 157.210608 128.051534 
L 162.38686 121.746806 
L 167.563112 134.190674 
L 172.739365 108.711238 
L 177.915617 116.170217 
L 183.091869 134.277821 
L 188.268122 133.802703 
L 193.444374 101.805227 
L 198.620626 136.563465 
L 203.796878 142.697706 
L 208.973131 149.572362 
L 214.149383 124.774034 
L 219.325635 145.741881 
L 224.501888 144.330122 
L 229.67814 106.123358 
L 234.854392 126.212776 
L 240.030645 114.456269 
L 245.206897 123.155994 
L 250.383149 117.02521 
L 255.559402 121.990966 
L 260.735654 131.142757 
L 265.911906 133.195025 
L 271.088159 130.858278 
L 276.264411 132.647956 
L 281.440663 129.057517 
L 286.616916 112.874195 
L 291.793168 136.732109 
L 296.96942 135.643704 
L 302.145673 138.162322 
L 307.321925 146.053168 
L 312.498177 118.158218 
L 317.674429 133.733524 
L 322.850682 139.391345 
" style="fill:none;stroke:#4682b4;stroke-linecap:square;"/>
   </g>
   <g id="line2d_28">
    <path clip-path="url(#pe24c0c6207)" d="M 69.214318 -0.82023 
L 74.390571 61.436946 
L 79.566823 88.045292 
L 84.743075 110.931986 
L 89.919327 110.786853 
L 95.09558 125.787031 
L 100.271832 126.444503 
L 105.448084 126.520093 
L 110.624337 131.221977 
L 115.800589 130.619888 
L 120.976841 127.74223 
L 126.153094 124.212449 
L 131.329346 128.764158 
L 136.505598 133.017959 
L 141.681851 136.247995 
L 146.858103 130.114927 
L 152.034355 133.083297 
L 157.210608 135.937762 
L 162.38686 139.507531 
L 167.563112 137.79973 
L 172.739365 132.100362 
L 177.915617 138.570806 
L 183.091869 143.974323 
L 188.268122 137.81885 
L 193.444374 134.626374 
L 198.620626 134.597803 
L 203.796878 135.807978 
L 208.973131 142.612583 
L 214.149383 143.034582 
L 219.325635 134.031683 
L 224.501888 143.804912 
L 229.67814 136.994874 
L 234.854392 144.423507 
L 240.030645 142.148188 
L 245.206897 137.54932 
L 250.383149 139.672012 
L 255.559402 145.885317 
L 260.735654 144.049336 
L 265.911906 146.224394 
L 271.088159 144.786176 
L 276.264411 136.71346 
L 281.440663 142.631898 
L 286.616916 135.125929 
L 291.793168 138.515575 
L 296.96942 145.431525 
L 302.145673 142.368646 
L 307.321925 146.04465 
L 312.498177 141.411854 
L 317.674429 148.435509 
L 322.850682 139.065705 
" style="fill:none;stroke:#4682b4;stroke-dasharray:1,1.65;stroke-dashoffset:0;"/>
   </g>
   <g id="line2d_29">
    <path clip-path="url(#pe24c0c6207)" d="M 84.000625 -1 
L 84.743075 0.964207 
L 89.919327 28.752815 
L 95.09558 69.989225 
L 100.271832 72.958566 
L 105.448084 62.486052 
L 110.624337 58.791196 
L 115.800589 103.362893 
L 120.976841 77.881913 
L 126.153094 80.107093 
L 131.329346 85.166675 
L 136.505598 56.793736 
L 141.681851 69.903655 
L 146.858103 72.679196 
L 152.034355 94.201061 
L 157.210608 83.890881 
L 162.38686 97.091739 
L 167.563112 114.146127 
L 172.739365 95.573817 
L 177.915617 98.658262 
L 183.091869 116.603658 
L 188.268122 109.229154 
L 193.444374 82.543074 
L 198.620626 103.769551 
L 203.796878 115.970288 
L 208.973131 126.654486 
L 214.149383 124.167661 
L 219.325635 129.625434 
L 224.501888 138.879246 
L 229.67814 104.845135 
L 234.854392 104.209758 
L 240.030645 102.777389 
L 245.206897 115.694648 
L 250.383149 117.90084 
L 255.559402 114.686472 
L 260.735654 119.577703 
L 265.911906 124.580193 
L 271.088159 120.433977 
L 276.264411 109.255251 
L 281.440663 116.193964 
L 286.616916 104.909614 
L 291.793168 125.966158 
L 296.96942 118.000788 
L 302.145673 136.614338 
L 307.321925 130.026127 
L 312.498177 100.251575 
L 317.674429 118.267675 
L 322.850682 132.139574 
" style="fill:none;stroke:#ff7f50;stroke-linecap:square;"/>
   </g>
   <g id="line2d_30">
    <path clip-path="url(#pe24c0c6207)" d="M 76.456934 -1 
L 79.566823 68.212165 
L 84.743075 95.180915 
L 89.919327 89.441005 
L 95.09558 120.305086 
L 100.271832 118.239702 
L 105.448084 127.545494 
L 110.624337 108.219597 
L 115.800589 127.586742 
L 120.976841 131.193142 
L 126.153094 128.679588 
L 131.329346 124.821387 
L 136.505598 95.10525 
L 141.681851 121.811661 
L 146.858103 102.532428 
L 152.034355 133.414245 
L 157.210608 137.516891 
L 162.38686 127.896161 
L 167.563112 134.831731 
L 172.739365 129.769678 
L 177.915617 136.867634 
L 183.091869 142.301495 
L 188.268122 137.842894 
L 193.444374 139.488018 
L 198.620626 132.727883 
L 203.796878 142.026054 
L 208.973131 141.422519 
L 214.149383 127.843942 
L 219.325635 142.132475 
L 224.501888 142.774085 
L 229.67814 128.771613 
L 234.854392 137.370168 
L 240.030645 140.089227 
L 245.206897 145.558528 
L 250.383149 142.138332 
L 255.559402 141.839867 
L 260.735654 143.594154 
L 265.911906 146.647171 
L 271.088159 146.414655 
L 276.264411 140.977996 
L 281.440663 137.232672 
L 286.616916 98.241773 
L 291.793168 148.518867 
L 296.96942 143.405291 
L 302.145673 147.465121 
L 307.321925 148.179802 
L 312.498177 101.017819 
L 317.674429 144.361209 
L 322.850682 148.80444 
" style="fill:none;stroke:#ff7f50;stroke-dasharray:1,1.65;stroke-dashoffset:0;"/>
   </g>
   <g id="patch_3">
    <path d="M 56.5325 178.079063 
L 56.5325 11.759063 
" style="fill:none;stroke:#000000;stroke-linecap:square;stroke-linejoin:miter;stroke-width:0.8;"/>
   </g>
   <g id="patch_4">
    <path d="M 335.5325 178.079063 
L 335.5325 11.759063 
" style="fill:none;stroke:#000000;stroke-linecap:square;stroke-linejoin:miter;stroke-width:0.8;"/>
   </g>
   <g id="patch_5">
    <path d="M 56.5325 178.079063 
L 335.5325 178.079063 
" style="fill:none;stroke:#000000;stroke-linecap:square;stroke-linejoin:miter;stroke-width:0.8;"/>
   </g>
   <g id="patch_6">
    <path d="M 56.5325 11.759063 
L 335.5325 11.759063 
" style="fill:none;stroke:#000000;stroke-linecap:square;stroke-linejoin:miter;stroke-width:0.8;"/>
   </g>
   <g id="legend_1">
    <g id="patch_7">
     <path d="M 219.164375 56.586563 
L 327.1325 56.586563 
Q 329.5325 56.586563 329.5325 54.186563 
L 329.5325 20.159063 
Q 329.5325 17.759063 327.1325 17.759063 
L 219.164375 17.759063 
Q 216.764375 17.759063 216.764375 20.159063 
L 216.764375 54.186563 
Q 216.764375 56.586563 219.164375 56.586563 
z
" style="fill:#ffffff;opacity:0.8;stroke:#cccccc;stroke-linejoin:miter;"/>
    </g>
    <g id="line2d_31">
     <path d="M 221.564375 27.477188 
L 245.564375 27.477188 
" style="fill:none;stroke:#4682b4;stroke-linecap:square;"/>
    </g>
    <g id="line2d_32"/>
    <g id="text_16">
     <!-- without BN -->
     <g transform="translate(255.164375 31.677188)scale(0.12 -0.12)">
      <defs>
       <path d="M 48 51.90625 
L 61.28125 11.375 
L 73 46.6875 
L 65.484375 46.6875 
L 65.484375 51.90625 
L 84.28125 51.90625 
L 84.28125 46.6875 
L 78.515625 46.6875 
L 63.09375 0 
L 55.609375 0 
L 42.828125 38.8125 
L 29.984375 0 
L 22.796875 0 
L 7.421875 46.6875 
L 1.609375 46.6875 
L 1.609375 51.90625 
L 25.09375 51.90625 
L 25.09375 46.6875 
L 16.703125 46.6875 
L 28.328125 11.375 
L 41.703125 51.90625 
z
" id="DejaVuSerif-119"/>
       <path d="M 9.71875 68.015625 
Q 9.71875 70.265625 11.34375 71.921875 
Q 12.984375 73.578125 15.28125 73.578125 
Q 17.53125 73.578125 19.15625 71.921875 
Q 20.796875 70.265625 20.796875 68.015625 
Q 20.796875 65.71875 19.1875 64.109375 
Q 17.578125 62.5 15.28125 62.5 
Q 12.984375 62.5 11.34375 64.109375 
Q 9.71875 65.71875 9.71875 68.015625 
z
M 21.1875 5.171875 
L 29.6875 5.171875 
L 29.6875 0 
L 3.609375 0 
L 3.609375 5.171875 
L 12.203125 5.171875 
L 12.203125 46.6875 
L 3.609375 46.6875 
L 3.609375 51.90625 
L 21.1875 51.90625 
z
" id="DejaVuSerif-105"/>
       <path d="M 10.796875 46.6875 
L 2.875 46.6875 
L 2.875 51.90625 
L 10.796875 51.90625 
L 10.796875 68.015625 
L 19.828125 68.015625 
L 19.828125 51.90625 
L 36.71875 51.90625 
L 36.71875 46.6875 
L 19.828125 46.6875 
L 19.828125 13.71875 
Q 19.828125 7.125 21.09375 5.265625 
Q 22.359375 3.421875 25.78125 3.421875 
Q 29.296875 3.421875 30.90625 5.484375 
Q 32.515625 7.5625 32.625 12.203125 
L 39.40625 12.203125 
Q 39.015625 5.125 35.546875 1.84375 
Q 32.078125 -1.421875 25 -1.421875 
Q 17.234375 -1.421875 14.015625 2.015625 
Q 10.796875 5.46875 10.796875 13.71875 
z
" id="DejaVuSerif-116"/>
       <path d="M 35.40625 51.90625 
L 52.203125 51.90625 
L 52.203125 5.171875 
L 60.6875 5.171875 
L 60.6875 0 
L 43.21875 0 
L 43.21875 9.1875 
Q 40.71875 4 36.765625 1.28125 
Q 32.8125 -1.421875 27.59375 -1.421875 
Q 18.953125 -1.421875 14.875 3.484375 
Q 10.796875 8.40625 10.796875 18.890625 
L 10.796875 46.6875 
L 2.6875 46.6875 
L 2.6875 51.90625 
L 19.828125 51.90625 
L 19.828125 21.6875 
Q 19.828125 12.203125 22.140625 8.6875 
Q 24.46875 5.171875 30.421875 5.171875 
Q 36.671875 5.171875 39.9375 9.765625 
Q 43.21875 14.359375 43.21875 23.09375 
L 43.21875 46.6875 
L 35.40625 46.6875 
z
" id="DejaVuSerif-117"/>
       <path id="DejaVuSerif-32"/>
       <path d="M 24.703125 5.171875 
L 39.3125 5.171875 
Q 48.09375 5.171875 52.140625 8.984375 
Q 56.203125 12.796875 56.203125 21.09375 
Q 56.203125 29.34375 52.171875 33.125 
Q 48.140625 36.921875 39.3125 36.921875 
L 24.703125 36.921875 
z
M 24.703125 42.09375 
L 37.109375 42.09375 
Q 45.125 42.09375 48.796875 45.171875 
Q 52.484375 48.25 52.484375 54.890625 
Q 52.484375 61.578125 48.796875 64.625 
Q 45.125 67.671875 37.109375 67.671875 
L 24.703125 67.671875 
z
M 5.515625 0 
L 5.515625 5.171875 
L 14.796875 5.171875 
L 14.796875 67.671875 
L 5.515625 67.671875 
L 5.515625 72.90625 
L 41.5 72.90625 
Q 52.546875 72.90625 58.125 68.390625 
Q 63.71875 63.875 63.71875 54.890625 
Q 63.71875 48.390625 59.828125 44.53125 
Q 55.953125 40.671875 48.484375 39.796875 
Q 57.765625 38.625 62.578125 33.859375 
Q 67.390625 29.109375 67.390625 21.09375 
Q 67.390625 10.25 60.546875 5.125 
Q 53.71875 0 39.203125 0 
z
" id="DejaVuSerif-66"/>
       <path d="M 4.890625 0 
L 4.890625 5.171875 
L 14.703125 5.171875 
L 14.703125 67.671875 
L 4.890625 67.671875 
L 4.890625 72.90625 
L 23.578125 72.90625 
L 67.28125 15.375 
L 67.28125 67.671875 
L 57.515625 67.671875 
L 57.515625 72.90625 
L 83.109375 72.90625 
L 83.109375 67.671875 
L 73.296875 67.671875 
L 73.296875 -1.421875 
L 67.390625 -1.421875 
L 20.703125 60.015625 
L 20.703125 5.171875 
L 30.515625 5.171875 
L 30.515625 0 
z
" id="DejaVuSerif-78"/>
      </defs>
      <use xlink:href="#DejaVuSerif-119"/>
      <use x="85.595703" xlink:href="#DejaVuSerif-105"/>
      <use x="117.578125" xlink:href="#DejaVuSerif-116"/>
      <use x="157.763672" xlink:href="#DejaVuSerif-104"/>
      <use x="222.167969" xlink:href="#DejaVuSerif-111"/>
      <use x="282.373047" xlink:href="#DejaVuSerif-117"/>
      <use x="346.777344" xlink:href="#DejaVuSerif-116"/>
      <use x="386.962891" xlink:href="#DejaVuSerif-32"/>
      <use x="418.75" xlink:href="#DejaVuSerif-66"/>
      <use x="492.236328" xlink:href="#DejaVuSerif-78"/>
     </g>
    </g>
    <g id="line2d_33">
     <path d="M 221.564375 45.090938 
L 245.564375 45.090938 
" style="fill:none;stroke:#ff7f50;stroke-linecap:square;"/>
    </g>
    <g id="line2d_34"/>
    <g id="text_17">
     <!-- with BN -->
     <g transform="translate(255.164375 49.290938)scale(0.12 -0.12)">
      <use xlink:href="#DejaVuSerif-119"/>
      <use x="85.595703" xlink:href="#DejaVuSerif-105"/>
      <use x="117.578125" xlink:href="#DejaVuSerif-116"/>
      <use x="157.763672" xlink:href="#DejaVuSerif-104"/>
      <use x="222.167969" xlink:href="#DejaVuSerif-32"/>
      <use x="253.955078" xlink:href="#DejaVuSerif-66"/>
      <use x="327.441406" xlink:href="#DejaVuSerif-78"/>
     </g>
    </g>
   </g>
   <g id="legend_2">
    <g id="patch_8">
     <path d="M 64.9325 172.079063 
L 150.483125 172.079063 
Q 152.883125 172.079063 152.883125 169.679063 
L 152.883125 135.317813 
Q 152.883125 132.917813 150.483125 132.917813 
L 64.9325 132.917813 
Q 62.5325 132.917813 62.5325 135.317813 
L 62.5325 169.679063 
Q 62.5325 172.079063 64.9325 172.079063 
z
" style="fill:#ffffff;opacity:0.8;stroke:#cccccc;stroke-linejoin:miter;"/>
    </g>
    <g id="line2d_35">
     <path d="M 67.3325 142.635938 
L 91.3325 142.635938 
" style="fill:none;stroke:#000000;stroke-linecap:square;"/>
    </g>
    <g id="line2d_36"/>
    <g id="text_18">
     <!-- loss -->
     <g transform="translate(100.9325 146.835938)scale(0.12 -0.12)">
      <defs>
       <path d="M 20.515625 5.171875 
L 29 5.171875 
L 29 0 
L 2.875 0 
L 2.875 5.171875 
L 11.53125 5.171875 
L 11.53125 70.796875 
L 2.875 70.796875 
L 2.875 75.984375 
L 20.515625 75.984375 
z
" id="DejaVuSerif-108"/>
      </defs>
      <use xlink:href="#DejaVuSerif-108"/>
      <use x="31.982422" xlink:href="#DejaVuSerif-111"/>
      <use x="92.1875" xlink:href="#DejaVuSerif-115"/>
      <use x="143.505859" xlink:href="#DejaVuSerif-115"/>
     </g>
    </g>
    <g id="line2d_37">
     <path d="M 67.3325 160.249688 
L 91.3325 160.249688 
" style="fill:none;stroke:#000000;stroke-dasharray:1,1.65;stroke-dashoffset:0;"/>
    </g>
    <g id="line2d_38"/>
    <g id="text_19">
     <!-- val_loss -->
     <g transform="translate(100.9325 164.449688)scale(0.12 -0.12)">
      <defs>
       <path d="M 24.703125 0 
L 5.609375 46.6875 
L -0.296875 46.6875 
L -0.296875 51.90625 
L 23.578125 51.90625 
L 23.578125 46.6875 
L 15.28125 46.6875 
L 29.890625 10.984375 
L 44.484375 46.6875 
L 36.71875 46.6875 
L 36.71875 51.90625 
L 56.203125 51.90625 
L 56.203125 46.6875 
L 50.390625 46.6875 
L 31.296875 0 
z
" id="DejaVuSerif-118"/>
       <path d="M 39.796875 16.3125 
L 39.796875 27.296875 
L 28.21875 27.296875 
Q 21.53125 27.296875 18.25 24.40625 
Q 14.984375 21.53125 14.984375 15.578125 
Q 14.984375 10.15625 18.296875 6.984375 
Q 21.625 3.8125 27.296875 3.8125 
Q 32.90625 3.8125 36.34375 7.28125 
Q 39.796875 10.75 39.796875 16.3125 
z
M 48.78125 32.421875 
L 48.78125 5.171875 
L 56.78125 5.171875 
L 56.78125 0 
L 39.796875 0 
L 39.796875 5.609375 
Q 36.8125 2 32.90625 0.28125 
Q 29 -1.421875 23.78125 -1.421875 
Q 15.140625 -1.421875 10.0625 3.171875 
Q 4.984375 7.765625 4.984375 15.578125 
Q 4.984375 23.640625 10.796875 28.078125 
Q 16.609375 32.515625 27.203125 32.515625 
L 39.796875 32.515625 
L 39.796875 36.078125 
Q 39.796875 42 36.203125 45.234375 
Q 32.625 48.484375 26.125 48.484375 
Q 20.75 48.484375 17.578125 46.046875 
Q 14.40625 43.609375 13.625 38.8125 
L 8.984375 38.8125 
L 8.984375 49.3125 
Q 13.671875 51.3125 18.09375 52.3125 
Q 22.515625 53.328125 26.703125 53.328125 
Q 37.5 53.328125 43.140625 47.96875 
Q 48.78125 42.625 48.78125 32.421875 
z
" id="DejaVuSerif-97"/>
       <path d="M 50 -19.671875 
L 50 -23.578125 
L 0 -23.578125 
L 0 -19.671875 
z
" id="DejaVuSerif-95"/>
      </defs>
      <use xlink:href="#DejaVuSerif-118"/>
      <use x="56.494141" xlink:href="#DejaVuSerif-97"/>
      <use x="116.113281" xlink:href="#DejaVuSerif-108"/>
      <use x="148.095703" xlink:href="#DejaVuSerif-95"/>
      <use x="198.095703" xlink:href="#DejaVuSerif-108"/>
      <use x="230.078125" xlink:href="#DejaVuSerif-111"/>
      <use x="290.283203" xlink:href="#DejaVuSerif-115"/>
      <use x="341.601562" xlink:href="#DejaVuSerif-115"/>
     </g>
    </g>
   </g>
   <g id="legend_3">
    <g id="patch_9">
     <path d="M 64.9325 172.079063 
L 150.483125 172.079063 
Q 152.883125 172.079063 152.883125 169.679063 
L 152.883125 135.317813 
Q 152.883125 132.917813 150.483125 132.917813 
L 64.9325 132.917813 
Q 62.5325 132.917813 62.5325 135.317813 
L 62.5325 169.679063 
Q 62.5325 172.079063 64.9325 172.079063 
z
" style="fill:#ffffff;opacity:0.8;stroke:#cccccc;stroke-linejoin:miter;"/>
    </g>
    <g id="line2d_39">
     <path d="M 67.3325 142.635938 
L 91.3325 142.635938 
" style="fill:none;stroke:#000000;stroke-linecap:square;"/>
    </g>
    <g id="line2d_40"/>
    <g id="text_20">
     <!-- loss -->
     <g transform="translate(100.9325 146.835938)scale(0.12 -0.12)">
      <use xlink:href="#DejaVuSerif-108"/>
      <use x="31.982422" xlink:href="#DejaVuSerif-111"/>
      <use x="92.1875" xlink:href="#DejaVuSerif-115"/>
      <use x="143.505859" xlink:href="#DejaVuSerif-115"/>
     </g>
    </g>
    <g id="line2d_41">
     <path d="M 67.3325 160.249688 
L 91.3325 160.249688 
" style="fill:none;stroke:#000000;stroke-dasharray:1,1.65;stroke-dashoffset:0;"/>
    </g>
    <g id="line2d_42"/>
    <g id="text_21">
     <!-- val_loss -->
     <g transform="translate(100.9325 164.449688)scale(0.12 -0.12)">
      <use xlink:href="#DejaVuSerif-118"/>
      <use x="56.494141" xlink:href="#DejaVuSerif-97"/>
      <use x="116.113281" xlink:href="#DejaVuSerif-108"/>
      <use x="148.095703" xlink:href="#DejaVuSerif-95"/>
      <use x="198.095703" xlink:href="#DejaVuSerif-108"/>
      <use x="230.078125" xlink:href="#DejaVuSerif-111"/>
      <use x="290.283203" xlink:href="#DejaVuSerif-115"/>
      <use x="341.601562" xlink:href="#DejaVuSerif-115"/>
     </g>
    </g>
   </g>
  </g>
 </g>
 <defs>
  <clipPath id="pe24c0c6207">
   <rect height="166.32" width="279" x="56.5325" y="11.759063"/>
  </clipPath>
 </defs>
</svg>
