<?xml version="1.0" encoding="utf-8" standalone="no"?>
<!DOCTYPE svg PUBLIC "-//W3C//DTD SVG 1.1//EN"
  "http://www.w3.org/Graphics/SVG/1.1/DTD/svg11.dtd">
<svg height="219.506563pt" version="1.1" viewBox="0 0 342.861934 219.506563" width="342.861934pt" xmlns="http://www.w3.org/2000/svg" xmlns:xlink="http://www.w3.org/1999/xlink">
 <metadata>
  <rdf:RDF xmlns:cc="http://creativecommons.org/ns#" xmlns:dc="http://purl.org/dc/elements/1.1/" xmlns:rdf="http://www.w3.org/1999/02/22-rdf-syntax-ns#">
   <cc:Work>
    <dc:type rdf:resource="http://purl.org/dc/dcmitype/StillImage"/>
    <dc:date>2021-09-25T14:43:18.351189</dc:date>
    <dc:format>image/svg+xml</dc:format>
    <dc:creator>
     <cc:Agent>
      <dc:title>Matplotlib v3.4.1, https://matplotlib.org/</dc:title>
     </cc:Agent>
    </dc:creator>
   </cc:Work>
  </rdf:RDF>
 </metadata>
 <defs>
  <style type="text/css">*{stroke-linecap:butt;stroke-linejoin:round;}</style>
 </defs>
 <g id="figure_1">
  <g id="patch_1">
   <path d="M 0 219.506563 
L 342.861934 219.506563 
L 342.861934 0 
L 0 0 
z
" style="fill:none;"/>
  </g>
  <g id="axes_1">
   <g id="patch_2">
    <path d="M 56.5325 178.079063 
L 335.5325 178.079063 
L 335.5325 11.759063 
L 56.5325 11.759063 
z
" style="fill:none;"/>
   </g>
   <g id="matplotlib.axis_1">
    <g id="xtick_1">
     <g id="line2d_1">
      <path clip-path="url(#p3339d45390)" d="M 69.214318 178.079063 
L 69.214318 11.759063 
" style="fill:none;stroke:#b0b0b0;stroke-linecap:square;stroke-width:0.8;"/>
     </g>
     <g id="line2d_2">
      <defs>
       <path d="M 0 0 
L 0 3.5 
" id="me5b834f0c5" style="stroke:#000000;stroke-width:0.8;"/>
      </defs>
      <g>
       <use style="stroke:#000000;stroke-width:0.8;" x="69.214318" xlink:href="#me5b834f0c5" y="178.079063"/>
      </g>
     </g>
     <g id="text_1">
      <!-- 0 -->
      <g transform="translate(65.396818 194.197188)scale(0.12 -0.12)">
       <defs>
        <path d="M 2034 219 
Q 2513 219 2750 744 
Q 2988 1269 2988 2328 
Q 2988 3391 2750 3916 
Q 2513 4441 2034 4441 
Q 1556 4441 1318 3916 
Q 1081 3391 1081 2328 
Q 1081 1269 1318 744 
Q 1556 219 2034 219 
z
M 2034 -91 
Q 1275 -91 848 546 
Q 422 1184 422 2328 
Q 422 3475 848 4112 
Q 1275 4750 2034 4750 
Q 2797 4750 3222 4112 
Q 3647 3475 3647 2328 
Q 3647 1184 3222 546 
Q 2797 -91 2034 -91 
z
" id="DejaVuSerif-30" transform="scale(0.015625)"/>
       </defs>
       <use xlink:href="#DejaVuSerif-30"/>
      </g>
     </g>
    </g>
    <g id="xtick_2">
     <g id="line2d_3">
      <path clip-path="url(#p3339d45390)" d="M 120.976841 178.079063 
L 120.976841 11.759063 
" style="fill:none;stroke:#b0b0b0;stroke-linecap:square;stroke-width:0.8;"/>
     </g>
     <g id="line2d_4">
      <g>
       <use style="stroke:#000000;stroke-width:0.8;" x="120.976841" xlink:href="#me5b834f0c5" y="178.079063"/>
      </g>
     </g>
     <g id="text_2">
      <!-- 10 -->
      <g transform="translate(113.341841 194.197188)scale(0.12 -0.12)">
       <defs>
        <path d="M 909 0 
L 909 331 
L 1722 331 
L 1722 4213 
L 781 3603 
L 781 4013 
L 1919 4750 
L 2350 4750 
L 2350 331 
L 3163 331 
L 3163 0 
L 909 0 
z
" id="DejaVuSerif-31" transform="scale(0.015625)"/>
       </defs>
       <use xlink:href="#DejaVuSerif-31"/>
       <use x="63.623047" xlink:href="#DejaVuSerif-30"/>
      </g>
     </g>
    </g>
    <g id="xtick_3">
     <g id="line2d_5">
      <path clip-path="url(#p3339d45390)" d="M 172.739365 178.079063 
L 172.739365 11.759063 
" style="fill:none;stroke:#b0b0b0;stroke-linecap:square;stroke-width:0.8;"/>
     </g>
     <g id="line2d_6">
      <g>
       <use style="stroke:#000000;stroke-width:0.8;" x="172.739365" xlink:href="#me5b834f0c5" y="178.079063"/>
      </g>
     </g>
     <g id="text_3">
      <!-- 20 -->
      <g transform="translate(165.104365 194.197188)scale(0.12 -0.12)">
       <defs>
        <path d="M 819 3553 
L 469 3553 
L 469 4384 
Q 803 4563 1142 4656 
Q 1481 4750 1806 4750 
Q 2534 4750 2956 4397 
Q 3378 4044 3378 3438 
Q 3378 2753 2422 1800 
Q 2347 1728 2309 1691 
L 1131 513 
L 3078 513 
L 3078 1088 
L 3444 1088 
L 3444 0 
L 434 0 
L 434 341 
L 1850 1753 
Q 2319 2222 2519 2614 
Q 2719 3006 2719 3438 
Q 2719 3909 2473 4175 
Q 2228 4441 1797 4441 
Q 1350 4441 1106 4219 
Q 863 3997 819 3553 
z
" id="DejaVuSerif-32" transform="scale(0.015625)"/>
       </defs>
       <use xlink:href="#DejaVuSerif-32"/>
       <use x="63.623047" xlink:href="#DejaVuSerif-30"/>
      </g>
     </g>
    </g>
    <g id="xtick_4">
     <g id="line2d_7">
      <path clip-path="url(#p3339d45390)" d="M 224.501888 178.079063 
L 224.501888 11.759063 
" style="fill:none;stroke:#b0b0b0;stroke-linecap:square;stroke-width:0.8;"/>
     </g>
     <g id="line2d_8">
      <g>
       <use style="stroke:#000000;stroke-width:0.8;" x="224.501888" xlink:href="#me5b834f0c5" y="178.079063"/>
      </g>
     </g>
     <g id="text_4">
      <!-- 30 -->
      <g transform="translate(216.866888 194.197188)scale(0.12 -0.12)">
       <defs>
        <path d="M 622 4469 
Q 988 4606 1323 4678 
Q 1659 4750 1953 4750 
Q 2638 4750 3022 4454 
Q 3406 4159 3406 3634 
Q 3406 3213 3140 2930 
Q 2875 2647 2388 2547 
Q 2963 2466 3280 2130 
Q 3597 1794 3597 1259 
Q 3597 606 3158 257 
Q 2719 -91 1894 -91 
Q 1528 -91 1179 -12 
Q 831 66 488 225 
L 488 1131 
L 838 1131 
Q 869 681 1141 450 
Q 1413 219 1906 219 
Q 2384 219 2661 495 
Q 2938 772 2938 1253 
Q 2938 1803 2653 2086 
Q 2369 2369 1819 2369 
L 1522 2369 
L 1522 2688 
L 1678 2688 
Q 2225 2688 2498 2914 
Q 2772 3141 2772 3597 
Q 2772 4006 2547 4223 
Q 2322 4441 1900 4441 
Q 1478 4441 1245 4241 
Q 1013 4041 972 3647 
L 622 3647 
L 622 4469 
z
" id="DejaVuSerif-33" transform="scale(0.015625)"/>
       </defs>
       <use xlink:href="#DejaVuSerif-33"/>
       <use x="63.623047" xlink:href="#DejaVuSerif-30"/>
      </g>
     </g>
    </g>
    <g id="xtick_5">
     <g id="line2d_9">
      <path clip-path="url(#p3339d45390)" d="M 276.264411 178.079063 
L 276.264411 11.759063 
" style="fill:none;stroke:#b0b0b0;stroke-linecap:square;stroke-width:0.8;"/>
     </g>
     <g id="line2d_10">
      <g>
       <use style="stroke:#000000;stroke-width:0.8;" x="276.264411" xlink:href="#me5b834f0c5" y="178.079063"/>
      </g>
     </g>
     <g id="text_5">
      <!-- 40 -->
      <g transform="translate(268.629411 194.197188)scale(0.12 -0.12)">
       <defs>
        <path d="M 2234 1581 
L 2234 4063 
L 641 1581 
L 2234 1581 
z
M 3609 0 
L 1484 0 
L 1484 331 
L 2234 331 
L 2234 1247 
L 197 1247 
L 197 1588 
L 2241 4750 
L 2859 4750 
L 2859 1581 
L 3750 1581 
L 3750 1247 
L 2859 1247 
L 2859 331 
L 3609 331 
L 3609 0 
z
" id="DejaVuSerif-34" transform="scale(0.015625)"/>
       </defs>
       <use xlink:href="#DejaVuSerif-34"/>
       <use x="63.623047" xlink:href="#DejaVuSerif-30"/>
      </g>
     </g>
    </g>
    <g id="xtick_6">
     <g id="line2d_11">
      <path clip-path="url(#p3339d45390)" d="M 328.026934 178.079063 
L 328.026934 11.759063 
" style="fill:none;stroke:#b0b0b0;stroke-linecap:square;stroke-width:0.8;"/>
     </g>
     <g id="line2d_12">
      <g>
       <use style="stroke:#000000;stroke-width:0.8;" x="328.026934" xlink:href="#me5b834f0c5" y="178.079063"/>
      </g>
     </g>
     <g id="text_6">
      <!-- 50 -->
      <g transform="translate(320.391934 194.197188)scale(0.12 -0.12)">
       <defs>
        <path d="M 3219 4666 
L 3219 4153 
L 1081 4153 
L 1081 2816 
Q 1244 2928 1461 2984 
Q 1678 3041 1947 3041 
Q 2703 3041 3140 2622 
Q 3578 2203 3578 1478 
Q 3578 738 3136 323 
Q 2694 -91 1894 -91 
Q 1572 -91 1234 -12 
Q 897 66 544 225 
L 544 1131 
L 897 1131 
Q 925 688 1179 453 
Q 1434 219 1894 219 
Q 2388 219 2653 544 
Q 2919 869 2919 1478 
Q 2919 2084 2655 2407 
Q 2391 2731 1894 2731 
Q 1613 2731 1398 2631 
Q 1184 2531 1019 2322 
L 750 2322 
L 750 4666 
L 3219 4666 
z
" id="DejaVuSerif-35" transform="scale(0.015625)"/>
       </defs>
       <use xlink:href="#DejaVuSerif-35"/>
       <use x="63.623047" xlink:href="#DejaVuSerif-30"/>
      </g>
     </g>
    </g>
    <g id="text_7">
     <!-- Epochs -->
     <g transform="translate(173.89625 209.810938)scale(0.12 -0.12)">
      <defs>
       <path d="M 353 0 
L 353 331 
L 947 331 
L 947 4331 
L 353 4331 
L 353 4666 
L 4109 4666 
L 4109 3628 
L 3725 3628 
L 3725 4281 
L 1581 4281 
L 1581 2719 
L 3109 2719 
L 3109 3303 
L 3494 3303 
L 3494 1753 
L 3109 1753 
L 3109 2338 
L 1581 2338 
L 1581 384 
L 3775 384 
L 3775 1038 
L 4159 1038 
L 4159 0 
L 353 0 
z
" id="DejaVuSerif-45" transform="scale(0.015625)"/>
       <path d="M 1313 1825 
L 1313 1497 
Q 1313 897 1542 583 
Q 1772 269 2209 269 
Q 2650 269 2876 622 
Q 3103 975 3103 1663 
Q 3103 2353 2876 2703 
Q 2650 3053 2209 3053 
Q 1772 3053 1542 2737 
Q 1313 2422 1313 1825 
z
M 738 2988 
L 184 2988 
L 184 3322 
L 1313 3322 
L 1313 2803 
Q 1481 3116 1742 3264 
Q 2003 3413 2388 3413 
Q 3000 3413 3387 2928 
Q 3775 2444 3775 1663 
Q 3775 881 3387 395 
Q 3000 -91 2388 -91 
Q 2003 -91 1742 57 
Q 1481 206 1313 519 
L 1313 -997 
L 1856 -997 
L 1856 -1331 
L 184 -1331 
L 184 -997 
L 738 -997 
L 738 2988 
z
" id="DejaVuSerif-70" transform="scale(0.015625)"/>
       <path d="M 1925 219 
Q 2388 219 2623 584 
Q 2859 950 2859 1663 
Q 2859 2375 2623 2739 
Q 2388 3103 1925 3103 
Q 1463 3103 1227 2739 
Q 991 2375 991 1663 
Q 991 950 1228 584 
Q 1466 219 1925 219 
z
M 1925 -91 
Q 1200 -91 759 389 
Q 319 869 319 1663 
Q 319 2456 758 2934 
Q 1197 3413 1925 3413 
Q 2653 3413 3092 2934 
Q 3531 2456 3531 1663 
Q 3531 869 3092 389 
Q 2653 -91 1925 -91 
z
" id="DejaVuSerif-6f" transform="scale(0.015625)"/>
       <path d="M 3291 997 
Q 3169 466 2822 187 
Q 2475 -91 1925 -91 
Q 1200 -91 759 389 
Q 319 869 319 1663 
Q 319 2459 759 2936 
Q 1200 3413 1925 3413 
Q 2241 3413 2553 3339 
Q 2866 3266 3181 3116 
L 3181 2266 
L 2847 2266 
Q 2781 2703 2561 2903 
Q 2341 3103 1931 3103 
Q 1466 3103 1228 2742 
Q 991 2381 991 1663 
Q 991 944 1227 581 
Q 1463 219 1931 219 
Q 2303 219 2525 412 
Q 2747 606 2828 997 
L 3291 997 
z
" id="DejaVuSerif-63" transform="scale(0.015625)"/>
       <path d="M 263 0 
L 263 331 
L 781 331 
L 781 4531 
L 231 4531 
L 231 4863 
L 1356 4863 
L 1356 2731 
Q 1516 3069 1770 3241 
Q 2025 3413 2363 3413 
Q 2913 3413 3172 3097 
Q 3431 2781 3431 2113 
L 3431 331 
L 3944 331 
L 3944 0 
L 2356 0 
L 2356 331 
L 2853 331 
L 2853 1931 
Q 2853 2541 2704 2764 
Q 2556 2988 2175 2988 
Q 1775 2988 1565 2697 
Q 1356 2406 1356 1850 
L 1356 331 
L 1856 331 
L 1856 0 
L 263 0 
z
" id="DejaVuSerif-68" transform="scale(0.015625)"/>
       <path d="M 359 184 
L 359 959 
L 691 959 
Q 703 588 923 403 
Q 1144 219 1575 219 
Q 1963 219 2166 364 
Q 2369 509 2369 788 
Q 2369 1006 2220 1140 
Q 2072 1275 1594 1428 
L 1178 1569 
Q 750 1706 558 1912 
Q 366 2119 366 2438 
Q 366 2894 700 3153 
Q 1034 3413 1625 3413 
Q 1888 3413 2178 3344 
Q 2469 3275 2778 3144 
L 2778 2419 
L 2447 2419 
Q 2434 2741 2221 2922 
Q 2009 3103 1644 3103 
Q 1281 3103 1095 2975 
Q 909 2847 909 2591 
Q 909 2381 1050 2254 
Q 1191 2128 1613 1997 
L 2069 1856 
Q 2541 1709 2748 1489 
Q 2956 1269 2956 922 
Q 2956 450 2595 179 
Q 2234 -91 1600 -91 
Q 1278 -91 972 -22 
Q 666 47 359 184 
z
" id="DejaVuSerif-73" transform="scale(0.015625)"/>
      </defs>
      <use xlink:href="#DejaVuSerif-45"/>
      <use x="72.998047" xlink:href="#DejaVuSerif-70"/>
      <use x="137.011719" xlink:href="#DejaVuSerif-6f"/>
      <use x="197.216797" xlink:href="#DejaVuSerif-63"/>
      <use x="253.222656" xlink:href="#DejaVuSerif-68"/>
      <use x="317.626953" xlink:href="#DejaVuSerif-73"/>
     </g>
    </g>
   </g>
   <g id="matplotlib.axis_2">
    <g id="ytick_1">
     <g id="line2d_13">
      <path clip-path="url(#p3339d45390)" d="M 56.5325 178.079063 
L 335.5325 178.079063 
" style="fill:none;stroke:#b0b0b0;stroke-linecap:square;stroke-width:0.8;"/>
     </g>
     <g id="line2d_14">
      <defs>
       <path d="M 0 0 
L -3.5 0 
" id="m6b5d55a76b" style="stroke:#000000;stroke-width:0.8;"/>
      </defs>
      <g>
       <use style="stroke:#000000;stroke-width:0.8;" x="56.5325" xlink:href="#m6b5d55a76b" y="178.079063"/>
      </g>
     </g>
     <g id="text_8">
      <!-- 0.00 -->
      <g transform="translate(22.81375 182.638125)scale(0.12 -0.12)">
       <defs>
        <path d="M 603 325 
Q 603 500 722 622 
Q 841 744 1019 744 
Q 1191 744 1312 622 
Q 1434 500 1434 325 
Q 1434 153 1312 31 
Q 1191 -91 1019 -91 
Q 841 -91 722 29 
Q 603 150 603 325 
z
" id="DejaVuSerif-2e" transform="scale(0.015625)"/>
       </defs>
       <use xlink:href="#DejaVuSerif-30"/>
       <use x="63.623047" xlink:href="#DejaVuSerif-2e"/>
       <use x="95.410156" xlink:href="#DejaVuSerif-30"/>
       <use x="159.033203" xlink:href="#DejaVuSerif-30"/>
      </g>
     </g>
    </g>
    <g id="ytick_2">
     <g id="line2d_15">
      <path clip-path="url(#p3339d45390)" d="M 56.5325 150.359063 
L 335.5325 150.359063 
" style="fill:none;stroke:#b0b0b0;stroke-linecap:square;stroke-width:0.8;"/>
     </g>
     <g id="line2d_16">
      <g>
       <use style="stroke:#000000;stroke-width:0.8;" x="56.5325" xlink:href="#m6b5d55a76b" y="150.359063"/>
      </g>
     </g>
     <g id="text_9">
      <!-- 0.05 -->
      <g transform="translate(22.81375 154.918125)scale(0.12 -0.12)">
       <use xlink:href="#DejaVuSerif-30"/>
       <use x="63.623047" xlink:href="#DejaVuSerif-2e"/>
       <use x="95.410156" xlink:href="#DejaVuSerif-30"/>
       <use x="159.033203" xlink:href="#DejaVuSerif-35"/>
      </g>
     </g>
    </g>
    <g id="ytick_3">
     <g id="line2d_17">
      <path clip-path="url(#p3339d45390)" d="M 56.5325 122.639063 
L 335.5325 122.639063 
" style="fill:none;stroke:#b0b0b0;stroke-linecap:square;stroke-width:0.8;"/>
     </g>
     <g id="line2d_18">
      <g>
       <use style="stroke:#000000;stroke-width:0.8;" x="56.5325" xlink:href="#m6b5d55a76b" y="122.639063"/>
      </g>
     </g>
     <g id="text_10">
      <!-- 0.10 -->
      <g transform="translate(22.81375 127.198125)scale(0.12 -0.12)">
       <use xlink:href="#DejaVuSerif-30"/>
       <use x="63.623047" xlink:href="#DejaVuSerif-2e"/>
       <use x="95.410156" xlink:href="#DejaVuSerif-31"/>
       <use x="159.033203" xlink:href="#DejaVuSerif-30"/>
      </g>
     </g>
    </g>
    <g id="ytick_4">
     <g id="line2d_19">
      <path clip-path="url(#p3339d45390)" d="M 56.5325 94.919063 
L 335.5325 94.919063 
" style="fill:none;stroke:#b0b0b0;stroke-linecap:square;stroke-width:0.8;"/>
     </g>
     <g id="line2d_20">
      <g>
       <use style="stroke:#000000;stroke-width:0.8;" x="56.5325" xlink:href="#m6b5d55a76b" y="94.919063"/>
      </g>
     </g>
     <g id="text_11">
      <!-- 0.15 -->
      <g transform="translate(22.81375 99.478125)scale(0.12 -0.12)">
       <use xlink:href="#DejaVuSerif-30"/>
       <use x="63.623047" xlink:href="#DejaVuSerif-2e"/>
       <use x="95.410156" xlink:href="#DejaVuSerif-31"/>
       <use x="159.033203" xlink:href="#DejaVuSerif-35"/>
      </g>
     </g>
    </g>
    <g id="ytick_5">
     <g id="line2d_21">
      <path clip-path="url(#p3339d45390)" d="M 56.5325 67.199063 
L 335.5325 67.199063 
" style="fill:none;stroke:#b0b0b0;stroke-linecap:square;stroke-width:0.8;"/>
     </g>
     <g id="line2d_22">
      <g>
       <use style="stroke:#000000;stroke-width:0.8;" x="56.5325" xlink:href="#m6b5d55a76b" y="67.199063"/>
      </g>
     </g>
     <g id="text_12">
      <!-- 0.20 -->
      <g transform="translate(22.81375 71.758125)scale(0.12 -0.12)">
       <use xlink:href="#DejaVuSerif-30"/>
       <use x="63.623047" xlink:href="#DejaVuSerif-2e"/>
       <use x="95.410156" xlink:href="#DejaVuSerif-32"/>
       <use x="159.033203" xlink:href="#DejaVuSerif-30"/>
      </g>
     </g>
    </g>
    <g id="ytick_6">
     <g id="line2d_23">
      <path clip-path="url(#p3339d45390)" d="M 56.5325 39.479063 
L 335.5325 39.479063 
" style="fill:none;stroke:#b0b0b0;stroke-linecap:square;stroke-width:0.8;"/>
     </g>
     <g id="line2d_24">
      <g>
       <use style="stroke:#000000;stroke-width:0.8;" x="56.5325" xlink:href="#m6b5d55a76b" y="39.479063"/>
      </g>
     </g>
     <g id="text_13">
      <!-- 0.25 -->
      <g transform="translate(22.81375 44.038125)scale(0.12 -0.12)">
       <use xlink:href="#DejaVuSerif-30"/>
       <use x="63.623047" xlink:href="#DejaVuSerif-2e"/>
       <use x="95.410156" xlink:href="#DejaVuSerif-32"/>
       <use x="159.033203" xlink:href="#DejaVuSerif-35"/>
      </g>
     </g>
    </g>
    <g id="ytick_7">
     <g id="line2d_25">
      <path clip-path="url(#p3339d45390)" d="M 56.5325 11.759063 
L 335.5325 11.759063 
" style="fill:none;stroke:#b0b0b0;stroke-linecap:square;stroke-width:0.8;"/>
     </g>
     <g id="line2d_26">
      <g>
       <use style="stroke:#000000;stroke-width:0.8;" x="56.5325" xlink:href="#m6b5d55a76b" y="11.759063"/>
      </g>
     </g>
     <g id="text_14">
      <!-- 0.30 -->
      <g transform="translate(22.81375 16.318125)scale(0.12 -0.12)">
       <use xlink:href="#DejaVuSerif-30"/>
       <use x="63.623047" xlink:href="#DejaVuSerif-2e"/>
       <use x="95.410156" xlink:href="#DejaVuSerif-33"/>
       <use x="159.033203" xlink:href="#DejaVuSerif-30"/>
      </g>
     </g>
    </g>
    <g id="text_15">
     <!-- Loss -->
     <g transform="translate(16.318125 108.673125)rotate(-90)scale(0.12 -0.12)">
      <defs>
       <path d="M 353 0 
L 353 331 
L 947 331 
L 947 4331 
L 353 4331 
L 353 4666 
L 2175 4666 
L 2175 4331 
L 1581 4331 
L 1581 384 
L 3713 384 
L 3713 1166 
L 4097 1166 
L 4097 0 
L 353 0 
z
" id="DejaVuSerif-4c" transform="scale(0.015625)"/>
      </defs>
      <use xlink:href="#DejaVuSerif-4c"/>
      <use x="66.40625" xlink:href="#DejaVuSerif-6f"/>
      <use x="126.611328" xlink:href="#DejaVuSerif-73"/>
      <use x="177.929688" xlink:href="#DejaVuSerif-73"/>
     </g>
    </g>
   </g>
   <g id="line2d_27">
    <path clip-path="url(#p3339d45390)" d="M 74.567041 -1 
L 79.566823 32.447555 
L 84.743075 41.969609 
L 89.919327 47.214738 
L 95.09558 84.592331 
L 100.271832 82.277104 
L 105.448084 83.169769 
L 110.624337 79.151098 
L 115.800589 118.444287 
L 120.976841 102.828683 
L 126.153094 101.164455 
L 131.329346 96.284578 
L 136.505598 88.514569 
L 141.681851 97.774363 
L 146.858103 98.122415 
L 152.034355 124.404733 
L 157.210608 110.547555 
L 162.38686 125.129786 
L 167.563112 130.364266 
L 172.739365 111.604262 
L 177.915617 115.666077 
L 183.091869 129.26522 
L 188.268122 119.330623 
L 193.444374 98.063273 
L 198.620626 130.022075 
L 203.796878 143.470722 
L 208.973131 143.700439 
L 214.149383 132.378476 
L 219.325635 146.991135 
L 224.501888 148.681493 
L 229.67814 119.204524 
L 234.854392 128.082282 
L 240.030645 121.296207 
L 245.206897 132.069548 
L 250.383149 128.976491 
L 255.559402 127.213166 
L 260.735654 130.995344 
L 265.911906 136.082543 
L 271.088159 130.211277 
L 276.264411 130.379921 
L 281.440663 135.170234 
L 286.616916 120.720149 
L 291.793168 142.670143 
L 296.96942 137.855646 
L 302.145673 144.857156 
L 307.321925 142.471886 
L 312.498177 118.547783 
L 317.674429 135.358523 
L 322.850682 143.291348 
" style="fill:none;stroke:#4682b4;stroke-linecap:square;"/>
   </g>
   <g id="line2d_28">
    <path clip-path="url(#p3339d45390)" d="M 74.211211 -1 
L 74.390571 9.249286 
L 79.566823 46.385123 
L 84.743075 78.048409 
L 89.919327 87.703063 
L 95.09558 94.821222 
L 100.271832 117.473736 
L 105.448084 120.872003 
L 110.624337 126.594117 
L 115.800589 133.880111 
L 120.976841 134.945983 
L 126.153094 129.974267 
L 131.329346 132.462831 
L 136.505598 131.372604 
L 141.681851 139.593154 
L 146.858103 135.274837 
L 152.034355 137.031107 
L 157.210608 145.033229 
L 162.38686 145.60743 
L 167.563112 143.856652 
L 172.739365 145.002035 
L 177.915617 147.803089 
L 183.091869 142.545663 
L 188.268122 146.478477 
L 193.444374 130.498759 
L 198.620626 144.662716 
L 203.796878 148.098202 
L 208.973131 147.708705 
L 214.149383 150.991183 
L 219.325635 148.577434 
L 224.501888 150.671672 
L 229.67814 151.513737 
L 234.854392 147.701164 
L 240.030645 149.399482 
L 245.206897 149.746258 
L 250.383149 149.372681 
L 255.559402 149.063073 
L 260.735654 151.738702 
L 265.911906 151.99805 
L 271.088159 150.392353 
L 276.264411 150.803719 
L 281.440663 151.520432 
L 286.616916 152.50832 
L 291.793168 154.673534 
L 296.96942 151.20774 
L 302.145673 153.784072 
L 307.321925 155.058739 
L 312.498177 152.835666 
L 317.674429 148.818932 
L 322.850682 154.311139 
" style="fill:none;stroke:#4682b4;stroke-dasharray:1,1.65;stroke-dashoffset:0;"/>
   </g>
   <g id="line2d_29">
    <path clip-path="url(#p3339d45390)" d="M 73.181216 -1 
L 74.390571 40.130062 
L 79.566823 83.932327 
L 84.743075 69.721429 
L 89.919327 90.823055 
L 95.09558 115.209241 
L 100.271832 118.252594 
L 105.448084 111.785447 
L 110.624337 114.046208 
L 115.800589 141.150813 
L 120.976841 125.662567 
L 126.153094 126.740766 
L 131.329346 116.791517 
L 136.505598 101.5477 
L 141.681851 113.501786 
L 146.858103 118.741029 
L 152.034355 129.268988 
L 157.210608 125.742242 
L 162.38686 138.720205 
L 167.563112 144.020924 
L 172.739365 126.414605 
L 177.915617 127.765746 
L 183.091869 146.163168 
L 188.268122 137.679174 
L 193.444374 119.32615 
L 198.620626 144.999478 
L 203.796878 156.906642 
L 208.973131 154.890496 
L 214.149383 141.732913 
L 219.325635 157.718925 
L 224.501888 154.521484 
L 229.67814 120.257125 
L 234.854392 137.867211 
L 240.030645 132.679369 
L 245.206897 139.260975 
L 250.383149 134.921159 
L 255.559402 136.541606 
L 260.735654 140.11266 
L 265.911906 144.806767 
L 271.088159 142.158572 
L 276.264411 147.189996 
L 281.440663 143.145654 
L 286.616916 132.453648 
L 291.793168 151.148166 
L 296.96942 149.405277 
L 302.145673 153.904911 
L 307.321925 153.267175 
L 312.498177 136.186201 
L 317.674429 148.144925 
L 322.850682 153.416377 
" style="fill:none;stroke:#ff7f50;stroke-linecap:square;"/>
   </g>
   <g id="line2d_30">
    <path clip-path="url(#p3339d45390)" d="M 69.214318 30.289812 
L 74.390571 91.967025 
L 79.566823 105.756272 
L 84.743075 125.246971 
L 89.919327 127.61602 
L 95.09558 136.492547 
L 100.271832 141.443945 
L 105.448084 141.691607 
L 110.624337 132.236404 
L 115.800589 140.598113 
L 120.976841 147.055636 
L 126.153094 145.702513 
L 131.329346 140.168444 
L 136.505598 137.017674 
L 141.681851 136.958107 
L 146.858103 123.357423 
L 152.034355 141.234569 
L 157.210608 151.361609 
L 162.38686 149.128645 
L 167.563112 149.910731 
L 172.739365 147.180128 
L 177.915617 152.637897 
L 183.091869 149.166258 
L 188.268122 147.634127 
L 193.444374 145.752317 
L 198.620626 149.461156 
L 203.796878 153.595826 
L 208.973131 150.570978 
L 214.149383 152.177345 
L 219.325635 150.456627 
L 224.501888 155.978948 
L 229.67814 146.696569 
L 234.854392 152.54583 
L 240.030645 152.037216 
L 245.206897 153.609325 
L 250.383149 149.005288 
L 255.559402 152.783484 
L 260.735654 150.359436 
L 265.911906 156.60623 
L 271.088159 156.6471 
L 276.264411 156.540559 
L 281.440663 150.636975 
L 286.616916 151.645811 
L 291.793168 154.746823 
L 296.96942 153.195016 
L 302.145673 153.443959 
L 307.321925 158.35136 
L 312.498177 151.578961 
L 317.674429 158.483877 
L 322.850682 159.740027 
" style="fill:none;stroke:#ff7f50;stroke-dasharray:1,1.65;stroke-dashoffset:0;"/>
   </g>
   <g id="line2d_31">
    <path clip-path="url(#p3339d45390)" d="M 74.108394 -1 
L 74.390571 7.780989 
L 79.566823 46.364792 
L 84.743075 39.391262 
L 89.919327 66.657944 
L 95.09558 93.472316 
L 100.271832 97.581744 
L 105.448084 88.800134 
L 110.624337 87.034368 
L 115.800589 126.811593 
L 120.976841 107.662809 
L 126.153094 112.427751 
L 131.329346 101.90033 
L 136.505598 82.80003 
L 141.681851 98.35596 
L 146.858103 104.024294 
L 152.034355 123.540342 
L 157.210608 110.861691 
L 162.38686 119.386502 
L 167.563112 129.11834 
L 172.739365 105.19275 
L 177.915617 114.619502 
L 183.091869 124.294574 
L 188.268122 121.435041 
L 193.444374 99.160857 
L 198.620626 121.625379 
L 203.796878 134.381979 
L 208.973131 133.565722 
L 214.149383 123.619398 
L 219.325635 139.358573 
L 224.501888 143.525355 
L 229.67814 109.409483 
L 234.854392 117.636816 
L 240.030645 111.78681 
L 245.206897 126.813646 
L 250.383149 121.876296 
L 255.559402 121.141334 
L 260.735654 130.026342 
L 265.911906 129.731962 
L 271.088159 128.184143 
L 276.264411 129.060309 
L 281.440663 124.814299 
L 286.616916 112.310892 
L 291.793168 138.039329 
L 296.96942 125.210688 
L 302.145673 138.458214 
L 307.321925 127.692543 
L 312.498177 111.074545 
L 317.674429 130.364985 
L 322.850682 141.470302 
" style="fill:none;stroke:#2ca02c;stroke-linecap:square;"/>
   </g>
   <g id="line2d_32">
    <path clip-path="url(#p3339d45390)" d="M 72.713785 -1 
L 74.390571 34.791259 
L 79.566823 34.799718 
L 84.743075 91.15143 
L 89.919327 107.883565 
L 95.09558 116.179536 
L 100.271832 120.687959 
L 105.448084 128.576067 
L 110.624337 124.083434 
L 115.800589 140.61224 
L 120.976841 144.104474 
L 126.153094 144.407718 
L 131.329346 136.716644 
L 136.505598 127.642253 
L 141.681851 146.682738 
L 146.858103 137.970765 
L 152.034355 146.968334 
L 157.210608 144.686087 
L 162.38686 139.421243 
L 167.563112 140.057707 
L 172.739365 147.205841 
L 177.915617 144.492176 
L 183.091869 142.080442 
L 188.268122 127.074647 
L 193.444374 138.922233 
L 198.620626 146.327246 
L 203.796878 144.28627 
L 208.973131 145.285144 
L 214.149383 142.822356 
L 219.325635 138.69688 
L 224.501888 151.070882 
L 229.67814 148.494486 
L 234.854392 144.86539 
L 240.030645 148.975641 
L 245.206897 146.281623 
L 250.383149 148.688236 
L 255.559402 151.511548 
L 260.735654 148.378174 
L 265.911906 152.770819 
L 271.088159 154.839724 
L 276.264411 148.017924 
L 281.440663 151.888471 
L 286.616916 143.975566 
L 291.793168 153.487359 
L 296.96942 146.980341 
L 302.145673 144.952051 
L 307.321925 152.945195 
L 312.498177 147.603909 
L 317.674429 147.975098 
L 322.850682 153.132524 
" style="fill:none;stroke:#2ca02c;stroke-dasharray:1,1.65;stroke-dashoffset:0;"/>
   </g>
   <g id="line2d_33">
    <path clip-path="url(#p3339d45390)" d="M 74.978888 -1 
L 79.566823 59.881642 
L 84.743075 61.363107 
L 89.919327 77.368107 
L 95.09558 104.641439 
L 100.271832 95.030139 
L 105.448084 110.565259 
L 110.624337 121.359496 
L 115.800589 117.399695 
L 120.976841 132.476416 
L 126.153094 139.813906 
L 131.329346 132.158451 
L 136.505598 136.116716 
L 141.681851 129.974494 
L 146.858103 131.742528 
L 152.034355 142.843719 
L 157.210608 137.88021 
L 162.38686 151.742349 
L 167.563112 139.196575 
L 172.739365 148.93026 
L 177.915617 146.126924 
L 183.091869 141.653664 
L 188.268122 152.284796 
L 193.444374 142.918004 
L 198.620626 150.826723 
L 203.796878 157.221091 
L 208.973131 156.046124 
L 214.149383 159.188292 
L 219.325635 154.668017 
" style="fill:none;stroke:#d62728;stroke-linecap:square;"/>
   </g>
   <g id="line2d_34">
    <path clip-path="url(#p3339d45390)" d="M 83.133124 -1 
L 84.743075 37.67541 
L 89.919327 72.091222 
L 95.09558 96.73426 
L 100.271832 77.697878 
L 105.448084 133.228706 
L 110.624337 134.75776 
L 115.800589 136.129 
L 120.976841 139.690438 
L 126.153094 142.810348 
L 131.329346 139.40446 
L 136.505598 133.397755 
L 141.681851 143.725047 
L 146.858103 144.135053 
L 152.034355 149.036491 
L 157.210608 142.483539 
L 162.38686 148.540862 
L 167.563112 136.324477 
L 172.739365 147.591538 
L 177.915617 143.562452 
L 183.091869 145.205888 
L 188.268122 133.479186 
L 193.444374 147.768557 
L 198.620626 156.851453 
L 203.796878 151.974952 
L 208.973131 157.782225 
L 214.149383 156.953264 
L 219.325635 157.664407 
" style="fill:none;stroke:#d62728;stroke-dasharray:1,1.65;stroke-dashoffset:0;"/>
   </g>
   <g id="patch_3">
    <path d="M 56.5325 178.079063 
L 56.5325 11.759063 
" style="fill:none;stroke:#000000;stroke-linecap:square;stroke-linejoin:miter;stroke-width:0.8;"/>
   </g>
   <g id="patch_4">
    <path d="M 335.5325 178.079063 
L 335.5325 11.759063 
" style="fill:none;stroke:#000000;stroke-linecap:square;stroke-linejoin:miter;stroke-width:0.8;"/>
   </g>
   <g id="patch_5">
    <path d="M 56.5325 178.079063 
L 335.5325 178.079063 
" style="fill:none;stroke:#000000;stroke-linecap:square;stroke-linejoin:miter;stroke-width:0.8;"/>
   </g>
   <g id="patch_6">
    <path d="M 56.5325 11.759063 
L 335.5325 11.759063 
" style="fill:none;stroke:#000000;stroke-linecap:square;stroke-linejoin:miter;stroke-width:0.8;"/>
   </g>
   <g id="legend_1">
    <g id="patch_7">
     <path d="M 149.770625 91.984688 
L 327.1325 91.984688 
Q 329.5325 91.984688 329.5325 89.584688 
L 329.5325 20.159063 
Q 329.5325 17.759063 327.1325 17.759063 
L 149.770625 17.759063 
Q 147.370625 17.759063 147.370625 20.159063 
L 147.370625 89.584688 
Q 147.370625 91.984688 149.770625 91.984688 
z
" style="fill:#ffffff;opacity:0.8;stroke:#cccccc;stroke-linejoin:miter;"/>
    </g>
    <g id="line2d_35">
     <path d="M 152.170625 27.477188 
L 176.170625 27.477188 
" style="fill:none;stroke:#4682b4;stroke-linecap:square;"/>
    </g>
    <g id="line2d_36"/>
    <g id="text_16">
     <!-- Add Upsampling -->
     <g transform="translate(185.770625 31.677188)scale(0.12 -0.12)">
      <defs>
       <path d="M 1281 1691 
L 2994 1691 
L 2138 3909 
L 1281 1691 
z
M -38 0 
L -38 331 
L 372 331 
L 2034 4666 
L 2559 4666 
L 4225 331 
L 4684 331 
L 4684 0 
L 2988 0 
L 2988 331 
L 3506 331 
L 3116 1356 
L 1153 1356 
L 763 331 
L 1275 331 
L 1275 0 
L -38 0 
z
" id="DejaVuSerif-41" transform="scale(0.015625)"/>
       <path d="M 3359 331 
L 3909 331 
L 3909 0 
L 2784 0 
L 2784 519 
Q 2616 206 2355 57 
Q 2094 -91 1709 -91 
Q 1097 -91 708 395 
Q 319 881 319 1663 
Q 319 2444 706 2928 
Q 1094 3413 1709 3413 
Q 2094 3413 2355 3264 
Q 2616 3116 2784 2803 
L 2784 4531 
L 2241 4531 
L 2241 4863 
L 3359 4863 
L 3359 331 
z
M 2784 1497 
L 2784 1825 
Q 2784 2422 2554 2737 
Q 2325 3053 1888 3053 
Q 1444 3053 1217 2703 
Q 991 2353 991 1663 
Q 991 975 1217 622 
Q 1444 269 1888 269 
Q 2325 269 2554 583 
Q 2784 897 2784 1497 
z
" id="DejaVuSerif-64" transform="scale(0.015625)"/>
       <path id="DejaVuSerif-20" transform="scale(0.015625)"/>
       <path d="M 897 4331 
L 300 4331 
L 300 4666 
L 2125 4666 
L 2125 4331 
L 1528 4331 
L 1528 1919 
Q 1528 1025 1820 672 
Q 2113 319 2828 319 
Q 3544 319 3836 672 
Q 4128 1025 4128 1919 
L 4128 4331 
L 3531 4331 
L 3531 4666 
L 5106 4666 
L 5106 4331 
L 4513 4331 
L 4513 1856 
Q 4513 791 4103 350 
Q 3694 -91 2713 -91 
Q 1731 -91 1314 353 
Q 897 797 897 1856 
L 897 4331 
z
" id="DejaVuSerif-55" transform="scale(0.015625)"/>
       <path d="M 2547 1044 
L 2547 1747 
L 1806 1747 
Q 1378 1747 1168 1562 
Q 959 1378 959 997 
Q 959 650 1171 447 
Q 1384 244 1747 244 
Q 2106 244 2326 466 
Q 2547 688 2547 1044 
z
M 3122 2075 
L 3122 331 
L 3634 331 
L 3634 0 
L 2547 0 
L 2547 359 
Q 2356 128 2106 18 
Q 1856 -91 1522 -91 
Q 969 -91 644 203 
Q 319 497 319 997 
Q 319 1513 691 1797 
Q 1063 2081 1741 2081 
L 2547 2081 
L 2547 2309 
Q 2547 2688 2317 2895 
Q 2088 3103 1672 3103 
Q 1328 3103 1125 2947 
Q 922 2791 872 2484 
L 575 2484 
L 575 3156 
Q 875 3284 1158 3348 
Q 1441 3413 1709 3413 
Q 2400 3413 2761 3070 
Q 3122 2728 3122 2075 
z
" id="DejaVuSerif-61" transform="scale(0.015625)"/>
       <path d="M 3316 2675 
Q 3481 3041 3739 3227 
Q 3997 3413 4341 3413 
Q 4863 3413 5119 3089 
Q 5375 2766 5375 2113 
L 5375 331 
L 5894 331 
L 5894 0 
L 4300 0 
L 4300 331 
L 4800 331 
L 4800 2047 
Q 4800 2556 4650 2772 
Q 4500 2988 4153 2988 
Q 3769 2988 3567 2697 
Q 3366 2406 3366 1850 
L 3366 331 
L 3866 331 
L 3866 0 
L 2291 0 
L 2291 331 
L 2791 331 
L 2791 2069 
Q 2791 2566 2641 2777 
Q 2491 2988 2144 2988 
Q 1759 2988 1557 2697 
Q 1356 2406 1356 1850 
L 1356 331 
L 1856 331 
L 1856 0 
L 263 0 
L 263 331 
L 781 331 
L 781 2994 
L 231 2994 
L 231 3322 
L 1356 3322 
L 1356 2731 
Q 1516 3063 1762 3238 
Q 2009 3413 2322 3413 
Q 2709 3413 2968 3220 
Q 3228 3028 3316 2675 
z
" id="DejaVuSerif-6d" transform="scale(0.015625)"/>
       <path d="M 1313 331 
L 1856 331 
L 1856 0 
L 184 0 
L 184 331 
L 738 331 
L 738 4531 
L 184 4531 
L 184 4863 
L 1313 4863 
L 1313 331 
z
" id="DejaVuSerif-6c" transform="scale(0.015625)"/>
       <path d="M 622 4353 
Q 622 4497 726 4603 
Q 831 4709 978 4709 
Q 1122 4709 1226 4603 
Q 1331 4497 1331 4353 
Q 1331 4206 1228 4103 
Q 1125 4000 978 4000 
Q 831 4000 726 4103 
Q 622 4206 622 4353 
z
M 1356 331 
L 1900 331 
L 1900 0 
L 231 0 
L 231 331 
L 781 331 
L 781 2988 
L 231 2988 
L 231 3322 
L 1356 3322 
L 1356 331 
z
" id="DejaVuSerif-69" transform="scale(0.015625)"/>
       <path d="M 263 0 
L 263 331 
L 781 331 
L 781 2988 
L 231 2988 
L 231 3322 
L 1356 3322 
L 1356 2731 
Q 1516 3069 1770 3241 
Q 2025 3413 2363 3413 
Q 2913 3413 3172 3097 
Q 3431 2781 3431 2113 
L 3431 331 
L 3944 331 
L 3944 0 
L 2356 0 
L 2356 331 
L 2853 331 
L 2853 1931 
Q 2853 2541 2703 2767 
Q 2553 2994 2175 2994 
Q 1775 2994 1565 2701 
Q 1356 2409 1356 1850 
L 1356 331 
L 1856 331 
L 1856 0 
L 263 0 
z
" id="DejaVuSerif-6e" transform="scale(0.015625)"/>
       <path d="M 3359 2988 
L 3359 72 
Q 3359 -644 2965 -1033 
Q 2572 -1422 1844 -1422 
Q 1516 -1422 1216 -1362 
Q 916 -1303 641 -1184 
L 641 -488 
L 941 -488 
Q 997 -813 1206 -963 
Q 1416 -1113 1806 -1113 
Q 2313 -1113 2548 -827 
Q 2784 -541 2784 72 
L 2784 519 
Q 2616 206 2355 57 
Q 2094 -91 1709 -91 
Q 1097 -91 708 395 
Q 319 881 319 1663 
Q 319 2444 706 2928 
Q 1094 3413 1709 3413 
Q 2094 3413 2355 3264 
Q 2616 3116 2784 2803 
L 2784 3322 
L 3909 3322 
L 3909 2988 
L 3359 2988 
z
M 2784 1825 
Q 2784 2422 2554 2737 
Q 2325 3053 1888 3053 
Q 1444 3053 1217 2703 
Q 991 2353 991 1663 
Q 991 975 1217 622 
Q 1444 269 1888 269 
Q 2325 269 2554 583 
Q 2784 897 2784 1497 
L 2784 1825 
z
" id="DejaVuSerif-67" transform="scale(0.015625)"/>
      </defs>
      <use xlink:href="#DejaVuSerif-41"/>
      <use x="72.216797" xlink:href="#DejaVuSerif-64"/>
      <use x="136.230469" xlink:href="#DejaVuSerif-64"/>
      <use x="200.244141" xlink:href="#DejaVuSerif-20"/>
      <use x="232.03125" xlink:href="#DejaVuSerif-55"/>
      <use x="316.308594" xlink:href="#DejaVuSerif-70"/>
      <use x="380.322266" xlink:href="#DejaVuSerif-73"/>
      <use x="431.640625" xlink:href="#DejaVuSerif-61"/>
      <use x="491.259766" xlink:href="#DejaVuSerif-6d"/>
      <use x="586.083984" xlink:href="#DejaVuSerif-70"/>
      <use x="650.097656" xlink:href="#DejaVuSerif-6c"/>
      <use x="682.080078" xlink:href="#DejaVuSerif-69"/>
      <use x="714.0625" xlink:href="#DejaVuSerif-6e"/>
      <use x="778.466797" xlink:href="#DejaVuSerif-67"/>
     </g>
    </g>
    <g id="line2d_37">
     <path d="M 152.170625 45.261563 
L 176.170625 45.261563 
" style="fill:none;stroke:#ff7f50;stroke-linecap:square;"/>
    </g>
    <g id="line2d_38"/>
    <g id="text_17">
     <!-- Add Conv2DTranspose -->
     <g transform="translate(185.770625 49.461563)scale(0.12 -0.12)">
      <defs>
       <path d="M 4513 1234 
Q 4306 581 3820 245 
Q 3334 -91 2591 -91 
Q 2134 -91 1743 65 
Q 1353 222 1050 525 
Q 700 875 529 1320 
Q 359 1766 359 2328 
Q 359 3416 987 4083 
Q 1616 4750 2644 4750 
Q 3025 4750 3456 4650 
Q 3888 4550 4384 4347 
L 4384 3272 
L 4031 3272 
Q 3916 3859 3567 4137 
Q 3219 4416 2591 4416 
Q 1844 4416 1459 3886 
Q 1075 3356 1075 2328 
Q 1075 1303 1459 773 
Q 1844 244 2591 244 
Q 3113 244 3450 492 
Q 3788 741 3938 1234 
L 4513 1234 
z
" id="DejaVuSerif-43" transform="scale(0.015625)"/>
       <path d="M 1581 0 
L 359 2988 
L -19 2988 
L -19 3322 
L 1509 3322 
L 1509 2988 
L 978 2988 
L 1913 703 
L 2847 2988 
L 2350 2988 
L 2350 3322 
L 3597 3322 
L 3597 2988 
L 3225 2988 
L 2003 0 
L 1581 0 
z
" id="DejaVuSerif-76" transform="scale(0.015625)"/>
       <path d="M 1581 331 
L 2163 331 
Q 3072 331 3558 850 
Q 4044 1369 4044 2338 
Q 4044 3306 3559 3818 
Q 3075 4331 2163 4331 
L 1581 4331 
L 1581 331 
z
M 353 0 
L 353 331 
L 947 331 
L 947 4331 
L 353 4331 
L 353 4666 
L 2209 4666 
Q 3416 4666 4089 4050 
Q 4763 3434 4763 2338 
Q 4763 1238 4088 619 
Q 3413 0 2209 0 
L 353 0 
z
" id="DejaVuSerif-44" transform="scale(0.015625)"/>
       <path d="M 1222 0 
L 1222 331 
L 1819 331 
L 1819 4294 
L 447 4294 
L 447 3566 
L 63 3566 
L 63 4666 
L 4206 4666 
L 4206 3566 
L 3822 3566 
L 3822 4294 
L 2450 4294 
L 2450 331 
L 3047 331 
L 3047 0 
L 1222 0 
z
" id="DejaVuSerif-54" transform="scale(0.015625)"/>
       <path d="M 3059 3328 
L 3059 2497 
L 2728 2497 
Q 2713 2744 2591 2866 
Q 2469 2988 2234 2988 
Q 1809 2988 1582 2694 
Q 1356 2400 1356 1850 
L 1356 331 
L 2022 331 
L 2022 0 
L 263 0 
L 263 331 
L 781 331 
L 781 2994 
L 231 2994 
L 231 3322 
L 1356 3322 
L 1356 2731 
Q 1525 3078 1790 3245 
Q 2056 3413 2438 3413 
Q 2578 3413 2733 3391 
Q 2888 3369 3059 3328 
z
" id="DejaVuSerif-72" transform="scale(0.015625)"/>
       <path d="M 3469 1600 
L 991 1600 
L 991 1575 
Q 991 903 1244 561 
Q 1497 219 1991 219 
Q 2369 219 2611 417 
Q 2853 616 2950 1006 
L 3413 1006 
Q 3275 459 2904 184 
Q 2534 -91 1931 -91 
Q 1203 -91 761 389 
Q 319 869 319 1663 
Q 319 2450 753 2931 
Q 1188 3413 1894 3413 
Q 2647 3413 3050 2948 
Q 3453 2484 3469 1600 
z
M 2791 1931 
Q 2772 2513 2545 2808 
Q 2319 3103 1894 3103 
Q 1497 3103 1269 2806 
Q 1041 2509 991 1931 
L 2791 1931 
z
" id="DejaVuSerif-65" transform="scale(0.015625)"/>
      </defs>
      <use xlink:href="#DejaVuSerif-41"/>
      <use x="72.216797" xlink:href="#DejaVuSerif-64"/>
      <use x="136.230469" xlink:href="#DejaVuSerif-64"/>
      <use x="200.244141" xlink:href="#DejaVuSerif-20"/>
      <use x="232.03125" xlink:href="#DejaVuSerif-43"/>
      <use x="308.544922" xlink:href="#DejaVuSerif-6f"/>
      <use x="368.75" xlink:href="#DejaVuSerif-6e"/>
      <use x="433.154297" xlink:href="#DejaVuSerif-76"/>
      <use x="489.648438" xlink:href="#DejaVuSerif-32"/>
      <use x="553.271484" xlink:href="#DejaVuSerif-44"/>
      <use x="633.447266" xlink:href="#DejaVuSerif-54"/>
      <use x="700.146484" xlink:href="#DejaVuSerif-72"/>
      <use x="747.949219" xlink:href="#DejaVuSerif-61"/>
      <use x="807.568359" xlink:href="#DejaVuSerif-6e"/>
      <use x="871.972656" xlink:href="#DejaVuSerif-73"/>
      <use x="923.291016" xlink:href="#DejaVuSerif-70"/>
      <use x="987.304688" xlink:href="#DejaVuSerif-6f"/>
      <use x="1047.509766" xlink:href="#DejaVuSerif-73"/>
      <use x="1098.828125" xlink:href="#DejaVuSerif-65"/>
     </g>
    </g>
    <g id="line2d_39">
     <path d="M 152.170625 62.875313 
L 176.170625 62.875313 
" style="fill:none;stroke:#2ca02c;stroke-linecap:square;"/>
    </g>
    <g id="line2d_40"/>
    <g id="text_18">
     <!-- Add Dropout -->
     <g transform="translate(185.770625 67.075313)scale(0.12 -0.12)">
      <defs>
       <path d="M 2266 3322 
L 3341 3322 
L 3341 331 
L 3884 331 
L 3884 0 
L 2766 0 
L 2766 588 
Q 2606 256 2353 82 
Q 2100 -91 1766 -91 
Q 1213 -91 952 223 
Q 691 538 691 1209 
L 691 2988 
L 172 2988 
L 172 3322 
L 1269 3322 
L 1269 1388 
Q 1269 781 1417 556 
Q 1566 331 1947 331 
Q 2347 331 2556 625 
Q 2766 919 2766 1478 
L 2766 2988 
L 2266 2988 
L 2266 3322 
z
" id="DejaVuSerif-75" transform="scale(0.015625)"/>
       <path d="M 691 2988 
L 184 2988 
L 184 3322 
L 691 3322 
L 691 4353 
L 1269 4353 
L 1269 3322 
L 2350 3322 
L 2350 2988 
L 1269 2988 
L 1269 878 
Q 1269 456 1350 337 
Q 1431 219 1650 219 
Q 1875 219 1978 351 
Q 2081 484 2088 781 
L 2522 781 
Q 2497 328 2275 118 
Q 2053 -91 1600 -91 
Q 1103 -91 897 129 
Q 691 350 691 878 
L 691 2988 
z
" id="DejaVuSerif-74" transform="scale(0.015625)"/>
      </defs>
      <use xlink:href="#DejaVuSerif-41"/>
      <use x="72.216797" xlink:href="#DejaVuSerif-64"/>
      <use x="136.230469" xlink:href="#DejaVuSerif-64"/>
      <use x="200.244141" xlink:href="#DejaVuSerif-20"/>
      <use x="232.03125" xlink:href="#DejaVuSerif-44"/>
      <use x="312.207031" xlink:href="#DejaVuSerif-72"/>
      <use x="360.009766" xlink:href="#DejaVuSerif-6f"/>
      <use x="420.214844" xlink:href="#DejaVuSerif-70"/>
      <use x="484.228516" xlink:href="#DejaVuSerif-6f"/>
      <use x="544.433594" xlink:href="#DejaVuSerif-75"/>
      <use x="608.837891" xlink:href="#DejaVuSerif-74"/>
     </g>
    </g>
    <g id="line2d_41">
     <path d="M 152.170625 80.489063 
L 176.170625 80.489063 
" style="fill:none;stroke:#d62728;stroke-linecap:square;"/>
    </g>
    <g id="line2d_42"/>
    <g id="text_19">
     <!-- Advanced Decoder -->
     <g transform="translate(185.770625 84.689063)scale(0.12 -0.12)">
      <use xlink:href="#DejaVuSerif-41"/>
      <use x="72.216797" xlink:href="#DejaVuSerif-64"/>
      <use x="136.230469" xlink:href="#DejaVuSerif-76"/>
      <use x="192.724609" xlink:href="#DejaVuSerif-61"/>
      <use x="252.34375" xlink:href="#DejaVuSerif-6e"/>
      <use x="316.748047" xlink:href="#DejaVuSerif-63"/>
      <use x="372.753906" xlink:href="#DejaVuSerif-65"/>
      <use x="431.933594" xlink:href="#DejaVuSerif-64"/>
      <use x="495.947266" xlink:href="#DejaVuSerif-20"/>
      <use x="527.734375" xlink:href="#DejaVuSerif-44"/>
      <use x="607.910156" xlink:href="#DejaVuSerif-65"/>
      <use x="667.089844" xlink:href="#DejaVuSerif-63"/>
      <use x="723.095703" xlink:href="#DejaVuSerif-6f"/>
      <use x="783.300781" xlink:href="#DejaVuSerif-64"/>
      <use x="847.314453" xlink:href="#DejaVuSerif-65"/>
      <use x="906.494141" xlink:href="#DejaVuSerif-72"/>
     </g>
    </g>
   </g>
   <g id="legend_2">
    <g id="patch_8">
     <path d="M 64.9325 172.079063 
L 150.483125 172.079063 
Q 152.883125 172.079063 152.883125 169.679063 
L 152.883125 135.317813 
Q 152.883125 132.917813 150.483125 132.917813 
L 64.9325 132.917813 
Q 62.5325 132.917813 62.5325 135.317813 
L 62.5325 169.679063 
Q 62.5325 172.079063 64.9325 172.079063 
z
" style="fill:#ffffff;opacity:0.8;stroke:#cccccc;stroke-linejoin:miter;"/>
    </g>
    <g id="line2d_43">
     <path d="M 67.3325 142.635938 
L 91.3325 142.635938 
" style="fill:none;stroke:#000000;stroke-linecap:square;"/>
    </g>
    <g id="line2d_44"/>
    <g id="text_20">
     <!-- loss -->
     <g transform="translate(100.9325 146.835938)scale(0.12 -0.12)">
      <use xlink:href="#DejaVuSerif-6c"/>
      <use x="31.982422" xlink:href="#DejaVuSerif-6f"/>
      <use x="92.1875" xlink:href="#DejaVuSerif-73"/>
      <use x="143.505859" xlink:href="#DejaVuSerif-73"/>
     </g>
    </g>
    <g id="line2d_45">
     <path d="M 67.3325 160.249688 
L 91.3325 160.249688 
" style="fill:none;stroke:#000000;stroke-dasharray:1,1.65;stroke-dashoffset:0;"/>
    </g>
    <g id="line2d_46"/>
    <g id="text_21">
     <!-- val_loss -->
     <g transform="translate(100.9325 164.449688)scale(0.12 -0.12)">
      <defs>
       <path d="M 3200 -1259 
L 3200 -1509 
L 0 -1509 
L 0 -1259 
L 3200 -1259 
z
" id="DejaVuSerif-5f" transform="scale(0.015625)"/>
      </defs>
      <use xlink:href="#DejaVuSerif-76"/>
      <use x="56.494141" xlink:href="#DejaVuSerif-61"/>
      <use x="116.113281" xlink:href="#DejaVuSerif-6c"/>
      <use x="148.095703" xlink:href="#DejaVuSerif-5f"/>
      <use x="198.095703" xlink:href="#DejaVuSerif-6c"/>
      <use x="230.078125" xlink:href="#DejaVuSerif-6f"/>
      <use x="290.283203" xlink:href="#DejaVuSerif-73"/>
      <use x="341.601562" xlink:href="#DejaVuSerif-73"/>
     </g>
    </g>
   </g>
   <g id="legend_3">
    <g id="patch_9">
     <path d="M 64.9325 172.079063 
L 150.483125 172.079063 
Q 152.883125 172.079063 152.883125 169.679063 
L 152.883125 135.317813 
Q 152.883125 132.917813 150.483125 132.917813 
L 64.9325 132.917813 
Q 62.5325 132.917813 62.5325 135.317813 
L 62.5325 169.679063 
Q 62.5325 172.079063 64.9325 172.079063 
z
" style="fill:#ffffff;opacity:0.8;stroke:#cccccc;stroke-linejoin:miter;"/>
    </g>
    <g id="line2d_47">
     <path d="M 67.3325 142.635938 
L 91.3325 142.635938 
" style="fill:none;stroke:#000000;stroke-linecap:square;"/>
    </g>
    <g id="line2d_48"/>
    <g id="text_22">
     <!-- loss -->
     <g transform="translate(100.9325 146.835938)scale(0.12 -0.12)">
      <use xlink:href="#DejaVuSerif-6c"/>
      <use x="31.982422" xlink:href="#DejaVuSerif-6f"/>
      <use x="92.1875" xlink:href="#DejaVuSerif-73"/>
      <use x="143.505859" xlink:href="#DejaVuSerif-73"/>
     </g>
    </g>
    <g id="line2d_49">
     <path d="M 67.3325 160.249688 
L 91.3325 160.249688 
" style="fill:none;stroke:#000000;stroke-dasharray:1,1.65;stroke-dashoffset:0;"/>
    </g>
    <g id="line2d_50"/>
    <g id="text_23">
     <!-- val_loss -->
     <g transform="translate(100.9325 164.449688)scale(0.12 -0.12)">
      <use xlink:href="#DejaVuSerif-76"/>
      <use x="56.494141" xlink:href="#DejaVuSerif-61"/>
      <use x="116.113281" xlink:href="#DejaVuSerif-6c"/>
      <use x="148.095703" xlink:href="#DejaVuSerif-5f"/>
      <use x="198.095703" xlink:href="#DejaVuSerif-6c"/>
      <use x="230.078125" xlink:href="#DejaVuSerif-6f"/>
      <use x="290.283203" xlink:href="#DejaVuSerif-73"/>
      <use x="341.601562" xlink:href="#DejaVuSerif-73"/>
     </g>
    </g>
   </g>
  </g>
 </g>
 <defs>
  <clipPath id="p3339d45390">
   <rect height="166.32" width="279" x="56.5325" y="11.759063"/>
  </clipPath>
 </defs>
</svg>
