<?xml version="1.0" encoding="utf-8" standalone="no"?>
<!DOCTYPE svg PUBLIC "-//W3C//DTD SVG 1.1//EN"
  "http://www.w3.org/Graphics/SVG/1.1/DTD/svg11.dtd">
<!-- Created with matplotlib (https://matplotlib.org/) -->
<svg height="219.506563pt" version="1.1" viewBox="0 0 342.861934 219.506563" width="342.861934pt" xmlns="http://www.w3.org/2000/svg" xmlns:xlink="http://www.w3.org/1999/xlink">
 <metadata>
  <rdf:RDF xmlns:cc="http://creativecommons.org/ns#" xmlns:dc="http://purl.org/dc/elements/1.1/" xmlns:rdf="http://www.w3.org/1999/02/22-rdf-syntax-ns#">
   <cc:Work>
    <dc:type rdf:resource="http://purl.org/dc/dcmitype/StillImage"/>
    <dc:date>2021-09-25T02:55:05.082442</dc:date>
    <dc:format>image/svg+xml</dc:format>
    <dc:creator>
     <cc:Agent>
      <dc:title>Matplotlib v3.3.3, https://matplotlib.org/</dc:title>
     </cc:Agent>
    </dc:creator>
   </cc:Work>
  </rdf:RDF>
 </metadata>
 <defs>
  <style type="text/css">*{stroke-linecap:butt;stroke-linejoin:round;}</style>
 </defs>
 <g id="figure_1">
  <g id="patch_1">
   <path d="M 0 219.506563 
L 342.861934 219.506563 
L 342.861934 0 
L 0 0 
z
" style="fill:none;"/>
  </g>
  <g id="axes_1">
   <g id="patch_2">
    <path d="M 56.5325 178.079063 
L 335.5325 178.079063 
L 335.5325 11.759063 
L 56.5325 11.759063 
z
" style="fill:none;"/>
   </g>
   <g id="matplotlib.axis_1">
    <g id="xtick_1">
     <g id="line2d_1">
      <path clip-path="url(#pe4f8ff276d)" d="M 69.214318 178.079063 
L 69.214318 11.759063 
" style="fill:none;stroke:#b0b0b0;stroke-linecap:square;stroke-width:0.8;"/>
     </g>
     <g id="line2d_2">
      <defs>
       <path d="M 0 0 
L 0 3.5 
" id="m9e9d8d1a25" style="stroke:#000000;stroke-width:0.8;"/>
      </defs>
      <g>
       <use style="stroke:#000000;stroke-width:0.8;" x="69.214318" xlink:href="#m9e9d8d1a25" y="178.079063"/>
      </g>
     </g>
     <g id="text_1">
      <!-- 0 -->
      <g transform="translate(65.396818 194.197188)scale(0.12 -0.12)">
       <defs>
        <path d="M 31.78125 3.421875 
Q 39.265625 3.421875 42.96875 11.625 
Q 46.6875 19.828125 46.6875 36.375 
Q 46.6875 52.984375 42.96875 61.1875 
Q 39.265625 69.390625 31.78125 69.390625 
Q 24.3125 69.390625 20.59375 61.1875 
Q 16.890625 52.984375 16.890625 36.375 
Q 16.890625 19.828125 20.59375 11.625 
Q 24.3125 3.421875 31.78125 3.421875 
z
M 31.78125 -1.421875 
Q 19.921875 -1.421875 13.25 8.53125 
Q 6.59375 18.5 6.59375 36.375 
Q 6.59375 54.296875 13.25 64.25 
Q 19.921875 74.21875 31.78125 74.21875 
Q 43.703125 74.21875 50.34375 64.25 
Q 56.984375 54.296875 56.984375 36.375 
Q 56.984375 18.5 50.34375 8.53125 
Q 43.703125 -1.421875 31.78125 -1.421875 
z
" id="DejaVuSerif-48"/>
       </defs>
       <use xlink:href="#DejaVuSerif-48"/>
      </g>
     </g>
    </g>
    <g id="xtick_2">
     <g id="line2d_3">
      <path clip-path="url(#pe4f8ff276d)" d="M 120.976841 178.079063 
L 120.976841 11.759063 
" style="fill:none;stroke:#b0b0b0;stroke-linecap:square;stroke-width:0.8;"/>
     </g>
     <g id="line2d_4">
      <g>
       <use style="stroke:#000000;stroke-width:0.8;" x="120.976841" xlink:href="#m9e9d8d1a25" y="178.079063"/>
      </g>
     </g>
     <g id="text_2">
      <!-- 10 -->
      <g transform="translate(113.341841 194.197188)scale(0.12 -0.12)">
       <defs>
        <path d="M 14.203125 0 
L 14.203125 5.171875 
L 26.90625 5.171875 
L 26.90625 65.828125 
L 12.203125 56.296875 
L 12.203125 62.703125 
L 29.984375 74.21875 
L 36.71875 74.21875 
L 36.71875 5.171875 
L 49.421875 5.171875 
L 49.421875 0 
z
" id="DejaVuSerif-49"/>
       </defs>
       <use xlink:href="#DejaVuSerif-49"/>
       <use x="63.623047" xlink:href="#DejaVuSerif-48"/>
      </g>
     </g>
    </g>
    <g id="xtick_3">
     <g id="line2d_5">
      <path clip-path="url(#pe4f8ff276d)" d="M 172.739365 178.079063 
L 172.739365 11.759063 
" style="fill:none;stroke:#b0b0b0;stroke-linecap:square;stroke-width:0.8;"/>
     </g>
     <g id="line2d_6">
      <g>
       <use style="stroke:#000000;stroke-width:0.8;" x="172.739365" xlink:href="#m9e9d8d1a25" y="178.079063"/>
      </g>
     </g>
     <g id="text_3">
      <!-- 20 -->
      <g transform="translate(165.104365 194.197188)scale(0.12 -0.12)">
       <defs>
        <path d="M 12.796875 55.515625 
L 7.328125 55.515625 
L 7.328125 68.5 
Q 12.546875 71.296875 17.84375 72.75 
Q 23.140625 74.21875 28.21875 74.21875 
Q 39.59375 74.21875 46.1875 68.703125 
Q 52.78125 63.1875 52.78125 53.71875 
Q 52.78125 43.015625 37.84375 28.125 
Q 36.671875 27 36.078125 26.421875 
L 17.671875 8.015625 
L 48.09375 8.015625 
L 48.09375 17 
L 53.8125 17 
L 53.8125 0 
L 6.78125 0 
L 6.78125 5.328125 
L 28.90625 27.390625 
Q 36.234375 34.71875 39.359375 40.84375 
Q 42.484375 46.96875 42.484375 53.71875 
Q 42.484375 61.078125 38.640625 65.234375 
Q 34.8125 69.390625 28.078125 69.390625 
Q 21.09375 69.390625 17.28125 65.921875 
Q 13.484375 62.453125 12.796875 55.515625 
z
" id="DejaVuSerif-50"/>
       </defs>
       <use xlink:href="#DejaVuSerif-50"/>
       <use x="63.623047" xlink:href="#DejaVuSerif-48"/>
      </g>
     </g>
    </g>
    <g id="xtick_4">
     <g id="line2d_7">
      <path clip-path="url(#pe4f8ff276d)" d="M 224.501888 178.079063 
L 224.501888 11.759063 
" style="fill:none;stroke:#b0b0b0;stroke-linecap:square;stroke-width:0.8;"/>
     </g>
     <g id="line2d_8">
      <g>
       <use style="stroke:#000000;stroke-width:0.8;" x="224.501888" xlink:href="#m9e9d8d1a25" y="178.079063"/>
      </g>
     </g>
     <g id="text_4">
      <!-- 30 -->
      <g transform="translate(216.866888 194.197188)scale(0.12 -0.12)">
       <defs>
        <path d="M 9.71875 69.828125 
Q 15.4375 71.96875 20.671875 73.09375 
Q 25.921875 74.21875 30.515625 74.21875 
Q 41.21875 74.21875 47.21875 69.59375 
Q 53.21875 64.984375 53.21875 56.78125 
Q 53.21875 50.203125 49.0625 45.78125 
Q 44.921875 41.359375 37.3125 39.796875 
Q 46.296875 38.53125 51.25 33.28125 
Q 56.203125 28.03125 56.203125 19.671875 
Q 56.203125 9.46875 49.34375 4.015625 
Q 42.484375 -1.421875 29.59375 -1.421875 
Q 23.875 -1.421875 18.421875 -0.1875 
Q 12.984375 1.03125 7.625 3.515625 
L 7.625 17.671875 
L 13.09375 17.671875 
Q 13.578125 10.640625 17.828125 7.03125 
Q 22.078125 3.421875 29.78125 3.421875 
Q 37.25 3.421875 41.578125 7.734375 
Q 45.90625 12.0625 45.90625 19.578125 
Q 45.90625 28.171875 41.453125 32.59375 
Q 37.015625 37.015625 28.421875 37.015625 
L 23.78125 37.015625 
L 23.78125 42 
L 26.21875 42 
Q 34.765625 42 39.03125 45.53125 
Q 43.3125 49.078125 43.3125 56.203125 
Q 43.3125 62.59375 39.796875 65.984375 
Q 36.28125 69.390625 29.6875 69.390625 
Q 23.09375 69.390625 19.453125 66.265625 
Q 15.828125 63.140625 15.1875 56.984375 
L 9.71875 56.984375 
z
" id="DejaVuSerif-51"/>
       </defs>
       <use xlink:href="#DejaVuSerif-51"/>
       <use x="63.623047" xlink:href="#DejaVuSerif-48"/>
      </g>
     </g>
    </g>
    <g id="xtick_5">
     <g id="line2d_9">
      <path clip-path="url(#pe4f8ff276d)" d="M 276.264411 178.079063 
L 276.264411 11.759063 
" style="fill:none;stroke:#b0b0b0;stroke-linecap:square;stroke-width:0.8;"/>
     </g>
     <g id="line2d_10">
      <g>
       <use style="stroke:#000000;stroke-width:0.8;" x="276.264411" xlink:href="#m9e9d8d1a25" y="178.079063"/>
      </g>
     </g>
     <g id="text_5">
      <!-- 40 -->
      <g transform="translate(268.629411 194.197188)scale(0.12 -0.12)">
       <defs>
        <path d="M 34.90625 24.703125 
L 34.90625 63.484375 
L 10.015625 24.703125 
z
M 56.390625 0 
L 23.1875 0 
L 23.1875 5.171875 
L 34.90625 5.171875 
L 34.90625 19.484375 
L 3.078125 19.484375 
L 3.078125 24.8125 
L 35.015625 74.21875 
L 44.671875 74.21875 
L 44.671875 24.703125 
L 58.59375 24.703125 
L 58.59375 19.484375 
L 44.671875 19.484375 
L 44.671875 5.171875 
L 56.390625 5.171875 
z
" id="DejaVuSerif-52"/>
       </defs>
       <use xlink:href="#DejaVuSerif-52"/>
       <use x="63.623047" xlink:href="#DejaVuSerif-48"/>
      </g>
     </g>
    </g>
    <g id="xtick_6">
     <g id="line2d_11">
      <path clip-path="url(#pe4f8ff276d)" d="M 328.026934 178.079063 
L 328.026934 11.759063 
" style="fill:none;stroke:#b0b0b0;stroke-linecap:square;stroke-width:0.8;"/>
     </g>
     <g id="line2d_12">
      <g>
       <use style="stroke:#000000;stroke-width:0.8;" x="328.026934" xlink:href="#m9e9d8d1a25" y="178.079063"/>
      </g>
     </g>
     <g id="text_6">
      <!-- 50 -->
      <g transform="translate(320.391934 194.197188)scale(0.12 -0.12)">
       <defs>
        <path d="M 50.296875 72.90625 
L 50.296875 64.890625 
L 16.890625 64.890625 
L 16.890625 44 
Q 19.4375 45.75 22.828125 46.625 
Q 26.21875 47.515625 30.421875 47.515625 
Q 42.234375 47.515625 49.0625 40.96875 
Q 55.90625 34.421875 55.90625 23.09375 
Q 55.90625 11.53125 49 5.046875 
Q 42.09375 -1.421875 29.59375 -1.421875 
Q 24.5625 -1.421875 19.28125 -0.1875 
Q 14.015625 1.03125 8.5 3.515625 
L 8.5 17.671875 
L 14.015625 17.671875 
Q 14.453125 10.75 18.421875 7.078125 
Q 22.40625 3.421875 29.59375 3.421875 
Q 37.3125 3.421875 41.453125 8.5 
Q 45.609375 13.578125 45.609375 23.09375 
Q 45.609375 32.5625 41.484375 37.609375 
Q 37.359375 42.671875 29.59375 42.671875 
Q 25.203125 42.671875 21.84375 41.109375 
Q 18.5 39.546875 15.921875 36.28125 
L 11.71875 36.28125 
L 11.71875 72.90625 
z
" id="DejaVuSerif-53"/>
       </defs>
       <use xlink:href="#DejaVuSerif-53"/>
       <use x="63.623047" xlink:href="#DejaVuSerif-48"/>
      </g>
     </g>
    </g>
    <g id="text_7">
     <!-- Epochs -->
     <g transform="translate(173.89625 209.810938)scale(0.12 -0.12)">
      <defs>
       <path d="M 5.515625 0 
L 5.515625 5.171875 
L 14.796875 5.171875 
L 14.796875 67.671875 
L 5.515625 67.671875 
L 5.515625 72.90625 
L 64.203125 72.90625 
L 64.203125 56.6875 
L 58.203125 56.6875 
L 58.203125 66.890625 
L 24.703125 66.890625 
L 24.703125 42.484375 
L 48.578125 42.484375 
L 48.578125 51.609375 
L 54.59375 51.609375 
L 54.59375 27.390625 
L 48.578125 27.390625 
L 48.578125 36.53125 
L 24.703125 36.53125 
L 24.703125 6 
L 58.984375 6 
L 58.984375 16.21875 
L 64.984375 16.21875 
L 64.984375 0 
z
" id="DejaVuSerif-69"/>
       <path d="M 20.515625 28.515625 
L 20.515625 23.390625 
Q 20.515625 14.015625 24.09375 9.109375 
Q 27.6875 4.203125 34.515625 4.203125 
Q 41.40625 4.203125 44.9375 9.71875 
Q 48.484375 15.234375 48.484375 25.984375 
Q 48.484375 36.765625 44.9375 42.234375 
Q 41.40625 47.703125 34.515625 47.703125 
Q 27.6875 47.703125 24.09375 42.765625 
Q 20.515625 37.84375 20.515625 28.515625 
z
M 11.53125 46.6875 
L 2.875 46.6875 
L 2.875 51.90625 
L 20.515625 51.90625 
L 20.515625 43.796875 
Q 23.140625 48.6875 27.21875 51 
Q 31.296875 53.328125 37.3125 53.328125 
Q 46.875 53.328125 52.921875 45.75 
Q 58.984375 38.1875 58.984375 25.984375 
Q 58.984375 13.765625 52.921875 6.171875 
Q 46.875 -1.421875 37.3125 -1.421875 
Q 31.296875 -1.421875 27.21875 0.890625 
Q 23.140625 3.21875 20.515625 8.109375 
L 20.515625 -15.578125 
L 29 -15.578125 
L 29 -20.796875 
L 2.875 -20.796875 
L 2.875 -15.578125 
L 11.53125 -15.578125 
z
" id="DejaVuSerif-112"/>
       <path d="M 30.078125 3.421875 
Q 37.3125 3.421875 40.984375 9.125 
Q 44.671875 14.84375 44.671875 25.984375 
Q 44.671875 37.109375 40.984375 42.796875 
Q 37.3125 48.484375 30.078125 48.484375 
Q 22.859375 48.484375 19.171875 42.796875 
Q 15.484375 37.109375 15.484375 25.984375 
Q 15.484375 14.84375 19.1875 9.125 
Q 22.90625 3.421875 30.078125 3.421875 
z
M 30.078125 -1.421875 
Q 18.75 -1.421875 11.859375 6.078125 
Q 4.984375 13.578125 4.984375 25.984375 
Q 4.984375 38.375 11.84375 45.84375 
Q 18.703125 53.328125 30.078125 53.328125 
Q 41.453125 53.328125 48.3125 45.84375 
Q 55.171875 38.375 55.171875 25.984375 
Q 55.171875 13.578125 48.3125 6.078125 
Q 41.453125 -1.421875 30.078125 -1.421875 
z
" id="DejaVuSerif-111"/>
       <path d="M 51.421875 15.578125 
Q 49.515625 7.28125 44.09375 2.921875 
Q 38.671875 -1.421875 30.078125 -1.421875 
Q 18.75 -1.421875 11.859375 6.078125 
Q 4.984375 13.578125 4.984375 25.984375 
Q 4.984375 38.421875 11.859375 45.875 
Q 18.75 53.328125 30.078125 53.328125 
Q 35.015625 53.328125 39.890625 52.171875 
Q 44.78125 51.03125 49.703125 48.6875 
L 49.703125 35.40625 
L 44.484375 35.40625 
Q 43.453125 42.234375 40.015625 45.359375 
Q 36.578125 48.484375 30.171875 48.484375 
Q 22.90625 48.484375 19.1875 42.84375 
Q 15.484375 37.203125 15.484375 25.984375 
Q 15.484375 14.75 19.171875 9.078125 
Q 22.859375 3.421875 30.171875 3.421875 
Q 35.984375 3.421875 39.453125 6.4375 
Q 42.921875 9.46875 44.1875 15.578125 
z
" id="DejaVuSerif-99"/>
       <path d="M 4.109375 0 
L 4.109375 5.171875 
L 12.203125 5.171875 
L 12.203125 70.796875 
L 3.609375 70.796875 
L 3.609375 75.984375 
L 21.1875 75.984375 
L 21.1875 42.671875 
Q 23.6875 47.953125 27.65625 50.640625 
Q 31.640625 53.328125 36.921875 53.328125 
Q 45.515625 53.328125 49.5625 48.390625 
Q 53.609375 43.453125 53.609375 33.015625 
L 53.609375 5.171875 
L 61.625 5.171875 
L 61.625 0 
L 36.8125 0 
L 36.8125 5.171875 
L 44.578125 5.171875 
L 44.578125 30.171875 
Q 44.578125 39.703125 42.25 43.1875 
Q 39.9375 46.6875 33.984375 46.6875 
Q 27.734375 46.6875 24.453125 42.140625 
Q 21.1875 37.59375 21.1875 28.90625 
L 21.1875 5.171875 
L 29 5.171875 
L 29 0 
z
" id="DejaVuSerif-104"/>
       <path d="M 5.609375 2.875 
L 5.609375 14.984375 
L 10.796875 14.984375 
Q 10.984375 9.1875 14.421875 6.296875 
Q 17.875 3.421875 24.609375 3.421875 
Q 30.671875 3.421875 33.84375 5.6875 
Q 37.015625 7.953125 37.015625 12.3125 
Q 37.015625 15.71875 34.6875 17.8125 
Q 32.375 19.921875 24.90625 22.3125 
L 18.40625 24.515625 
Q 11.71875 26.65625 8.71875 29.875 
Q 5.71875 33.109375 5.71875 38.09375 
Q 5.71875 45.21875 10.9375 49.265625 
Q 16.15625 53.328125 25.390625 53.328125 
Q 29.5 53.328125 34.03125 52.25 
Q 38.578125 51.171875 43.40625 49.125 
L 43.40625 37.796875 
L 38.234375 37.796875 
Q 38.03125 42.828125 34.703125 45.65625 
Q 31.390625 48.484375 25.6875 48.484375 
Q 20.015625 48.484375 17.109375 46.484375 
Q 14.203125 44.484375 14.203125 40.484375 
Q 14.203125 37.203125 16.40625 35.21875 
Q 18.609375 33.25 25.203125 31.203125 
L 32.328125 29 
Q 39.703125 26.703125 42.9375 23.265625 
Q 46.1875 19.828125 46.1875 14.40625 
Q 46.1875 7.03125 40.546875 2.796875 
Q 34.90625 -1.421875 25 -1.421875 
Q 19.96875 -1.421875 15.1875 -0.34375 
Q 10.40625 0.734375 5.609375 2.875 
z
" id="DejaVuSerif-115"/>
      </defs>
      <use xlink:href="#DejaVuSerif-69"/>
      <use x="72.998047" xlink:href="#DejaVuSerif-112"/>
      <use x="137.011719" xlink:href="#DejaVuSerif-111"/>
      <use x="197.216797" xlink:href="#DejaVuSerif-99"/>
      <use x="253.222656" xlink:href="#DejaVuSerif-104"/>
      <use x="317.626953" xlink:href="#DejaVuSerif-115"/>
     </g>
    </g>
   </g>
   <g id="matplotlib.axis_2">
    <g id="ytick_1">
     <g id="line2d_13">
      <path clip-path="url(#pe4f8ff276d)" d="M 56.5325 178.079063 
L 335.5325 178.079063 
" style="fill:none;stroke:#b0b0b0;stroke-linecap:square;stroke-width:0.8;"/>
     </g>
     <g id="line2d_14">
      <defs>
       <path d="M 0 0 
L -3.5 0 
" id="m7434f61006" style="stroke:#000000;stroke-width:0.8;"/>
      </defs>
      <g>
       <use style="stroke:#000000;stroke-width:0.8;" x="56.5325" xlink:href="#m7434f61006" y="178.079063"/>
      </g>
     </g>
     <g id="text_8">
      <!-- 0.00 -->
      <g transform="translate(22.81375 182.638125)scale(0.12 -0.12)">
       <defs>
        <path d="M 9.421875 5.078125 
Q 9.421875 7.8125 11.28125 9.71875 
Q 13.140625 11.625 15.921875 11.625 
Q 18.609375 11.625 20.5 9.71875 
Q 22.40625 7.8125 22.40625 5.078125 
Q 22.40625 2.390625 20.5 0.484375 
Q 18.609375 -1.421875 15.921875 -1.421875 
Q 13.140625 -1.421875 11.28125 0.453125 
Q 9.421875 2.34375 9.421875 5.078125 
z
" id="DejaVuSerif-46"/>
       </defs>
       <use xlink:href="#DejaVuSerif-48"/>
       <use x="63.623047" xlink:href="#DejaVuSerif-46"/>
       <use x="95.410156" xlink:href="#DejaVuSerif-48"/>
       <use x="159.033203" xlink:href="#DejaVuSerif-48"/>
      </g>
     </g>
    </g>
    <g id="ytick_2">
     <g id="line2d_15">
      <path clip-path="url(#pe4f8ff276d)" d="M 56.5325 150.359063 
L 335.5325 150.359063 
" style="fill:none;stroke:#b0b0b0;stroke-linecap:square;stroke-width:0.8;"/>
     </g>
     <g id="line2d_16">
      <g>
       <use style="stroke:#000000;stroke-width:0.8;" x="56.5325" xlink:href="#m7434f61006" y="150.359063"/>
      </g>
     </g>
     <g id="text_9">
      <!-- 0.05 -->
      <g transform="translate(22.81375 154.918125)scale(0.12 -0.12)">
       <use xlink:href="#DejaVuSerif-48"/>
       <use x="63.623047" xlink:href="#DejaVuSerif-46"/>
       <use x="95.410156" xlink:href="#DejaVuSerif-48"/>
       <use x="159.033203" xlink:href="#DejaVuSerif-53"/>
      </g>
     </g>
    </g>
    <g id="ytick_3">
     <g id="line2d_17">
      <path clip-path="url(#pe4f8ff276d)" d="M 56.5325 122.639063 
L 335.5325 122.639063 
" style="fill:none;stroke:#b0b0b0;stroke-linecap:square;stroke-width:0.8;"/>
     </g>
     <g id="line2d_18">
      <g>
       <use style="stroke:#000000;stroke-width:0.8;" x="56.5325" xlink:href="#m7434f61006" y="122.639063"/>
      </g>
     </g>
     <g id="text_10">
      <!-- 0.10 -->
      <g transform="translate(22.81375 127.198125)scale(0.12 -0.12)">
       <use xlink:href="#DejaVuSerif-48"/>
       <use x="63.623047" xlink:href="#DejaVuSerif-46"/>
       <use x="95.410156" xlink:href="#DejaVuSerif-49"/>
       <use x="159.033203" xlink:href="#DejaVuSerif-48"/>
      </g>
     </g>
    </g>
    <g id="ytick_4">
     <g id="line2d_19">
      <path clip-path="url(#pe4f8ff276d)" d="M 56.5325 94.919063 
L 335.5325 94.919063 
" style="fill:none;stroke:#b0b0b0;stroke-linecap:square;stroke-width:0.8;"/>
     </g>
     <g id="line2d_20">
      <g>
       <use style="stroke:#000000;stroke-width:0.8;" x="56.5325" xlink:href="#m7434f61006" y="94.919063"/>
      </g>
     </g>
     <g id="text_11">
      <!-- 0.15 -->
      <g transform="translate(22.81375 99.478125)scale(0.12 -0.12)">
       <use xlink:href="#DejaVuSerif-48"/>
       <use x="63.623047" xlink:href="#DejaVuSerif-46"/>
       <use x="95.410156" xlink:href="#DejaVuSerif-49"/>
       <use x="159.033203" xlink:href="#DejaVuSerif-53"/>
      </g>
     </g>
    </g>
    <g id="ytick_5">
     <g id="line2d_21">
      <path clip-path="url(#pe4f8ff276d)" d="M 56.5325 67.199063 
L 335.5325 67.199063 
" style="fill:none;stroke:#b0b0b0;stroke-linecap:square;stroke-width:0.8;"/>
     </g>
     <g id="line2d_22">
      <g>
       <use style="stroke:#000000;stroke-width:0.8;" x="56.5325" xlink:href="#m7434f61006" y="67.199063"/>
      </g>
     </g>
     <g id="text_12">
      <!-- 0.20 -->
      <g transform="translate(22.81375 71.758125)scale(0.12 -0.12)">
       <use xlink:href="#DejaVuSerif-48"/>
       <use x="63.623047" xlink:href="#DejaVuSerif-46"/>
       <use x="95.410156" xlink:href="#DejaVuSerif-50"/>
       <use x="159.033203" xlink:href="#DejaVuSerif-48"/>
      </g>
     </g>
    </g>
    <g id="ytick_6">
     <g id="line2d_23">
      <path clip-path="url(#pe4f8ff276d)" d="M 56.5325 39.479063 
L 335.5325 39.479063 
" style="fill:none;stroke:#b0b0b0;stroke-linecap:square;stroke-width:0.8;"/>
     </g>
     <g id="line2d_24">
      <g>
       <use style="stroke:#000000;stroke-width:0.8;" x="56.5325" xlink:href="#m7434f61006" y="39.479063"/>
      </g>
     </g>
     <g id="text_13">
      <!-- 0.25 -->
      <g transform="translate(22.81375 44.038125)scale(0.12 -0.12)">
       <use xlink:href="#DejaVuSerif-48"/>
       <use x="63.623047" xlink:href="#DejaVuSerif-46"/>
       <use x="95.410156" xlink:href="#DejaVuSerif-50"/>
       <use x="159.033203" xlink:href="#DejaVuSerif-53"/>
      </g>
     </g>
    </g>
    <g id="ytick_7">
     <g id="line2d_25">
      <path clip-path="url(#pe4f8ff276d)" d="M 56.5325 11.759063 
L 335.5325 11.759063 
" style="fill:none;stroke:#b0b0b0;stroke-linecap:square;stroke-width:0.8;"/>
     </g>
     <g id="line2d_26">
      <g>
       <use style="stroke:#000000;stroke-width:0.8;" x="56.5325" xlink:href="#m7434f61006" y="11.759063"/>
      </g>
     </g>
     <g id="text_14">
      <!-- 0.30 -->
      <g transform="translate(22.81375 16.318125)scale(0.12 -0.12)">
       <use xlink:href="#DejaVuSerif-48"/>
       <use x="63.623047" xlink:href="#DejaVuSerif-46"/>
       <use x="95.410156" xlink:href="#DejaVuSerif-51"/>
       <use x="159.033203" xlink:href="#DejaVuSerif-48"/>
      </g>
     </g>
    </g>
    <g id="text_15">
     <!-- Loss -->
     <g transform="translate(16.318125 108.673125)rotate(-90)scale(0.12 -0.12)">
      <defs>
       <path d="M 5.515625 0 
L 5.515625 5.171875 
L 14.796875 5.171875 
L 14.796875 67.671875 
L 5.515625 67.671875 
L 5.515625 72.90625 
L 33.984375 72.90625 
L 33.984375 67.671875 
L 24.703125 67.671875 
L 24.703125 6 
L 58.015625 6 
L 58.015625 18.21875 
L 64.015625 18.21875 
L 64.015625 0 
z
" id="DejaVuSerif-76"/>
      </defs>
      <use xlink:href="#DejaVuSerif-76"/>
      <use x="66.40625" xlink:href="#DejaVuSerif-111"/>
      <use x="126.611328" xlink:href="#DejaVuSerif-115"/>
      <use x="177.929688" xlink:href="#DejaVuSerif-115"/>
     </g>
    </g>
   </g>
   <g id="line2d_27">
    <path clip-path="url(#pe4f8ff276d)" d="M 98.324775 -1 
L 100.271832 10.472059 
L 105.448084 19.724938 
L 110.624337 13.716912 
L 115.800589 36.315765 
L 120.976841 30.835894 
L 126.153094 39.407421 
L 131.329346 61.095593 
L 136.505598 9.18275 
L 141.681851 4.855102 
L 146.858103 44.519363 
L 152.034355 38.410591 
L 157.210608 47.131845 
L 162.38686 52.761005 
L 167.563112 65.793128 
L 172.739365 44.537208 
L 177.915617 75.081654 
L 183.091869 103.315449 
L 188.268122 44.255145 
L 193.444374 78.979141 
L 198.620626 65.068926 
L 203.796878 81.996909 
L 208.973131 49.901711 
L 214.149383 67.302714 
L 219.325635 59.442402 
L 224.501888 57.027313 
L 229.67814 84.427933 
L 234.854392 91.132669 
L 240.030645 105.797685 
L 245.206897 86.948683 
L 250.383149 60.042669 
L 255.559402 79.100341 
L 260.735654 117.77059 
L 265.911906 102.374994 
L 271.088159 124.098597 
L 276.264411 88.264395 
L 281.440663 96.47623 
L 286.616916 86.424749 
L 291.793168 79.004362 
L 296.96942 78.154664 
L 302.145673 85.540519 
L 307.321925 79.534905 
L 312.498177 101.497423 
L 317.674429 106.169208 
L 322.850682 93.430456 
" style="fill:none;stroke:#4682b4;stroke-linecap:square;"/>
   </g>
   <g id="line2d_28">
    <path clip-path="url(#pe4f8ff276d)" d="M 94.375176 -1 
L 95.09558 2.62119 
L 100.271832 6.768859 
L 105.448084 28.935652 
L 110.624337 30.595575 
L 115.800589 31.620411 
L 120.976841 13.15738 
L 126.153094 53.842694 
L 131.329346 61.874021 
L 135.754384 -1 
M 137.836647 -1 
L 141.681851 29.834983 
L 146.858103 50.259421 
L 152.034355 57.545596 
L 157.210608 66.065178 
L 162.38686 50.924217 
L 167.563112 40.794519 
L 172.739365 74.872893 
L 177.915617 91.09964 
L 183.091869 72.330078 
L 188.268122 69.902672 
L 193.444374 76.429808 
L 198.620626 87.986232 
L 203.796878 88.581047 
L 208.973131 72.124267 
L 214.149383 85.806076 
L 219.325635 100.091952 
L 224.501888 100.640752 
L 229.67814 87.426478 
L 234.854392 94.39981 
L 240.030645 99.554668 
L 245.206897 103.048249 
L 250.383149 65.554024 
L 255.559402 104.108368 
L 260.735654 112.356201 
L 265.911906 116.346928 
L 271.088159 108.25498 
L 276.264411 101.030045 
L 281.440663 102.014442 
L 286.616916 70.479106 
L 291.793168 86.811514 
L 296.96942 96.421136 
L 302.145673 91.090429 
L 307.321925 111.00974 
L 312.498177 120.942884 
L 317.674429 118.743123 
L 322.850682 109.549593 
" style="fill:none;stroke:#4682b4;stroke-dasharray:1,1.65;stroke-dashoffset:0;"/>
   </g>
   <g id="line2d_29">
    <path clip-path="url(#pe4f8ff276d)" d="M 80.290269 -1 
L 84.743075 40.586609 
L 89.919327 21.783861 
L 95.09558 67.008351 
L 100.271832 62.612135 
L 105.448084 90.529816 
L 110.624337 81.601668 
L 115.800589 100.318945 
L 120.976841 98.623928 
L 126.153094 86.695031 
L 131.329346 62.327173 
L 136.505598 63.50907 
L 141.681851 75.741542 
L 146.858103 119.909143 
L 152.034355 88.799531 
L 157.210608 99.047711 
L 162.38686 89.167419 
L 167.563112 112.633038 
L 172.739365 60.275577 
L 177.915617 110.401489 
L 183.091869 129.809456 
L 188.268122 115.170735 
L 193.444374 123.758562 
L 198.620626 104.17782 
L 203.796878 108.625991 
L 208.973131 84.119939 
L 214.149383 90.271926 
L 219.325635 87.845883 
L 224.501888 63.340765 
L 229.67814 96.468811 
L 234.854392 115.36021 
L 240.030645 124.635377 
L 245.206897 106.789393 
L 250.383149 88.372419 
L 255.559402 106.281907 
L 260.735654 142.267517 
L 265.911906 107.272244 
L 271.088159 135.970398 
L 276.264411 104.086864 
L 281.440663 124.742827 
L 286.616916 107.011429 
L 291.793168 51.683041 
L 296.96942 59.219192 
L 302.145673 105.897158 
L 307.321925 99.797432 
L 312.498177 124.114071 
L 317.674429 114.957716 
L 322.850682 104.078413 
" style="fill:none;stroke:#ff7f50;stroke-linecap:square;"/>
   </g>
   <g id="line2d_30">
    <path clip-path="url(#pe4f8ff276d)" d="M 73.214499 -1 
L 74.390571 9.843481 
L 76.869749 -1 
M 81.34307 -1 
L 84.743075 21.580305 
L 89.919327 54.120873 
L 95.09558 72.538541 
L 100.271832 73.132604 
L 105.448084 45.043099 
L 110.624337 101.20757 
L 115.800589 82.202266 
L 120.976841 91.128745 
L 125.155694 -1 
M 127.32829 -1 
L 131.329346 73.863696 
L 136.505598 83.438762 
L 141.681851 96.654135 
L 146.858103 101.585619 
L 152.034355 112.640006 
L 157.210608 95.70085 
L 162.38686 107.349643 
L 167.563112 89.240927 
L 172.739365 98.344402 
L 177.915617 113.198637 
L 183.091869 118.498385 
L 188.268122 114.723713 
L 193.444374 121.099888 
L 198.620626 122.17256 
L 203.796878 127.050003 
L 208.973131 121.083506 
L 214.149383 123.447466 
L 219.325635 100.242777 
L 224.501888 104.587377 
L 229.67814 117.185597 
L 234.854392 123.109372 
L 240.030645 124.930612 
L 245.206897 110.434789 
L 250.383149 116.211915 
L 255.559402 116.042098 
L 260.735654 119.693563 
L 265.911906 123.147039 
L 271.088159 123.455368 
L 276.264411 121.249445 
L 281.440663 131.976337 
L 286.616916 10.690073 
L 291.793168 94.868798 
L 296.96942 93.58181 
L 302.145673 120.248228 
L 307.321925 122.711335 
L 312.498177 124.063677 
L 317.674429 131.774516 
L 322.850682 121.379988 
" style="fill:none;stroke:#ff7f50;stroke-dasharray:1,1.65;stroke-dashoffset:0;"/>
   </g>
   <g id="line2d_31">
    <path clip-path="url(#pe4f8ff276d)" d="M 96.149836 -1 
L 100.271832 26.10148 
L 105.448084 25.408266 
L 109.228898 -1 
M 111.543888 -1 
L 115.800589 44.119331 
L 120.976841 40.769595 
L 126.153094 45.788821 
L 131.329346 55.116811 
L 136.505598 25.310487 
L 139.772184 -1 
M 143.262697 -1 
L 146.858103 33.982487 
L 151.563288 -1 
M 164.78457 -1 
L 167.563112 14.805656 
L 170.037129 -1 
M 178.242049 -1 
L 183.091869 58.207385 
L 188.268122 17.328429 
L 193.444374 59.449779 
L 198.620626 36.971391 
L 203.796878 45.525058 
L 208.973131 32.962113 
L 214.149383 34.538598 
L 219.325635 9.447786 
L 224.501888 7.33604 
L 229.67814 64.320767 
L 234.854392 63.876165 
L 240.030645 84.556536 
L 245.206897 52.168957 
L 250.383149 29.436049 
L 255.559402 60.785607 
L 260.735654 110.203236 
L 265.911906 77.314591 
L 271.088159 101.949542 
L 276.264411 70.916603 
L 281.440663 89.667024 
L 286.616916 89.936207 
L 291.793168 82.044865 
L 296.96942 88.206327 
L 302.145673 101.463436 
L 307.321925 75.98989 
L 312.498177 105.023494 
L 317.674429 40.741284 
L 322.850682 79.503802 
" style="fill:none;stroke:#2ca02c;stroke-linecap:square;"/>
   </g>
   <g id="line2d_32">
    <path clip-path="url(#pe4f8ff276d)" d="M 91.761272 -1 
L 95.09558 11.61622 
L 100.271832 20.398193 
L 102.813493 -1 
M 107.696658 -1 
L 110.624337 27.87944 
L 115.800589 39.114562 
L 120.976841 24.911801 
L 126.153094 59.880609 
L 131.329346 61.432856 
L 136.505598 2.458989 
L 141.681851 12.966332 
L 141.947423 -1 
M 160.501429 -1 
L 162.38686 32.274285 
L 167.563112 15.672256 
L 170.448218 -1 
M 173.812041 -1 
L 177.915617 49.65 
L 183.091869 38.297182 
L 188.268122 42.626672 
L 193.444374 68.175841 
L 198.620626 62.00112 
L 203.796878 71.414307 
L 208.973131 46.172595 
L 214.149383 84.624914 
L 219.325635 25.997059 
L 224.501888 81.200075 
L 229.67814 76.485678 
L 234.854392 87.811153 
L 240.030645 67.664067 
L 245.206897 58.753013 
L 250.383149 63.021254 
L 255.559402 93.885335 
L 260.735654 95.080615 
L 265.911906 95.645062 
L 271.088159 101.341559 
L 276.264411 98.987413 
L 281.440663 108.393983 
L 286.616916 89.532085 
L 291.793168 100.207246 
L 296.96942 109.855266 
L 302.145673 98.19656 
L 307.321925 110.350897 
L 311.043282 -1 
M 314.194923 -1 
L 317.674429 88.273929 
L 322.850682 94.416068 
" style="fill:none;stroke:#2ca02c;stroke-dasharray:1,1.65;stroke-dashoffset:0;"/>
   </g>
   <g id="patch_3">
    <path d="M 56.5325 178.079063 
L 56.5325 11.759063 
" style="fill:none;stroke:#000000;stroke-linecap:square;stroke-linejoin:miter;stroke-width:0.8;"/>
   </g>
   <g id="patch_4">
    <path d="M 335.5325 178.079063 
L 335.5325 11.759063 
" style="fill:none;stroke:#000000;stroke-linecap:square;stroke-linejoin:miter;stroke-width:0.8;"/>
   </g>
   <g id="patch_5">
    <path d="M 56.5325 178.079063 
L 335.5325 178.079063 
" style="fill:none;stroke:#000000;stroke-linecap:square;stroke-linejoin:miter;stroke-width:0.8;"/>
   </g>
   <g id="patch_6">
    <path d="M 56.5325 11.759063 
L 335.5325 11.759063 
" style="fill:none;stroke:#000000;stroke-linecap:square;stroke-linejoin:miter;stroke-width:0.8;"/>
   </g>
   <g id="legend_1">
    <g id="patch_7">
     <path d="M 64.9325 172.079063 
L 197.26625 172.079063 
Q 199.66625 172.079063 199.66625 169.679063 
L 199.66625 117.525938 
Q 199.66625 115.125938 197.26625 115.125938 
L 64.9325 115.125938 
Q 62.5325 115.125938 62.5325 117.525938 
L 62.5325 169.679063 
Q 62.5325 172.079063 64.9325 172.079063 
z
" style="fill:#ffffff;opacity:0.8;stroke:#cccccc;stroke-linejoin:miter;"/>
    </g>
    <g id="line2d_33">
     <path d="M 67.3325 124.844063 
L 91.3325 124.844063 
" style="fill:none;stroke:#4682b4;stroke-linecap:square;"/>
    </g>
    <g id="line2d_34"/>
    <g id="text_16">
     <!-- Complexity = 2 -->
     <g transform="translate(100.9325 129.044063)scale(0.12 -0.12)">
      <defs>
       <path d="M 70.515625 19.28125 
Q 67.28125 9.078125 59.6875 3.828125 
Q 52.09375 -1.421875 40.484375 -1.421875 
Q 33.34375 -1.421875 27.234375 1.015625 
Q 21.140625 3.46875 16.40625 8.203125 
Q 10.9375 13.671875 8.265625 20.625 
Q 5.609375 27.59375 5.609375 36.375 
Q 5.609375 53.375 15.421875 63.796875 
Q 25.25 74.21875 41.3125 74.21875 
Q 47.265625 74.21875 54 72.65625 
Q 60.75 71.09375 68.5 67.921875 
L 68.5 51.125 
L 62.984375 51.125 
Q 61.1875 60.296875 55.734375 64.640625 
Q 50.296875 69 40.484375 69 
Q 28.8125 69 22.796875 60.71875 
Q 16.796875 52.4375 16.796875 36.375 
Q 16.796875 20.359375 22.796875 12.078125 
Q 28.8125 3.8125 40.484375 3.8125 
Q 48.640625 3.8125 53.90625 7.6875 
Q 59.1875 11.578125 61.53125 19.28125 
z
" id="DejaVuSerif-67"/>
       <path d="M 51.8125 41.796875 
Q 54.390625 47.515625 58.421875 50.421875 
Q 62.453125 53.328125 67.828125 53.328125 
Q 75.984375 53.328125 79.984375 48.265625 
Q 83.984375 43.21875 83.984375 33.015625 
L 83.984375 5.171875 
L 92.09375 5.171875 
L 92.09375 0 
L 67.1875 0 
L 67.1875 5.171875 
L 75 5.171875 
L 75 31.984375 
Q 75 39.9375 72.65625 43.3125 
Q 70.3125 46.6875 64.890625 46.6875 
Q 58.890625 46.6875 55.734375 42.140625 
Q 52.59375 37.59375 52.59375 28.90625 
L 52.59375 5.171875 
L 60.40625 5.171875 
L 60.40625 0 
L 35.796875 0 
L 35.796875 5.171875 
L 43.609375 5.171875 
L 43.609375 32.328125 
Q 43.609375 40.09375 41.265625 43.390625 
Q 38.921875 46.6875 33.5 46.6875 
Q 27.484375 46.6875 24.328125 42.140625 
Q 21.1875 37.59375 21.1875 28.90625 
L 21.1875 5.171875 
L 29 5.171875 
L 29 0 
L 4.109375 0 
L 4.109375 5.171875 
L 12.203125 5.171875 
L 12.203125 46.78125 
L 3.609375 46.78125 
L 3.609375 51.90625 
L 21.1875 51.90625 
L 21.1875 42.671875 
Q 23.6875 47.859375 27.53125 50.59375 
Q 31.390625 53.328125 36.28125 53.328125 
Q 42.328125 53.328125 46.375 50.3125 
Q 50.4375 47.3125 51.8125 41.796875 
z
" id="DejaVuSerif-109"/>
       <path d="M 20.515625 5.171875 
L 29 5.171875 
L 29 0 
L 2.875 0 
L 2.875 5.171875 
L 11.53125 5.171875 
L 11.53125 70.796875 
L 2.875 70.796875 
L 2.875 75.984375 
L 20.515625 75.984375 
z
" id="DejaVuSerif-108"/>
       <path d="M 54.203125 25 
L 15.484375 25 
L 15.484375 24.609375 
Q 15.484375 14.109375 19.4375 8.765625 
Q 23.390625 3.421875 31.109375 3.421875 
Q 37.015625 3.421875 40.796875 6.515625 
Q 44.578125 9.625 46.09375 15.71875 
L 53.328125 15.71875 
Q 51.171875 7.171875 45.375 2.875 
Q 39.59375 -1.421875 30.171875 -1.421875 
Q 18.796875 -1.421875 11.890625 6.078125 
Q 4.984375 13.578125 4.984375 25.984375 
Q 4.984375 38.28125 11.765625 45.796875 
Q 18.5625 53.328125 29.59375 53.328125 
Q 41.359375 53.328125 47.65625 46.0625 
Q 53.953125 38.8125 54.203125 25 
z
M 43.609375 30.171875 
Q 43.3125 39.265625 39.765625 43.875 
Q 36.234375 48.484375 29.59375 48.484375 
Q 23.390625 48.484375 19.828125 43.84375 
Q 16.265625 39.203125 15.484375 30.171875 
z
" id="DejaVuSerif-101"/>
       <path d="M 29.109375 31.6875 
L 39.984375 46.6875 
L 33.015625 46.6875 
L 33.015625 51.90625 
L 52.984375 51.90625 
L 52.984375 46.6875 
L 46.09375 46.6875 
L 32.171875 27.484375 
L 48.390625 5.171875 
L 55.171875 5.171875 
L 55.171875 0 
L 31.203125 0 
L 31.203125 5.171875 
L 37.796875 5.171875 
L 26.515625 20.703125 
L 15.1875 5.171875 
L 21.921875 5.171875 
L 21.921875 0 
L 2.203125 0 
L 2.203125 5.171875 
L 9.078125 5.171875 
L 23.390625 24.90625 
L 7.625 46.6875 
L 1.21875 46.6875 
L 1.21875 51.90625 
L 24.421875 51.90625 
L 24.421875 46.6875 
L 18.21875 46.6875 
z
" id="DejaVuSerif-120"/>
       <path d="M 9.71875 68.015625 
Q 9.71875 70.265625 11.34375 71.921875 
Q 12.984375 73.578125 15.28125 73.578125 
Q 17.53125 73.578125 19.15625 71.921875 
Q 20.796875 70.265625 20.796875 68.015625 
Q 20.796875 65.71875 19.1875 64.109375 
Q 17.578125 62.5 15.28125 62.5 
Q 12.984375 62.5 11.34375 64.109375 
Q 9.71875 65.71875 9.71875 68.015625 
z
M 21.1875 5.171875 
L 29.6875 5.171875 
L 29.6875 0 
L 3.609375 0 
L 3.609375 5.171875 
L 12.203125 5.171875 
L 12.203125 46.6875 
L 3.609375 46.6875 
L 3.609375 51.90625 
L 21.1875 51.90625 
z
" id="DejaVuSerif-105"/>
       <path d="M 10.796875 46.6875 
L 2.875 46.6875 
L 2.875 51.90625 
L 10.796875 51.90625 
L 10.796875 68.015625 
L 19.828125 68.015625 
L 19.828125 51.90625 
L 36.71875 51.90625 
L 36.71875 46.6875 
L 19.828125 46.6875 
L 19.828125 13.71875 
Q 19.828125 7.125 21.09375 5.265625 
Q 22.359375 3.421875 25.78125 3.421875 
Q 29.296875 3.421875 30.90625 5.484375 
Q 32.515625 7.5625 32.625 12.203125 
L 39.40625 12.203125 
Q 39.015625 5.125 35.546875 1.84375 
Q 32.078125 -1.421875 25 -1.421875 
Q 17.234375 -1.421875 14.015625 2.015625 
Q 10.796875 5.46875 10.796875 13.71875 
z
" id="DejaVuSerif-116"/>
       <path d="M 21.578125 -9.515625 
L 25 -0.875 
L 5.609375 46.6875 
L -0.296875 46.6875 
L -0.296875 51.90625 
L 23.578125 51.90625 
L 23.578125 46.6875 
L 15.28125 46.6875 
L 29.890625 10.984375 
L 44.484375 46.6875 
L 36.71875 46.6875 
L 36.71875 51.90625 
L 56.203125 51.90625 
L 56.203125 46.6875 
L 50.390625 46.6875 
L 26.609375 -11.71875 
Q 24.171875 -17.78125 21.1875 -20 
Q 18.21875 -22.21875 12.796875 -22.21875 
Q 10.5 -22.21875 8.078125 -21.828125 
Q 5.671875 -21.4375 3.21875 -20.703125 
L 3.21875 -10.796875 
L 7.8125 -10.796875 
Q 8.109375 -14.109375 9.5 -15.546875 
Q 10.890625 -17 13.8125 -17 
Q 16.5 -17 18.140625 -15.5 
Q 19.78125 -14.015625 21.578125 -9.515625 
z
" id="DejaVuSerif-121"/>
       <path id="DejaVuSerif-32"/>
       <path d="M 10.59375 45.21875 
L 73.1875 45.21875 
L 73.1875 37.40625 
L 10.59375 37.40625 
z
M 10.59375 25.296875 
L 73.1875 25.296875 
L 73.1875 17.484375 
L 10.59375 17.484375 
z
" id="DejaVuSerif-61"/>
      </defs>
      <use xlink:href="#DejaVuSerif-67"/>
      <use x="76.513672" xlink:href="#DejaVuSerif-111"/>
      <use x="136.71875" xlink:href="#DejaVuSerif-109"/>
      <use x="231.542969" xlink:href="#DejaVuSerif-112"/>
      <use x="295.556641" xlink:href="#DejaVuSerif-108"/>
      <use x="327.539062" xlink:href="#DejaVuSerif-101"/>
      <use x="386.71875" xlink:href="#DejaVuSerif-120"/>
      <use x="443.115234" xlink:href="#DejaVuSerif-105"/>
      <use x="475.097656" xlink:href="#DejaVuSerif-116"/>
      <use x="515.283203" xlink:href="#DejaVuSerif-121"/>
      <use x="571.777344" xlink:href="#DejaVuSerif-32"/>
      <use x="603.564453" xlink:href="#DejaVuSerif-61"/>
      <use x="687.353516" xlink:href="#DejaVuSerif-32"/>
      <use x="719.140625" xlink:href="#DejaVuSerif-50"/>
     </g>
    </g>
    <g id="line2d_35">
     <path d="M 67.3325 142.628438 
L 91.3325 142.628438 
" style="fill:none;stroke:#ff7f50;stroke-linecap:square;"/>
    </g>
    <g id="line2d_36"/>
    <g id="text_17">
     <!-- Complexity = 4 -->
     <g transform="translate(100.9325 146.828438)scale(0.12 -0.12)">
      <use xlink:href="#DejaVuSerif-67"/>
      <use x="76.513672" xlink:href="#DejaVuSerif-111"/>
      <use x="136.71875" xlink:href="#DejaVuSerif-109"/>
      <use x="231.542969" xlink:href="#DejaVuSerif-112"/>
      <use x="295.556641" xlink:href="#DejaVuSerif-108"/>
      <use x="327.539062" xlink:href="#DejaVuSerif-101"/>
      <use x="386.71875" xlink:href="#DejaVuSerif-120"/>
      <use x="443.115234" xlink:href="#DejaVuSerif-105"/>
      <use x="475.097656" xlink:href="#DejaVuSerif-116"/>
      <use x="515.283203" xlink:href="#DejaVuSerif-121"/>
      <use x="571.777344" xlink:href="#DejaVuSerif-32"/>
      <use x="603.564453" xlink:href="#DejaVuSerif-61"/>
      <use x="687.353516" xlink:href="#DejaVuSerif-32"/>
      <use x="719.140625" xlink:href="#DejaVuSerif-52"/>
     </g>
    </g>
    <g id="line2d_37">
     <path d="M 67.3325 160.412813 
L 91.3325 160.412813 
" style="fill:none;stroke:#2ca02c;stroke-linecap:square;"/>
    </g>
    <g id="line2d_38"/>
    <g id="text_18">
     <!-- Complexity = 6 -->
     <g transform="translate(100.9325 164.612813)scale(0.12 -0.12)">
      <defs>
       <path d="M 32.71875 3.421875 
Q 39.59375 3.421875 43.296875 8.46875 
Q 47.015625 13.53125 47.015625 23 
Q 47.015625 32.46875 43.296875 37.515625 
Q 39.59375 42.578125 32.71875 42.578125 
Q 25.734375 42.578125 22.0625 37.6875 
Q 18.40625 32.8125 18.40625 23.578125 
Q 18.40625 13.875 22.109375 8.640625 
Q 25.828125 3.421875 32.71875 3.421875 
z
M 16.796875 40.140625 
Q 20.125 43.796875 24.3125 45.59375 
Q 28.515625 47.40625 33.796875 47.40625 
Q 44.671875 47.40625 51 40.859375 
Q 57.328125 34.328125 57.328125 23 
Q 57.328125 11.921875 50.515625 5.25 
Q 43.703125 -1.421875 32.328125 -1.421875 
Q 19.96875 -1.421875 13.328125 7.78125 
Q 6.6875 17 6.6875 34.078125 
Q 6.6875 53.21875 14.546875 63.71875 
Q 22.40625 74.21875 36.71875 74.21875 
Q 40.578125 74.21875 44.828125 73.484375 
Q 49.078125 72.75 53.515625 71.296875 
L 53.515625 59.28125 
L 48 59.28125 
Q 47.40625 64.203125 44.234375 66.796875 
Q 41.0625 69.390625 35.6875 69.390625 
Q 26.21875 69.390625 21.578125 62.203125 
Q 16.9375 55.03125 16.796875 40.140625 
z
" id="DejaVuSerif-54"/>
      </defs>
      <use xlink:href="#DejaVuSerif-67"/>
      <use x="76.513672" xlink:href="#DejaVuSerif-111"/>
      <use x="136.71875" xlink:href="#DejaVuSerif-109"/>
      <use x="231.542969" xlink:href="#DejaVuSerif-112"/>
      <use x="295.556641" xlink:href="#DejaVuSerif-108"/>
      <use x="327.539062" xlink:href="#DejaVuSerif-101"/>
      <use x="386.71875" xlink:href="#DejaVuSerif-120"/>
      <use x="443.115234" xlink:href="#DejaVuSerif-105"/>
      <use x="475.097656" xlink:href="#DejaVuSerif-116"/>
      <use x="515.283203" xlink:href="#DejaVuSerif-121"/>
      <use x="571.777344" xlink:href="#DejaVuSerif-32"/>
      <use x="603.564453" xlink:href="#DejaVuSerif-61"/>
      <use x="687.353516" xlink:href="#DejaVuSerif-32"/>
      <use x="719.140625" xlink:href="#DejaVuSerif-54"/>
     </g>
    </g>
   </g>
   <g id="legend_2">
    <g id="patch_8">
     <path d="M 241.581875 172.079063 
L 327.1325 172.079063 
Q 329.5325 172.079063 329.5325 169.679063 
L 329.5325 135.317813 
Q 329.5325 132.917813 327.1325 132.917813 
L 241.581875 132.917813 
Q 239.181875 132.917813 239.181875 135.317813 
L 239.181875 169.679063 
Q 239.181875 172.079063 241.581875 172.079063 
z
" style="fill:#ffffff;opacity:0.8;stroke:#cccccc;stroke-linejoin:miter;"/>
    </g>
    <g id="line2d_39">
     <path d="M 243.981875 142.635938 
L 267.981875 142.635938 
" style="fill:none;stroke:#000000;stroke-linecap:square;"/>
    </g>
    <g id="line2d_40"/>
    <g id="text_19">
     <!-- loss -->
     <g transform="translate(277.581875 146.835938)scale(0.12 -0.12)">
      <use xlink:href="#DejaVuSerif-108"/>
      <use x="31.982422" xlink:href="#DejaVuSerif-111"/>
      <use x="92.1875" xlink:href="#DejaVuSerif-115"/>
      <use x="143.505859" xlink:href="#DejaVuSerif-115"/>
     </g>
    </g>
    <g id="line2d_41">
     <path d="M 243.981875 160.249688 
L 267.981875 160.249688 
" style="fill:none;stroke:#000000;stroke-dasharray:1,1.65;stroke-dashoffset:0;"/>
    </g>
    <g id="line2d_42"/>
    <g id="text_20">
     <!-- val_loss -->
     <g transform="translate(277.581875 164.449688)scale(0.12 -0.12)">
      <defs>
       <path d="M 24.703125 0 
L 5.609375 46.6875 
L -0.296875 46.6875 
L -0.296875 51.90625 
L 23.578125 51.90625 
L 23.578125 46.6875 
L 15.28125 46.6875 
L 29.890625 10.984375 
L 44.484375 46.6875 
L 36.71875 46.6875 
L 36.71875 51.90625 
L 56.203125 51.90625 
L 56.203125 46.6875 
L 50.390625 46.6875 
L 31.296875 0 
z
" id="DejaVuSerif-118"/>
       <path d="M 39.796875 16.3125 
L 39.796875 27.296875 
L 28.21875 27.296875 
Q 21.53125 27.296875 18.25 24.40625 
Q 14.984375 21.53125 14.984375 15.578125 
Q 14.984375 10.15625 18.296875 6.984375 
Q 21.625 3.8125 27.296875 3.8125 
Q 32.90625 3.8125 36.34375 7.28125 
Q 39.796875 10.75 39.796875 16.3125 
z
M 48.78125 32.421875 
L 48.78125 5.171875 
L 56.78125 5.171875 
L 56.78125 0 
L 39.796875 0 
L 39.796875 5.609375 
Q 36.8125 2 32.90625 0.28125 
Q 29 -1.421875 23.78125 -1.421875 
Q 15.140625 -1.421875 10.0625 3.171875 
Q 4.984375 7.765625 4.984375 15.578125 
Q 4.984375 23.640625 10.796875 28.078125 
Q 16.609375 32.515625 27.203125 32.515625 
L 39.796875 32.515625 
L 39.796875 36.078125 
Q 39.796875 42 36.203125 45.234375 
Q 32.625 48.484375 26.125 48.484375 
Q 20.75 48.484375 17.578125 46.046875 
Q 14.40625 43.609375 13.625 38.8125 
L 8.984375 38.8125 
L 8.984375 49.3125 
Q 13.671875 51.3125 18.09375 52.3125 
Q 22.515625 53.328125 26.703125 53.328125 
Q 37.5 53.328125 43.140625 47.96875 
Q 48.78125 42.625 48.78125 32.421875 
z
" id="DejaVuSerif-97"/>
       <path d="M 50 -19.671875 
L 50 -23.578125 
L 0 -23.578125 
L 0 -19.671875 
z
" id="DejaVuSerif-95"/>
      </defs>
      <use xlink:href="#DejaVuSerif-118"/>
      <use x="56.494141" xlink:href="#DejaVuSerif-97"/>
      <use x="116.113281" xlink:href="#DejaVuSerif-108"/>
      <use x="148.095703" xlink:href="#DejaVuSerif-95"/>
      <use x="198.095703" xlink:href="#DejaVuSerif-108"/>
      <use x="230.078125" xlink:href="#DejaVuSerif-111"/>
      <use x="290.283203" xlink:href="#DejaVuSerif-115"/>
      <use x="341.601562" xlink:href="#DejaVuSerif-115"/>
     </g>
    </g>
   </g>
   <g id="legend_3">
    <g id="patch_9">
     <path d="M 241.581875 172.079063 
L 327.1325 172.079063 
Q 329.5325 172.079063 329.5325 169.679063 
L 329.5325 135.317813 
Q 329.5325 132.917813 327.1325 132.917813 
L 241.581875 132.917813 
Q 239.181875 132.917813 239.181875 135.317813 
L 239.181875 169.679063 
Q 239.181875 172.079063 241.581875 172.079063 
z
" style="fill:#ffffff;opacity:0.8;stroke:#cccccc;stroke-linejoin:miter;"/>
    </g>
    <g id="line2d_43">
     <path d="M 243.981875 142.635938 
L 267.981875 142.635938 
" style="fill:none;stroke:#000000;stroke-linecap:square;"/>
    </g>
    <g id="line2d_44"/>
    <g id="text_21">
     <!-- loss -->
     <g transform="translate(277.581875 146.835938)scale(0.12 -0.12)">
      <use xlink:href="#DejaVuSerif-108"/>
      <use x="31.982422" xlink:href="#DejaVuSerif-111"/>
      <use x="92.1875" xlink:href="#DejaVuSerif-115"/>
      <use x="143.505859" xlink:href="#DejaVuSerif-115"/>
     </g>
    </g>
    <g id="line2d_45">
     <path d="M 243.981875 160.249688 
L 267.981875 160.249688 
" style="fill:none;stroke:#000000;stroke-dasharray:1,1.65;stroke-dashoffset:0;"/>
    </g>
    <g id="line2d_46"/>
    <g id="text_22">
     <!-- val_loss -->
     <g transform="translate(277.581875 164.449688)scale(0.12 -0.12)">
      <use xlink:href="#DejaVuSerif-118"/>
      <use x="56.494141" xlink:href="#DejaVuSerif-97"/>
      <use x="116.113281" xlink:href="#DejaVuSerif-108"/>
      <use x="148.095703" xlink:href="#DejaVuSerif-95"/>
      <use x="198.095703" xlink:href="#DejaVuSerif-108"/>
      <use x="230.078125" xlink:href="#DejaVuSerif-111"/>
      <use x="290.283203" xlink:href="#DejaVuSerif-115"/>
      <use x="341.601562" xlink:href="#DejaVuSerif-115"/>
     </g>
    </g>
   </g>
  </g>
 </g>
 <defs>
  <clipPath id="pe4f8ff276d">
   <rect height="166.32" width="279" x="56.5325" y="11.759063"/>
  </clipPath>
 </defs>
</svg>
